<svg xmlns="http://www.w3.org/2000/svg" xmlns:xlink="http://www.w3.org/1999/xlink" width="138" height="138" viewBox="0 0 138 138">
  <defs>
    <clipPath id="clip-path">
      <rect id="Rectángulo_39121" data-name="Rectángulo 39121" width="83.189" height="83.204" fill="#f57c00"/>
    </clipPath>
  </defs>
  <g id="Grupo_143174" data-name="Grupo 143174" transform="translate(-1140.313 -2180)">
    <circle id="Elipse_4997" data-name="Elipse 4997" cx="69" cy="69" r="69" transform="translate(1140.313 2180)" fill="#e8e8e8"/>
    <g id="Grupo_143173" data-name="Grupo 143173" transform="translate(1167.313 2207)">
      <g id="Grupo_143172" data-name="Grupo 143172" clip-path="url(#clip-path)">
        <path id="Trazado_159450" data-name="Trazado 159450" d="M80.49,68.583c-.759.094-.976-.123-.975-.932q.043-23.96.022-47.92a7.039,7.039,0,0,0-.506-3.093,6.017,6.017,0,0,0-5.871-3.688q-8.975,0-17.95.014c-.6,0-.816-.112-.834-.772a11.607,11.607,0,0,0-.91-4.176c-.409-.982-.962-1.342-1.685-1.075-.8.293-.986.933-.587,1.957a10.233,10.233,0,0,1-1.224,10.01,6.549,6.549,0,0,1-.455.571,1.423,1.423,0,0,1-.222.166,7.548,7.548,0,0,0-3.44-4.441c-.568-.332-.056-.533.086-.722a5.506,5.506,0,0,0-7.98-7.519,5.39,5.39,0,0,0-.793,7.327c.489.637.335.822-.241,1.2a7.342,7.342,0,0,0-3.023,4.2,9.564,9.564,0,0,1-2.335-4.3A10.361,10.361,0,0,1,47.542,4.322c.112.077.219.16.333.23a1.236,1.236,0,0,0,1.737-.206c.016-.02.031-.04.045-.062a1.189,1.189,0,0,0-.291-1.658c-.024-.017-.048-.032-.073-.047a11.956,11.956,0,0,0-5.6-2.4A12.768,12.768,0,0,0,29.02,10.472a7.285,7.285,0,0,0-.2,1.768c.032.667-.259.717-.8.715q-9.015-.025-18.031,0a6.055,6.055,0,0,0-6.164,4.731,9.085,9.085,0,0,0-.157,2.1q0,23.922.019,47.845c0,.76-.147,1-.947.971C.679,68.537.008,69.242.008,71.277c0,1.679-.018,3.358,0,5.036A6.994,6.994,0,0,0,4.9,82.887c.268.087.595.047.791.317H77.182c.382-.267.857-.2,1.272-.357A7.065,7.065,0,0,0,82.9,78.229c.078-.241.027-.549.294-.711V70.205a2.268,2.268,0,0,0-2.7-1.622M41.591,8.013a3.07,3.07,0,1,1-3.067,3.073c0-.009,0-.018,0-.028a3.109,3.109,0,0,1,3.067-3.045M36.135,20.866a5.63,5.63,0,0,1,10.925,0A.808.808,0,0,1,46.6,21.9a10.4,10.4,0,0,1-9.934.035.852.852,0,0,1-.534-1.075ZM55.258,50a6.029,6.029,0,0,1,4.99.677,5,5,0,0,1,2.2,3.537.742.742,0,0,1-.462.89,10.576,10.576,0,0,1-4.963,1.294,11.194,11.194,0,0,1-4.915-1.208.943.943,0,0,1-.586-1.2l.008-.024a4.868,4.868,0,0,1,3.725-3.971Zm-1.321-5.665a3.017,3.017,0,0,1,2.949-3.082h.108a3.056,3.056,0,1,1-3.057,3.082m6.973,3.876a5.667,5.667,0,0,0,1.531-4.614,5.5,5.5,0,0,0-10.046-2.331,5.429,5.429,0,0,0,.194,6.3c.416.533.421.717-.187,1.082a7.265,7.265,0,0,0-3.082,4.132c-2.608-2.189-4.19-8.366-.539-13.075a10.382,10.382,0,0,1,14.564-1.861q.244.19.477.393a10.258,10.258,0,0,1,1,14.473l-.13.147A7.779,7.779,0,0,0,60.9,48.206ZM50.586,34.959a12.532,12.532,0,0,0-6.374,10.809c-.018.49-.184.577-.612.558-.338-.016-.677-.018-1.014-.016s-.676.007-1.016.007h-.508c-.508,0-1.016-.015-1.522.013-.44.025-.521-.147-.536-.552a12.585,12.585,0,0,0-6.371-10.818c-.372-.228-.479-.357-.2-.767q2.865-4.231,5.672-8.5a.678.678,0,0,1,.845-.359,12,12,0,0,0,5.313,0,.679.679,0,0,1,.846.355q2.817,4.256,5.67,8.5c.264.4.185.534-.2.769ZM26.224,56.395a10.523,10.523,0,0,1-2.916-.433l-.072-.022c-.17-.052-.339-.108-.506-.167l-.157-.059-.279-.108c-.173-.071-.346-.147-.518-.226-.2-.1-.394-.2-.6-.293a.712.712,0,0,1-.431-.832A5.026,5.026,0,0,1,25.1,49.881a6.183,6.183,0,0,1,4.438.82,5.151,5.151,0,0,1,2.141,3.315.905.905,0,0,1-.546,1.158h0q-.294.147-.587.274a10.921,10.921,0,0,1-4.331.944ZM23.143,44.263a3.057,3.057,0,0,1,3.088-3.023h.054a3.054,3.054,0,0,1-.008,6.108c-.043,0-.086,0-.13,0a3.069,3.069,0,0,1-3-3.083m7.019,3.947c2.148-2.991,2.037-5.931-.285-8.025a5.5,5.5,0,0,0-7.387.058c-2.252,2.069-2.348,5.072-.211,7.968a7.686,7.686,0,0,0-3.743,4.6,10.138,10.138,0,0,1-.259-13.452A10.339,10.339,0,0,1,34.153,52.611c-.073.088-.147.173-.222.257a7.864,7.864,0,0,0-3.77-4.655ZM6.1,19.518a3.669,3.669,0,0,1,4.086-4.124c6.017,0,12.023.008,18.034-.016.612,0,.954.112,1.027.769a3.088,3.088,0,0,0,.314,1c.313.63.03.687-.522.687q-9.017-.02-18.034-.008c-1.892,0-2.476.587-2.476,2.47V39.963a4.887,4.887,0,0,0,.04.809,1.193,1.193,0,0,0,2.356.02,5.1,5.1,0,0,0,.045-.889c0-6.283.012-12.564-.013-18.847,0-.649.179-.8.805-.794q9.342.035,18.684,0a1.273,1.273,0,0,1,1.16.531A11.364,11.364,0,0,0,35.5,24.043c.549.278.459.486.184.9q-2.766,4.1-5.489,8.231a.816.816,0,0,1-1.049.407A12.79,12.79,0,1,0,38.54,49.409c.132-.477.307-.688.857-.668,1.468.052,2.925.049,4.385,0,.536-.018.724.154.864.652a12.87,12.87,0,0,0,12.927,9.431A13.037,13.037,0,0,0,69.733,47.365,12.885,12.885,0,0,0,59.527,33.474a12.294,12.294,0,0,0-5.548.125.722.722,0,0,1-.931-.353q-2.763-4.2-5.576-8.366c-.3-.44-.2-.6.232-.826a11.732,11.732,0,0,0,3.941-3.321,1.122,1.122,0,0,1,1.027-.468q9.423.015,18.847,0c.556,0,.734.125.726.708q-.026,19.821,0,39.643c0,.525-.127.669-.661.667q-29.976-.021-59.952,0c-.547,0-.658-.163-.656-.675.019-4.521.012-9.045.01-13.566a7.7,7.7,0,0,0-.018-.812,1.232,1.232,0,0,0-1.211-1.174,1.213,1.213,0,0,0-1.2,1.191c-.042.587-.019,1.191-.019,1.786V61.275c0,1.822.623,2.442,2.433,2.442H72.226c1.818,0,2.451-.621,2.451-2.425V20.269c0-1.823-.61-2.429-2.436-2.429-5.985,0-11.969-.01-17.954.014-.684,0-.949-.084-.608-.809.237-.5.217-1.286.588-1.528.421-.278,1.146-.106,1.737-.107H72.984A3.669,3.669,0,0,1,77.108,19.5q0,24.167.019,48.335c0,.667-.207.774-.807.772q-17.386-.025-34.769-.014-17.3,0-34.606.015c-.652,0-.848-.119-.847-.818q.02-24.14.006-48.268m35.544,51.5h1.28c1.279,0,2.56,0,3.838-.012.44,0,.606.085.6.568-.044,2.261.211,1.855-1.83,1.87-2.925.022-5.85-.016-8.774.021-.724.008-.938-.231-.925-.931.028-1.517,0-1.519,1.508-1.519Zm39.127.819c-.059,1.378-.013,2.762-.019,4.141a4.549,4.549,0,0,1-4.794,4.783H7.481a4.588,4.588,0,0,1-5.038-5.028c0-1.381.018-2.762-.01-4.143-.009-.452.11-.587.575-.587q14.906.02,29.813,0c.44,0,.627.086.595.571a11.309,11.309,0,0,0,.027,1.785,2.719,2.719,0,0,0,2.632,2.511q5.524.055,11.049,0a2.741,2.741,0,0,0,2.641-2.51c.018-.161.027-.324.031-.486.013-.595-.208-1.4.093-1.73.358-.394,1.174-.126,1.792-.126q14.135,0,28.269-.022c.68,0,.853.169.825.841" transform="translate(0 0)" fill="#f57c00"/>
      </g>
    </g>
  </g>
</svg>
