<svg xmlns="http://www.w3.org/2000/svg" xmlns:xlink="http://www.w3.org/1999/xlink" width="138" height="138" viewBox="0 0 138 138">
  <defs>
    <clipPath id="clip-path">
      <rect id="Rectángulo_39119" data-name="Rectángulo 39119" width="72.773" height="58.556" fill="#f57c00"/>
    </clipPath>
  </defs>
  <g id="Grupo_143176" data-name="Grupo 143176" transform="translate(-311.313 -2180)">
    <circle id="Elipse_4995" data-name="Elipse 4995" cx="69" cy="69" r="69" transform="translate(311.313 2180)" fill="#e8e8e8"/>
    <g id="Grupo_143169" data-name="Grupo 143169" transform="translate(344.313 2220)">
      <g id="Grupo_143168" data-name="Grupo 143168" transform="translate(0 0)" clip-path="url(#clip-path)">
        <path id="Trazado_159434" data-name="Trazado 159434" d="M67.876,0Q36.083.066,4.292.026C1.472.026,0,1.494,0,4.31V38.7a3.7,3.7,0,0,0,2.034,3.481,4.623,4.623,0,0,0,2.273.428H68.536a4.187,4.187,0,0,0,3.271-1.244,9.069,9.069,0,0,0,.96-1.7V3C71.974.638,70.23,0,67.876,0m.556,39.586H4.347C3.1,39.586,3,39.483,3,38.261V4.37c0-1.206.137-1.345,1.34-1.345H68.424c1.21,0,1.347.138,1.347,1.338V38.252c0,1.231-.1,1.333-1.34,1.333Z" transform="translate(0 0)" fill="#f57c00"/>
        <path id="Trazado_159435" data-name="Trazado 159435" d="M70.618,90.187c-9.092.022-18.184.009-27.276.024-.515,0-.787-.1-.976-.637a5.883,5.883,0,0,0-11.017-.011.828.828,0,0,1-.962.646Q16.322,90.189,2.258,90.2a6.623,6.623,0,0,0-.985.058A1.466,1.466,0,0,0,.036,91.684a1.45,1.45,0,0,0,1.14,1.43,5.363,5.363,0,0,0,1.056.091q14.065.007,28.129-.008c.538,0,.811.1,1.013.669a5.882,5.882,0,0,0,10.989-.015.836.836,0,0,1,.953-.657c9.021.019,18.043,0,27.064.026a2.6,2.6,0,0,0,2.41-.967v-.995a2.13,2.13,0,0,0-2.171-1.072M36.865,94.639A2.937,2.937,0,1,1,39.8,91.692a2.983,2.983,0,0,1-2.933,2.947Z" transform="translate(-0.016 -39.087)" fill="#f57c00"/>
        <path id="Trazado_159436" data-name="Trazado 159436" d="M67.236,28.025q-6.706-4.774-13.415-9.545a1.765,1.765,0,0,0-1.9-.369c-.765.369-.846,1.053-.843,1.8.011,3.2,0,6.4,0,9.592,0,3.222.006,6.442,0,9.664A1.585,1.585,0,0,0,53.8,40.56q6.7-4.784,13.412-9.549c1.377-.984,1.385-2.017.022-2.986M54.12,36.637V22.383l10.018,7.122Z" transform="translate(-23.266 -8.195)" fill="#f57c00"/>
        <path id="Trazado_159437" data-name="Trazado 159437" d="M51.115,31.111c0-3.2.006-6.4,0-9.592.011,3.2,0,6.4,0,9.592,0,3.222.006,6.442,0,9.663.008-3.22,0-6.442,0-9.663" transform="translate(-23.299 -9.809)" fill="#f57c00"/>
      </g>
    </g>
  </g>
</svg>
