<svg xmlns="http://www.w3.org/2000/svg" xmlns:xlink="http://www.w3.org/1999/xlink" width="138" height="138" viewBox="0 0 138 138">
  <defs>
    <clipPath id="clip-path">
      <rect id="Rectángulo_39120" data-name="Rectángulo 39120" width="73.023" height="73.035" fill="#f57c00"/>
    </clipPath>
  </defs>
  <g id="Grupo_143175" data-name="Grupo 143175" transform="translate(-731.313 -2180)">
    <circle id="Elipse_4996" data-name="Elipse 4996" cx="69" cy="69" r="69" transform="translate(731.313 2180)" fill="#e8e8e8"/>
    <g id="Grupo_143171" data-name="Grupo 143171" transform="translate(763.313 2212)">
      <g id="Grupo_143170" data-name="Grupo 143170" clip-path="url(#clip-path)">
        <path id="Trazado_159438" data-name="Trazado 159438" d="M50.911,0a15.966,15.966,0,0,1,1.74.559,7.031,7.031,0,0,1,4.517,6.665c.074,4.229.021,8.461.022,12.691v.82a16.951,16.951,0,0,1,12.14,6.437A16.718,16.718,0,0,1,72.992,36.8,17.173,17.173,0,0,1,59.62,54.438c0,1.391-.01,2.791.011,4.191a1.089,1.089,0,0,0,.246.564,4.971,4.971,0,0,1,.974,3c.014,1.973.035,3.946-.008,5.918a4.857,4.857,0,0,1-9.565,1.259,8.472,8.472,0,0,1-.174-1.695c-.029-.658-.007-1.32-.007-1.937H30.8q-11.334,0-22.669,0c-4.421,0-6.911-1.919-8.045-6.215A1.293,1.293,0,0,0,0,59.336V6.276c.05-.151.114-.3.149-.452A7.115,7.115,0,0,1,3.788.931,18.43,18.43,0,0,1,6.275,0ZM2.43,17.084v.681q0,20.11,0,40.221c0,3.28,2.012,5.315,5.269,5.317q19.5.006,39,0c1.235,0,2.47-.046,3.7-.056.545,0,.729-.239.7-.788a4.911,4.911,0,0,1,1.013-3.338.929.929,0,0,0,.194-.511c.015-1.4.009-2.8.009-4.19A17.117,17.117,0,0,1,38.943,37.14a16.62,16.62,0,0,1,3.427-9.645,16.983,16.983,0,0,1,12.36-6.765V17.084ZM55.9,52.34A14.611,14.611,0,1,0,41.368,37.661,14.65,14.65,0,0,0,55.9,52.34M54.678,14.575a.94.94,0,0,0,.07-.207c.005-2.329.027-4.659.007-6.988a4.844,4.844,0,0,0-4.986-4.945q-21.141-.014-42.282,0A4.852,4.852,0,0,0,2.436,7.463c-.015,2.163-.006,4.326,0,6.49,0,.2.028.4.044.622ZM53.538,65.1c0,.975-.019,1.949,0,2.924a2.438,2.438,0,1,0,4.868-.01q.038-2.887,0-5.775a2.441,2.441,0,1,0-4.87.009c-.019.95,0,1.9,0,2.852m1.27-7.84H57.14V54.773H54.809Z" fill="#f57c00"/>
        <path id="Trazado_159439" data-name="Trazado 159439" d="M16.958,51.919A8.553,8.553,0,1,1,28.539,39.363,8.619,8.619,0,0,1,27.865,51.9c.324.162.642.3.945.473a8.2,8.2,0,0,1,4.526,7.251c.092,2.943.045,5.892.017,8.838a3.571,3.571,0,0,1-3.64,3.6q-7.269.029-14.539,0a3.571,3.571,0,0,1-3.68-3.634c-.03-2.9-.068-5.8.007-8.7a8.254,8.254,0,0,1,4.813-7.5c.208-.108.422-.206.643-.314m9.113,17.689V66.973c0-2.3-.007-4.609,0-6.913a1.223,1.223,0,1,1,2.425.015c0,.213,0,.428,0,.642,0,2.495,0,4.989.007,7.483,0,.883.5,1.448,1.233,1.437a1.236,1.236,0,0,0,1.187-1.4c.006-2.827.029-5.655-.011-8.481a5.833,5.833,0,0,0-5-5.792,45.032,45.032,0,0,0-5.758-.141,6.039,6.039,0,0,0-6.235,6.19c-.018,1.948,0,3.9,0,5.844,0,.855-.012,1.711.015,2.565a1.192,1.192,0,0,0,1.151,1.213,1.241,1.241,0,0,0,1.25-1.129,4.337,4.337,0,0,0,.012-.569c0-2.637,0-5.274.008-7.911a1.213,1.213,0,1,1,2.417-.059c.017,3.2.007,6.405.007,9.642Zm-3.553-30.38A6.077,6.077,0,1,0,28.5,45.443a6.044,6.044,0,0,0-5.978-6.216" transform="translate(-5.388 -17.301)" fill="#f57c00"/>
        <path id="Trazado_159440" data-name="Trazado 159440" d="M31.511,110.406q-9.23,0-18.461,0c-.913,0-1.4-.318-1.512-.974-.148-.845.416-1.449,1.395-1.452q4.669-.014,9.337-.007l27.441,0c.166,0,.333,0,.5,0,.907.017,1.431.47,1.425,1.232s-.52,1.2-1.45,1.2q-9.338.006-18.675,0" transform="translate(-5.415 -50.774)" fill="#f57c00"/>
        <path id="Trazado_159441" data-name="Trazado 159441" d="M64.153,101.237c-1.734,0-3.469,0-5.2,0-.952,0-1.524-.464-1.526-1.218S58,98.806,58.95,98.805q5.2-.006,10.408,0c.911,0,1.436.454,1.439,1.213s-.529,1.211-1.439,1.214c-1.734.006-3.469,0-5.2,0Z" transform="translate(-27.004 -46.462)" fill="#f57c00"/>
        <path id="Trazado_159442" data-name="Trazado 159442" d="M62.341,89.617c1.138,0,2.277-.007,3.415,0,.848.007,1.382.472,1.395,1.185.013.741-.536,1.241-1.421,1.245q-3.45.014-6.9,0a1.258,1.258,0,0,1-1.4-1.2c-.017-.729.545-1.221,1.429-1.227,1.162-.008,2.324,0,3.486,0Z" transform="translate(-27.004 -42.141)" fill="#f57c00"/>
        <path id="Trazado_159443" data-name="Trazado 159443" d="M84.784,67.983c-.62-.548-1.135-.964-1.6-1.428a1.194,1.194,0,0,1-.135-1.82,1.211,1.211,0,0,1,1.823.085q1.125,1.087,2.214,2.21a1.234,1.234,0,0,1,0,1.935q-1.112,1.15-2.262,2.262a1.227,1.227,0,0,1-1.777.093,1.2,1.2,0,0,1,.076-1.82c.483-.485,1.011-.925,1.664-1.517" transform="translate(-38.871 -30.266)" fill="#f57c00"/>
        <path id="Trazado_159444" data-name="Trazado 159444" d="M102.427,87.822c-.555.6-.985,1.112-1.458,1.577a1.216,1.216,0,1,1-1.723-1.7c.742-.769,1.5-1.528,2.267-2.268a1.2,1.2,0,0,1,1.834-.014q1.185,1.132,2.316,2.319a1.213,1.213,0,1,1-1.745,1.677c-.474-.464-.91-.966-1.491-1.59" transform="translate(-46.461 -39.971)" fill="#f57c00"/>
        <path id="Trazado_159445" data-name="Trazado 159445" d="M102.45,50.363c.548-.618.968-1.134,1.433-1.6a1.2,1.2,0,0,1,1.827-.128,1.226,1.226,0,0,1-.1,1.831c-.728.751-1.466,1.492-2.219,2.218a1.238,1.238,0,0,1-1.939-.034q-1.1-1.071-2.166-2.17a1.223,1.223,0,0,1-.128-1.829,1.2,1.2,0,0,1,1.825.1c.469.468.895.981,1.468,1.615" transform="translate(-46.462 -22.699)" fill="#f57c00"/>
        <path id="Trazado_159446" data-name="Trazado 159446" d="M122.2,68.026c.613.536,1.133.947,1.6,1.41a1.2,1.2,0,0,1,.136,1.823,1.216,1.216,0,0,1-1.827-.091q-1.124-1.092-2.215-2.218a1.229,1.229,0,0,1,.028-1.936q1.066-1.1,2.165-2.168a1.226,1.226,0,1,1,1.689,1.74c-.452.451-.943.863-1.578,1.439" transform="translate(-56.167 -30.266)" fill="#f57c00"/>
        <path id="Trazado_159447" data-name="Trazado 159447" d="M71.734,16.471q-2.919,0-5.838,0a3.654,3.654,0,1,1-.031-7.3q5.91-.017,11.819,0a3.651,3.651,0,1,1,.031,7.3c-1.993.019-3.987,0-5.981,0Zm-.028-2.441v0c1.948,0,3.9,0,5.844,0,.949,0,1.523-.479,1.505-1.228-.017-.722-.585-1.2-1.481-1.2q-5.809-.01-11.617,0c-.95,0-1.505.479-1.492,1.247.013.744.542,1.176,1.467,1.178,1.925,0,3.849,0,5.773,0" transform="translate(-29.163 -4.31)" fill="#f57c00"/>
        <path id="Trazado_159448" data-name="Trazado 159448" d="M31.219,16.471a3.647,3.647,0,1,1,3.64-3.613,3.652,3.652,0,0,1-3.64,3.613m-.026-2.438a1.18,1.18,0,0,0,1.216-1.2A1.2,1.2,0,0,0,30,12.8a1.187,1.187,0,0,0,1.188,1.232" transform="translate(-12.956 -4.316)" fill="#f57c00"/>
        <path id="Trazado_159449" data-name="Trazado 159449" d="M12.839,16.478a3.648,3.648,0,1,1,3.632-3.607,3.605,3.605,0,0,1-3.632,3.607m1.192-3.651A1.217,1.217,0,0,0,12.8,11.619a1.257,1.257,0,0,0-1.189,1.192,1.215,1.215,0,0,0,1.21,1.224,1.172,1.172,0,0,0,1.206-1.209" transform="translate(-4.317 -4.318)" fill="#f57c00"/>
      </g>
    </g>
  </g>
</svg>
