<svg xmlns="http://www.w3.org/2000/svg" width="361" height="117" viewBox="0 0 361 117">
  <g id="Grupo_142134" data-name="Grupo 142134" transform="translate(-599.313 -4816.836)">
    <path id="Trazado_157187" data-name="Trazado 157187" d="M6131.87-6825.65h14v-42.5H6198.6v42.5h53.182v-42.5h48.179v42.5h54.882v-42.5h51.635v45.48h14.8" transform="translate(-5496.252 11701.068)" fill="none" stroke="#707070" stroke-width="1"/>
    <path id="Trazado_157188" data-name="Trazado 157188" d="M6245-6828.5v45.219h48.095V-6828.5" transform="translate(-5489.386 11703.919)" fill="none" stroke="#707070" stroke-width="1"/>
    <path id="Trazado_157189" data-name="Trazado 157189" d="M6339-6828.5v42.663h51.641v-39.505" transform="translate(-5480.468 11703.919)" fill="none" stroke="#707070" stroke-width="1"/>
    <g id="Rectángulo_38302" data-name="Rectángulo 38302" transform="translate(861.313 4816.836)" fill="#fff" stroke="#707070" stroke-width="1">
      <rect width="47" height="31" rx="3" stroke="none"/>
      <rect x="0.5" y="0.5" width="46" height="30" rx="2.5" fill="none"/>
    </g>
    <g id="Rectángulo_38303" data-name="Rectángulo 38303" transform="translate(861.313 4902.836)" fill="#fff" stroke="#707070" stroke-width="1">
      <rect width="47" height="31" rx="3" stroke="none"/>
      <rect x="0.5" y="0.5" width="46" height="30" rx="2.5" fill="none"/>
    </g>
    <g id="Rectángulo_38293" data-name="Rectángulo 38293" transform="translate(599.313 4859.836)" fill="#fff" stroke="#707070" stroke-width="1">
      <rect width="48" height="31" rx="3" stroke="none"/>
      <rect x="0.5" y="0.5" width="47" height="30" rx="2.5" fill="none"/>
    </g>
    <g id="Rectángulo_38298" data-name="Rectángulo 38298" transform="translate(704.313 4859.836)" fill="#fff" stroke="#707070" stroke-width="1">
      <rect width="48" height="31" rx="3" stroke="none"/>
      <rect x="0.5" y="0.5" width="47" height="30" rx="2.5" fill="none"/>
    </g>
    <g id="Rectángulo_38301" data-name="Rectángulo 38301" transform="translate(808.313 4859.836)" fill="#fff" stroke="#707070" stroke-width="1">
      <rect width="48" height="31" rx="3" stroke="none"/>
      <rect x="0.5" y="0.5" width="47" height="30" rx="2.5" fill="none"/>
    </g>
    <g id="Rectángulo_38304" data-name="Rectángulo 38304" transform="translate(912.313 4859.836)" fill="#fff" stroke="#707070" stroke-width="1">
      <rect width="48" height="31" rx="3" stroke="none"/>
      <rect x="0.5" y="0.5" width="47" height="30" rx="2.5" fill="none"/>
    </g>
    <g id="Rectángulo_38297" data-name="Rectángulo 38297" transform="translate(653.313 4817.836)" fill="#fff" stroke="#707070" stroke-width="1">
      <rect width="46" height="29" rx="3" stroke="none"/>
      <rect x="0.5" y="0.5" width="45" height="28" rx="2.5" fill="none"/>
    </g>
    <g id="Rectángulo_38299" data-name="Rectángulo 38299" transform="translate(758.313 4817.836)" fill="#fff" stroke="#707070" stroke-width="1">
      <rect width="44" height="29" rx="3" stroke="none"/>
      <rect x="0.5" y="0.5" width="43" height="28" rx="2.5" fill="none"/>
    </g>
    <g id="Rectángulo_38300" data-name="Rectángulo 38300" transform="translate(758.313 4903.836)" fill="#fff" stroke="#707070" stroke-width="1">
      <rect width="44" height="29" rx="3" stroke="none"/>
      <rect x="0.5" y="0.5" width="43" height="28" rx="2.5" fill="none"/>
    </g>
  </g>
</svg>
