<svg xmlns="http://www.w3.org/2000/svg" width="169" height="142" viewBox="0 0 169 142">
  <g id="Grupo_142133" data-name="Grupo 142133" transform="translate(-1258.085 -5190.628)">
    <path id="Trazado_157186" data-name="Trazado 157186" d="M6770.966-6403.7v-78.538H6894.9v78.538" transform="translate(-5490.235 11716.192)" fill="none" stroke="#707070" stroke-width="1"/>
    <line id="Línea_908" data-name="Línea 908" y2="109.153" transform="translate(1345.795 5210.262)" fill="none" stroke="#707070" stroke-width="1"/>
    <g id="Rectángulo_38290" data-name="Rectángulo 38290" transform="translate(1322.085 5190.628)" fill="#fff" stroke="#707070" stroke-width="1">
      <rect width="45" height="29" rx="3" stroke="none"/>
      <rect x="0.5" y="0.5" width="44" height="28" rx="2.5" fill="none"/>
    </g>
    <g id="Rectángulo_38291" data-name="Rectángulo 38291" transform="translate(1258.085 5245.628)" fill="#fff" stroke="#707070" stroke-width="1">
      <rect width="45" height="29" rx="3" stroke="none"/>
      <rect x="0.5" y="0.5" width="44" height="28" rx="2.5" fill="none"/>
    </g>
    <g id="Rectángulo_38292" data-name="Rectángulo 38292" transform="translate(1322.085 5245.628)" fill="#fff" stroke="#707070" stroke-width="1">
      <rect width="45" height="29" rx="3" stroke="none"/>
      <rect x="0.5" y="0.5" width="44" height="28" rx="2.5" fill="none"/>
    </g>
    <g id="Rectángulo_38293" data-name="Rectángulo 38293" transform="translate(1382.085 5245.628)" fill="#fff" stroke="#707070" stroke-width="1">
      <rect width="45" height="29" rx="3" stroke="none"/>
      <rect x="0.5" y="0.5" width="44" height="28" rx="2.5" fill="none"/>
    </g>
    <g id="Rectángulo_38296" data-name="Rectángulo 38296" transform="translate(1258.085 5303.628)" fill="#fff" stroke="#707070" stroke-width="1">
      <rect width="45" height="29" rx="3" stroke="none"/>
      <rect x="0.5" y="0.5" width="44" height="28" rx="2.5" fill="none"/>
    </g>
    <g id="Rectángulo_38295" data-name="Rectángulo 38295" transform="translate(1322.085 5303.628)" fill="#fff" stroke="#707070" stroke-width="1">
      <rect width="45" height="29" rx="3" stroke="none"/>
      <rect x="0.5" y="0.5" width="44" height="28" rx="2.5" fill="none"/>
    </g>
    <g id="Rectángulo_38294" data-name="Rectángulo 38294" transform="translate(1382.085 5303.628)" fill="#fff" stroke="#707070" stroke-width="1">
      <rect width="45" height="29" rx="3" stroke="none"/>
      <rect x="0.5" y="0.5" width="44" height="28" rx="2.5" fill="none"/>
    </g>
  </g>
</svg>
