<svg xmlns="http://www.w3.org/2000/svg" xmlns:xlink="http://www.w3.org/1999/xlink" width="145" height="145" viewBox="0 0 145 145">
  <defs>
    <clipPath id="clip-path">
      <rect id="Rectángulo_39154" data-name="Rectángulo 39154" width="85.52" height="85.495" fill="#f57c00"/>
    </clipPath>
  </defs>
  <g id="Grupo_142149" data-name="Grupo 142149" transform="translate(-694.313 -9303)">
    <circle id="Elipse_4897" data-name="Elipse 4897" cx="72.5" cy="72.5" r="72.5" transform="translate(694.313 9303)" fill="#fff"/>
    <g id="Grupo_143195" data-name="Grupo 143195" transform="translate(723.313 9333)">
      <g id="Grupo_143195-2" data-name="Grupo 143195" clip-path="url(#clip-path)">
        <path id="Trazado_159558" data-name="Trazado 159558" d="M5.515,71.692V29.536c0-3.108,1.612-4.717,4.728-4.717,8.014,0,16.028-.013,24.042.021.766,0,1.1-.24,1.182-.956a4.35,4.35,0,0,1,.12-.59,1.577,1.577,0,0,0-.739-2.1h0a3.666,3.666,0,0,1-1.517-2.167,17.111,17.111,0,0,1-.179-4.1,1.224,1.224,0,0,1,1.312-1.128c.426-.022.853,0,1.393,0v-12C35.853.448,36.314,0,37.677,0H47.932c1.228,0,1.7.489,1.707,1.738q.007,5.517,0,11.033v1.021c.5,0,.918-.02,1.338,0a1.355,1.355,0,0,1,1.41,1.3c0,.04,0,.08,0,.12.029.976.053,1.956-.007,2.929A3.972,3.972,0,0,1,50.2,21.531a.734.734,0,0,0-.444.87c.267,2.412.254,2.413,2.612,2.413H75.379a4.176,4.176,0,0,1,4.595,4.592V71.7c.931,0,1.785-.01,2.639,0a2.758,2.758,0,0,1,2.873,2.638q0,.119,0,.238c.014,1.552.089,3.11-.04,4.652a6.839,6.839,0,0,1-6.915,6.253c-5.228.024-10.457.007-15.684,0H7.524c-4.662,0-7.517-2.851-7.518-7.505,0-1.149-.014-2.3,0-3.448A2.739,2.739,0,0,1,2.649,71.7c.061,0,.122,0,.182,0,.855-.019,1.713-.005,2.684-.005m66.14-38.547h-15.7c.814,1.337.781,1.62-.24,2.758q-5.736,6.37-11.468,12.746c-1.2,1.331-1.809,1.334-2.992.017Q35.581,42.355,29.91,36.041a3.131,3.131,0,0,1-.881-1.326,4.194,4.194,0,0,1,.367-1.569H13.85v33h57.8Zm11.06,41.374a2.173,2.173,0,0,0-.328-.065q-14.993,0-29.985.018a1.15,1.15,0,0,0-.8.552c-.69,1.288-1.334,2.6-1.968,3.922A1.637,1.637,0,0,1,48,79.965q-5.255-.021-10.512,0a1.628,1.628,0,0,1-1.627-1.022c-.595-1.242-1.261-2.45-1.824-3.7a1.2,1.2,0,0,0-1.291-.818q-14.518.04-29.037.018h-.95V78c0,3.092,1.627,4.71,4.738,4.71H78.407A4.11,4.11,0,0,0,82.7,78.87c.086-1.423.016-2.865.016-4.353ZM8.273,71.645h68.9c.011-.208.029-.375.029-.542V29.23c0-1.192-.519-1.655-1.793-1.655H52.322c-.243,0-.484.022-.893.041.528.724.984,1.3,1.39,1.92a1.714,1.714,0,0,0,1.637.812c6-.037,12-.022,18.008-.018,1.587,0,1.98.4,1.98,1.984V66.952c0,1.583-.4,1.986-1.98,1.986H13.022c-1.59,0-1.993-.4-1.993-1.971V32.33c0-1.6.393-2,1.964-2h18.18c.3,0,.734.029.887-.138.682-.781,1.285-1.632,2.033-2.608H10.157c-1.456,0-1.875.425-1.875,1.909v41.1ZM41.364,44.654c0-2.423-.02-4.6.014-6.772a1.178,1.178,0,0,0-.7-1.265,4.037,4.037,0,0,1-1.98-4.395,4.137,4.137,0,0,1,7.828-.828,3.746,3.746,0,0,1-1.1,4.724,2.845,2.845,0,0,0-1.309,3.045c.047,1.517.008,3.044.013,4.565,0,.24.027.479.052.87l9.184-10.206c-3.31-3.543-6.09-7.3-6.4-12.292H38.505c-.286,5.041-3.116,8.772-6.376,12.294ZM46.818,2.823H38.651V13.746h8.167ZM35.857,16.565c0,.5-.024.932,0,1.357a1.332,1.332,0,0,0,1.3,1.359h.075q5.5.033,11,0A1.331,1.331,0,0,0,49.618,18c0-.023,0-.046,0-.069.03-.445,0-.893,0-1.365ZM48.75,74.5H36.73c.424.847.777,1.626,1.205,2.361a.922.922,0,0,0,.69.327q4.138.035,8.263,0a.841.841,0,0,0,.639-.276c.432-.753.8-1.553,1.225-2.408Zm-6-42.79a1.379,1.379,0,1,0,1.368,1.39v-.033a1.38,1.38,0,0,0-1.37-1.353Z" transform="translate(0 0)" fill="#f57c00"/>
        <path id="Trazado_159559" data-name="Trazado 159559" d="M61.448,89.736C67.08,88.1,70.953,82.7,71.568,75.567h2.737a18.161,18.161,0,0,1-8.257,15.062h8.243c0-.441-.016-.861,0-1.28A1.346,1.346,0,0,1,75.55,87.92c.047,0,.093,0,.139,0q2.758-.039,5.516.007a1.308,1.308,0,0,1,1.349,1.265c0,.038,0,.077,0,.115q.043,2.714,0,5.428c-.014.938-.57,1.432-1.564,1.44q-2.543.022-5.085,0c-1.113-.01-1.594-.519-1.614-1.655V93.426H71.737c-3.1,0-6.206.011-9.306-.018a.877.877,0,0,0-.985.675,5.412,5.412,0,0,1-5.082,3.47,5.554,5.554,0,0,1-5.115-3.448c-.117-.276-.453-.648-.69-.65-3.991-.04-7.982-.029-12.114-.029,0,.414.008.807,0,1.192a1.4,1.4,0,0,1-1.535,1.564c-1.723.018-3.448.014-5.171,0a1.38,1.38,0,0,1-1.565-1.529q-.029-2.629,0-5.256a1.366,1.366,0,0,1,1.517-1.48c1.637-.015,3.274,0,4.911,0,1.394,0,1.826.446,1.836,1.869v.828h8.207a18.217,18.217,0,0,1-8.231-15.046h2.758a15.309,15.309,0,0,0,3.983,10.159,14.506,14.506,0,0,0,6.107,4.022c3.2-4.365,7.149-4.369,10.185-.012M56.4,94.8a2.758,2.758,0,1,0-2.788-2.728V92.1a2.759,2.759,0,0,0,2.794,2.7ZM35.63,90.737H32.974v2.651H35.63Zm44.119,0H77.1v2.651h2.652Z" transform="translate(-13.628 -34.146)" fill="#f57c00"/>
      </g>
    </g>
  </g>
</svg>
