<svg xmlns="http://www.w3.org/2000/svg" xmlns:xlink="http://www.w3.org/1999/xlink" width="145" height="145" viewBox="0 0 145 145">
  <defs>
    <clipPath id="clip-path">
      <rect id="Rectángulo_39142" data-name="Rectángulo 39142" width="72.863" height="84.32" fill="#f57c00"/>
    </clipPath>
  </defs>
  <g id="Grupo_141781" data-name="Grupo 141781" transform="translate(-694 -9303)">
    <circle id="Elipse_4897" data-name="Elipse 4897" cx="72.5" cy="72.5" r="72.5" transform="translate(694 9303)" fill="#fff"/>
    <g id="Grupo_143192" data-name="Grupo 143192" transform="translate(739.266 9333.34)">
      <g id="Grupo_143191" data-name="Grupo 143191" clip-path="url(#clip-path)">
        <path id="Trazado_159477" data-name="Trazado 159477" d="M.035,22.455a1.128,1.128,0,0,0,1.115,1.1,1.131,1.131,0,0,0,1.274-.922,3.522,3.522,0,0,0,.061-.9c0-6.173.013-12.347-.012-18.52,0-.6.125-.766.753-.765q20.783.032,41.564,0c.593,0,.78.107.773.747-.039,3.292-.024,6.585-.016,9.876a2.6,2.6,0,0,0,2.9,2.888c3.321,0,6.639.02,9.958-.016.633-.007.77.172.755.774-.044,1.727-.008,3.457-.02,5.185a1.276,1.276,0,0,0,.69,1.293c.888.44,1.768-.2,1.778-1.327.017-2-.035-4.006.02-6.008a3.515,3.515,0,0,0-1.16-2.766Q54.445,7.14,48.477,1.118A4.033,4.033,0,0,0,46.814,0H1.689A2.743,2.743,0,0,0,0,2.867C.049,9.149.021,15.432.022,21.715a6.731,6.731,0,0,0,.014.74M48.011,4.438,57.075,13.5H50.718c-.741,0-1.482-.011-2.223.005-.334.008-.493-.073-.492-.452.013-2.9.008-5.791.008-8.62" transform="translate(0)" fill="#f57c00"/>
        <path id="Trazado_159478" data-name="Trazado 159478" d="M84.079,26.942q-.658-.335-1.325-.653A3.3,3.3,0,0,0,78.006,27.9Q65.906,52.454,53.818,77.01a2.682,2.682,0,0,0-.283,1.429c.057.739.072,1.48.1,2.22h-.018c.046.794.117,1.589.13,2.384a1.77,1.77,0,0,0,.959,1.766,1.841,1.841,0,0,0,2-.271q1.841-1.314,3.708-2.59a3.342,3.342,0,0,0,1.143-1.36c1.457-3,2.943-5.991,4.418-8.985.69-1.4,1.392-2.792,2.065-4.2a1.259,1.259,0,0,0-.614-1.842c-.659-.24-1.236.047-1.637.855-1.166,2.353-2.331,4.707-3.474,7.072-.209.431-.382.565-.843.289a13.308,13.308,0,0,0-1.986-.978c-.572-.223-.645-.435-.361-1,2.358-4.723,4.677-9.467,7.008-14.2Q70.684,48.351,75.22,39.1c.26-.533.469-.675,1.013-.338a13.494,13.494,0,0,0,1.915.937c.506.212.611.426.341.957-1.265,2.486-2.482,5-3.714,7.5q-3.21,6.516-6.415,13.033c-.431.879-.265,1.547.441,1.9.69.346,1.327.053,1.775-.818.05-.1.1-.2.147-.294q3.77-7.657,7.541-15.316,3.7-7.51,7.391-15.022a3.3,3.3,0,0,0-1.576-4.7M56.146,81.912V78.836l2.589,1.272-2.589,1.8m4.412-5.849a2.6,2.6,0,0,1,.36.271c-.3.565-.536,1.082-.833,1.564-.1.167-.3-.023-.43-.086-.784-.375-1.547-.8-2.345-1.138-.439-.189-.387-.385-.219-.737.612-1.287.6-1.292,1.861-.671.536.264,1.074.524,1.606.8M79.918,37.678c-.087.159-.255.042-.366-.012-.86-.419-1.709-.859-2.574-1.265-.271-.127-.266-.236-.169-.495.562-1.5.575-1.509,2.013-.8.491.242.975.5,1.468.732.171.082.334.153.392.329-.269.537-.5,1.032-.764,1.51m3.674-7.54a4.076,4.076,0,0,1-.178.478c-.438.907-.9,1.8-1.322,2.718-.194.424-.383.489-.8.258-.712-.4-1.452-.748-2.2-1.079-.374-.166-.494-.31-.273-.718.5-.934.962-1.894,1.424-2.851a.906.906,0,0,1,1.406-.463c.461.234.928.458,1.389.693a.891.891,0,0,1,.55.964" transform="translate(-13.224 -6.386)" fill="#f57c00"/>
        <path id="Trazado_159479" data-name="Trazado 159479" d="M61.538,66.443a1.126,1.126,0,0,0-1.153-.876,1.109,1.109,0,0,0-1.143.777,3.14,3.14,0,0,0-.084.974c0,7.411-.017,14.82.017,22.23,0,.783-.164.981-.967.98q-27.376-.04-54.751,0c-.767,0-.985-.139-.983-.955q.043-26.3.019-52.61a4.107,4.107,0,0,0-.066-.979,1.134,1.134,0,0,0-1.272-.932A1.143,1.143,0,0,0,.04,36.165c-.02.218-.011.438-.011.658q0,26.676,0,53.351c0,2.032.786,2.8,2.85,2.8h55.9c2.028,0,2.839-.809,2.839-2.835q0-11.4,0-22.806a3.43,3.43,0,0,0-.081-.893" transform="translate(-0.007 -8.658)" fill="#f57c00"/>
        <path id="Trazado_159480" data-name="Trazado 159480" d="M7.884,65.042A2.36,2.36,0,0,0,10.312,67.5q3.249.055,6.5,0a2.408,2.408,0,0,0,2.455-2.534q.025-3.168,0-6.335a2.314,2.314,0,0,0-2.284-2.5c-2.273-.072-4.552-.069-6.825,0a2.269,2.269,0,0,0-2.275,2.414c-.026,1.069-.005,2.139-.005,3.209,0,1.1-.021,2.194.006,3.291m2.449-5.975c0-.39.12-.523.516-.519q2.751.025,5.5,0c.367,0,.461.136.459.481-.013,1.834-.022,3.669,0,5.5.008.482-.209.523-.591.515-.9-.02-1.807-.007-2.711-.007-.876,0-1.753-.022-2.628.01-.44.015-.557-.142-.553-.563q.027-2.709,0-5.42" transform="translate(-1.944 -13.854)" fill="#f57c00"/>
        <path id="Trazado_159481" data-name="Trazado 159481" d="M7.883,45.283a2.305,2.305,0,0,0,2.333,2.454q3.37.09,6.745-.008a2.33,2.33,0,0,0,2.307-2.488q.025-3.167,0-6.335a2.393,2.393,0,0,0-2.432-2.551q-3.29-.062-6.582,0a2.329,2.329,0,0,0-2.37,2.425c-.029,1.1-.006,2.194-.007,3.291,0,1.069-.021,2.139,0,3.208m2.451-5.977c0-.4.123-.515.517-.511,1.809.019,3.618.023,5.426,0,.456-.007.541.16.536.568q-.027,2.713,0,5.426c0,.391-.107.529-.507.519-.9-.026-1.809-.008-2.713-.008-.877,0-1.754-.017-2.631.008-.428.011-.641-.062-.632-.573.031-1.809.022-3.618,0-5.426" transform="translate(-1.944 -8.974)" fill="#f57c00"/>
        <path id="Trazado_159482" data-name="Trazado 159482" d="M7.89,84.866a2.342,2.342,0,0,0,2.419,2.37q3.25.031,6.5,0A2.383,2.383,0,0,0,19.265,84.8q.038-3.25,0-6.5a2.35,2.35,0,0,0-2.44-2.437q-3.249-.034-6.5,0a2.319,2.319,0,0,0-2.443,2.422c-.026,1.069-.005,2.14-.005,3.209h0c0,1.125-.028,2.25.007,3.374m2.443-6c-.005-.42.1-.577.543-.56.9.034,1.809.011,2.713.011s1.809.017,2.714-.008c.389-.011.517.1.513.5-.021,1.836-.017,3.673,0,5.509,0,.352-.087.473-.456.469q-2.755-.027-5.509,0c-.38,0-.52-.085-.515-.495q.032-2.713,0-5.426" transform="translate(-1.944 -18.737)" fill="#f57c00"/>
        <path id="Trazado_159483" data-name="Trazado 159483" d="M19.26,19A2.34,2.34,0,0,0,16.9,16.633q-3.331-.054-6.664,0a2.3,2.3,0,0,0-2.348,2.351q-.052,3.331,0,6.664a2.31,2.31,0,0,0,2.42,2.36c1.069.02,2.139,0,3.209,0h3.209c.055,0,.11,0,.164,0a2.359,2.359,0,0,0,2.367-2.349q.053-3.332,0-6.664M16.308,25.55c-.9-.027-1.807-.008-2.711-.008-.931,0-1.863-.014-2.793.007-.352.008-.474-.094-.471-.46q.025-2.752,0-5.5c0-.4.114-.507.507-.5,1.835.019,3.67.016,5.5,0,.349,0,.473.084.469.455q-.027,2.752,0,5.5c0,.392-.107.52-.5.508" transform="translate(-1.943 -4.103)" fill="#f57c00"/>
        <path id="Trazado_159484" data-name="Trazado 159484" d="M54.273,47.315a1.11,1.11,0,0,0-.819-1.262,2.99,2.99,0,0,0-.889-.09q-12.706-.007-25.411,0a3.464,3.464,0,0,0-.736.039,1.211,1.211,0,0,0-.947,1.488,1.3,1.3,0,0,0,1.448.941c4.332-.014,8.663-.007,12.994-.007H52.494a4.552,4.552,0,0,0,.739-.017,1.133,1.133,0,0,0,1.04-1.09" transform="translate(-6.281 -11.354)" fill="#f57c00"/>
        <path id="Trazado_159485" data-name="Trazado 159485" d="M27.329,38.643a6.094,6.094,0,0,0-.821.027,1.124,1.124,0,0,0-1.056,1.161,1.108,1.108,0,0,0,.912,1.2,3.873,3.873,0,0,0,.9.08q12.6.006,25.194,0a3.466,3.466,0,0,0,1.054-.117,1.205,1.205,0,0,0-.165-2.3,4.67,4.67,0,0,0-.9-.044q-6.257,0-12.515,0-6.3,0-12.6,0" transform="translate(-6.288 -9.546)" fill="#f57c00"/>
        <path id="Trazado_159486" data-name="Trazado 159486" d="M51.831,68.15A1.181,1.181,0,0,0,53.122,66.8c-.071-.77-.59-1.113-1.716-1.113q-12.1,0-24.2,0a3.055,3.055,0,0,0-.972.113,1.107,1.107,0,0,0-.783,1.213,1.122,1.122,0,0,0,.949,1.09,4.611,4.611,0,0,0,.9.049q5.968,0,11.936,0h8.4c1.4,0,2.8.018,4.2-.011" transform="translate(-6.286 -16.229)" fill="#f57c00"/>
        <path id="Trazado_159487" data-name="Trazado 159487" d="M26.83,60.839c.137.006.274,0,.412,0q11.2,0,22.394,0a2.649,2.649,0,0,0,.977-.086,1.206,1.206,0,0,0,.721-1.665,1.372,1.372,0,0,0-1.44-.723q-5.722.015-11.444.005H33.51c-2.223,0-4.445-.007-6.669,0a1.248,1.248,0,0,0-1.4,1.175c-.027.746.517,1.25,1.394,1.289" transform="translate(-6.284 -14.419)" fill="#f57c00"/>
        <path id="Trazado_159488" data-name="Trazado 159488" d="M47.485,80.549a1.2,1.2,0,0,0,1.151-1.178A1.214,1.214,0,0,0,47.492,78.1a6.551,6.551,0,0,0-.74-.011H27.413a7.872,7.872,0,0,0-.822.01,1.209,1.209,0,0,0-1.148,1.263,1.189,1.189,0,0,0,1.141,1.185,5.168,5.168,0,0,0,.657.012H46.827a5.475,5.475,0,0,0,.658-.011" transform="translate(-6.285 -19.291)" fill="#f57c00"/>
        <path id="Trazado_159489" data-name="Trazado 159489" d="M27,28.708q9.507.006,19.014,0c1.018,0,1.614-.468,1.614-1.242s-.587-1.226-1.614-1.227q-4.733,0-9.466,0-4.774,0-9.548,0c-.979,0-1.536.433-1.561,1.187-.026.787.56,1.28,1.562,1.281" transform="translate(-6.284 -6.482)" fill="#f57c00"/>
        <path id="Trazado_159490" data-name="Trazado 159490" d="M26.426,21.3a4.645,4.645,0,0,0,.82.033q4.608,0,9.216,0h4.854c1.673,0,3.346.012,5.019-.009a1.219,1.219,0,0,0,1.288-1.207,1.273,1.273,0,0,0-1.2-1.233,2.816,2.816,0,0,0-.329-.008q-9.585,0-19.172,0A1.966,1.966,0,0,0,26.2,19a1.205,1.205,0,0,0,.227,2.3" transform="translate(-6.285 -4.665)" fill="#f57c00"/>
        <path id="Trazado_159491" data-name="Trazado 159491" d="M43.888,85.5a4.852,4.852,0,0,0-.9-.047q-3.908-.006-7.815,0-3.29,0-6.581,0c-.685,0-1.373-.017-2.055.032a1.1,1.1,0,0,0-1.084,1.13,1.127,1.127,0,0,0,.958,1.245,3.313,3.313,0,0,0,.733.06q8.02.006,16.041,0a2.627,2.627,0,0,0,.888-.115,1.2,1.2,0,0,0-.184-2.3" transform="translate(-6.287 -21.11)" fill="#f57c00"/>
      </g>
    </g>
  </g>
</svg>
