<svg xmlns="http://www.w3.org/2000/svg" width="990" height="1008.909" viewBox="0 0 990 1008.909">
  <g id="Grupo_143590" data-name="Grupo 143590" transform="translate(-281.712 -448)">
    <rect id="Rectángulo_39361" data-name="Rectángulo 39361" width="147" height="90" rx="15" transform="translate(717.712 829)" fill="#fff4c6"/>
    <rect id="Rectángulo_39365" data-name="Rectángulo 39365" width="216" height="154" rx="15" transform="translate(683.712 962)" fill="#fff4c6"/>
    <rect id="Rectángulo_39357" data-name="Rectángulo 39357" width="196" height="66" rx="15" transform="translate(323.712 1041)" fill="#ffd99d"/>
    <rect id="Rectángulo_39366" data-name="Rectángulo 39366" width="225" height="193" rx="15" transform="translate(678.712 1143)" fill="#b1f7fd"/>
    <text id="CONCEPTUALIZACIÓN_Y_METODOLOGÍAS_EPUB" data-name="CONCEPTUALIZACIÓN Y METODOLOGÍAS EPUB" transform="translate(584.712 469)" fill="#12263f" font-size="20" font-family="Roboto-Black, Roboto" font-weight="800"><tspan x="0" y="0">CONCEPTUALIZACIÓN Y METODOLOGÍAS EPUB</tspan></text>
    <text id="_2-_ARQUITECTURA_DE_LA_INFORMACIÓN" data-name="2- ARQUITECTURA DELA INFORMACIÓN" transform="translate(331.712 1068)" fill="#12263f" font-size="18" font-family="Roboto-Black, Roboto" font-weight="800"><tspan x="0" y="0">2- ARQUITECTURA DE</tspan><tspan x="0" y="25">LA INFORMACIÓN</tspan></text>
    <text id="Diseño_ajustable_o_fijo" data-name="Diseño
ajustable
o fijo" transform="translate(791.712 856)" fill="#12263f" font-size="16" font-family="Roboto-Regular, Roboto"><tspan x="-24.527" y="0">Diseño</tspan><tspan x="-32.43" y="24">ajustable</tspan><tspan x="-17.445" y="48">o fijo</tspan></text>
    <text id="EBooks_EMaganize_Presentaciones_digitales_Catálogos_digitales_E_Cards" data-name="EBooks
EMaganize
Presentaciones digitales
Catálogos digitales
E Cards" transform="translate(791.712 997)" fill="#12263f" font-size="16" font-family="Roboto-Italic, Roboto" font-style="italic"><tspan x="-26.262" y="0">EBooks</tspan><tspan x="-38.457" y="24">EMaganize</tspan><tspan font-family="Roboto-Regular, Roboto" font-style="normal"><tspan x="-87.336" y="48">Presentaciones digitales</tspan><tspan x="-68.336" y="72">Catálogos digitales</tspan></tspan><tspan x="-26.879" y="96">E Cards</tspan></text>
    <text id="METODOLOGÍA_UX_Y_UI" data-name="METODOLOGÍA UX Y UI" transform="translate(791.712 1173)" fill="#12263f" font-size="16" font-family="Roboto-Bold, Roboto" font-weight="700"><tspan x="-84.309" y="0">METODOLOGÍA UX Y UI</tspan></text>
    <text id="Experiencia_de_usuario_UX_Diseño_UI_Investigación_Organización_y_planificación_Gestión_de_contenidos" data-name="Experiencia de usuario UX
Diseño UI
Investigación
Organización y planificación
Gestión de contenidos" transform="translate(791.712 1219)" fill="#12263f" font-size="16" font-family="Roboto-Regular, Roboto"><tspan x="-92.422" y="0">Experiencia de usuario UX</tspan><tspan x="-33.871" y="24">Diseño UI</tspan><tspan x="-47.328" y="48">Investigación</tspan><tspan x="-99.781" y="72">Organización y planificación</tspan><tspan x="-79.625" y="96">Gestión de contenidos</tspan></text>
    <g id="Grupo_143572" data-name="Grupo 143572" transform="translate(501.712 777.5)">
      <line id="Línea_927" data-name="Línea 927" x2="217.083" transform="translate(0 5.104)" fill="none" stroke="#ffa726" stroke-width="3"/>
      <path id="Polígono_33" data-name="Polígono 33" d="M5,0l5,9H0Z" transform="translate(221.603) rotate(90)" fill="#ffa726"/>
    </g>
    <g id="Grupo_143573" data-name="Grupo 143573" transform="translate(851.712 777.5)">
      <line id="Línea_927-2" data-name="Línea 927" x1="210.756" transform="translate(4.52 5.104)" fill="none" stroke="#ffa726" stroke-width="3"/>
      <path id="Polígono_33-2" data-name="Polígono 33" d="M5,0l5,9H0Z" transform="translate(0 10) rotate(-90)" fill="#ffa726"/>
    </g>
    <g id="Grupo_143574" data-name="Grupo 143574" transform="translate(599.253 1169.195)">
      <line id="Línea_927-3" data-name="Línea 927" x2="71.819" transform="translate(0 5.104)" fill="none" stroke="#ffa726" stroke-width="3"/>
      <path id="Polígono_33-3" data-name="Polígono 33" d="M5,0l5,9.022H0Z" transform="translate(76.349) rotate(90)" fill="#ffa726"/>
    </g>
    <g id="Grupo_143575" data-name="Grupo 143575" transform="translate(791.712 920.591) rotate(90)">
      <line id="Línea_927-4" data-name="Línea 927" x2="23.878" transform="translate(0 5.104)" fill="none" stroke="#ffa726" stroke-width="3"/>
      <path id="Polígono_33-4" data-name="Polígono 33" d="M5,0l5,9.022H0Z" transform="translate(28.409) rotate(90)" fill="#ffa726"/>
    </g>
    <g id="Grupo_143589" data-name="Grupo 143589" transform="translate(791.712 728.591) rotate(90)">
      <line id="Línea_927-5" data-name="Línea 927" x2="23.878" transform="translate(0 5.104)" fill="none" stroke="#ffa726" stroke-width="3"/>
      <path id="Polígono_33-5" data-name="Polígono 33" d="M5,0l5,9.022H0Z" transform="translate(28.409) rotate(90)" fill="#ffa726"/>
    </g>
    <g id="Grupo_143588" data-name="Grupo 143588" transform="translate(421.212 1002.591) rotate(90)">
      <line id="Línea_927-6" data-name="Línea 927" x2="23.878" transform="translate(0 5.104)" fill="none" stroke="#ffa726" stroke-width="3"/>
      <path id="Polígono_33-6" data-name="Polígono 33" d="M5,0l5,9.022H0Z" transform="translate(28.409) rotate(90)" fill="#ffa726"/>
    </g>
    <g id="Grupo_143580" data-name="Grupo 143580" transform="translate(426.712 1107) rotate(90)">
      <line id="Línea_927-7" data-name="Línea 927" x2="23.878" transform="translate(0 5.104)" fill="none" stroke="#ffa726" stroke-width="3"/>
      <path id="Polígono_33-7" data-name="Polígono 33" d="M5,0l5,9.022H0Z" transform="translate(28.409) rotate(90)" fill="#ffa726"/>
    </g>
    <g id="Grupo_143581" data-name="Grupo 143581" transform="translate(470.712 1270) rotate(90)">
      <line id="Línea_927-8" data-name="Línea 927" x2="23.878" transform="translate(0 5.104)" fill="none" stroke="#ffa726" stroke-width="3"/>
      <path id="Polígono_33-8" data-name="Polígono 33" d="M5,0l5,9.022H0Z" transform="translate(28.409) rotate(90)" fill="#ffa726"/>
    </g>
    <g id="Grupo_143576" data-name="Grupo 143576" transform="translate(894.917 879) rotate(180)">
      <line id="Línea_927-9" data-name="Línea 927" x2="23.878" transform="translate(0 5.104)" fill="none" stroke="#ffa726" stroke-width="3"/>
      <path id="Polígono_33-9" data-name="Polígono 33" d="M5,0l5,9.022H0Z" transform="translate(28.409) rotate(90)" fill="#ffa726"/>
    </g>
    <g id="Grupo_143578" data-name="Grupo 143578" transform="translate(570.712 1270) rotate(90)">
      <line id="Línea_927-10" data-name="Línea 927" x2="13.378" transform="translate(10.5 5.104)" fill="none" stroke="#ffa726" stroke-width="3"/>
      <path id="Polígono_33-10" data-name="Polígono 33" d="M5,0l5,9.022H0Z" transform="translate(28.409) rotate(90)" fill="#ffa726"/>
    </g>
    <g id="Grupo_143579" data-name="Grupo 143579" transform="translate(560.712 1455.409) rotate(-90)">
      <line id="Línea_927-11" data-name="Línea 927" x2="13.378" transform="translate(0 4.896)" fill="none" stroke="#ffa726" stroke-width="3"/>
      <path id="Polígono_33-11" data-name="Polígono 33" d="M5,0l5,9.022H0Z" transform="translate(17.909) rotate(90)" fill="#ffa726"/>
    </g>
    <g id="Grupo_143577" data-name="Grupo 143577" transform="translate(679.304 869)">
      <line id="Línea_927-12" data-name="Línea 927" x2="23.878" transform="translate(0 4.896)" fill="none" stroke="#ffa726" stroke-width="3"/>
      <path id="Polígono_33-12" data-name="Polígono 33" d="M5,0l5,9.022H0Z" transform="translate(28.409) rotate(90)" fill="#ffa726"/>
    </g>
    <line id="Línea_1005" data-name="Línea 1005" y2="227.305" transform="translate(600.723 1173.195)" fill="none" stroke="#ffa726" stroke-width="3"/>
    <path id="Trazado_160210" data-name="Trazado 160210" d="M13463-10659h249.629v-86.539" transform="translate(-12559.288 11700)" fill="none" stroke="#26ccda" stroke-width="3" stroke-dasharray="6"/>
    <path id="Trazado_160211" data-name="Trazado 160211" d="M13468.621-10460.5h244.008v-183.547" transform="translate(-12559.288 11700)" fill="none" stroke="#ffa726" stroke-width="3" stroke-dasharray="6"/>
    <path id="Trazado_160212" data-name="Trazado 160212" d="M13454.205-10825.5v-76.586h-214.537v76.586" transform="translate(-12559.288 11700)" fill="none" stroke="#ffa726" stroke-width="3"/>
    <rect id="Rectángulo_39359" data-name="Rectángulo 39359" width="93" height="49" rx="15" transform="translate(744.712 763)" fill="#fff4c6"/>
    <text id="EPUB" transform="translate(768.712 794)" fill="#12263f" font-size="18" font-family="Roboto-Black, Roboto" font-weight="800"><tspan x="0" y="0">EPUB</tspan></text>
    <path id="Polígono_45" data-name="Polígono 45" d="M5,0l5,9.022H0Z" transform="translate(900.311 1046) rotate(-90)" fill="#26ccda"/>
    <path id="Polígono_46" data-name="Polígono 46" d="M5,0l5,9.022H0Z" transform="translate(1148.341 1053.441)" fill="#ffa726"/>
    <rect id="Rectángulo_39373" data-name="Rectángulo 39373" width="136" height="44" rx="15" transform="translate(533.712 1387)" fill="#ffd99d"/>
    <rect id="Rectángulo_39372" data-name="Rectángulo 39372" width="120" height="61" rx="15" transform="translate(541.712 1302)" fill="#ffd99d"/>
    <text id="Evaluación_heurística" data-name="Evaluación
heurística" transform="translate(601.712 1326)" fill="#12263f" font-size="16" font-family="Roboto-Bold, Roboto" font-weight="700"><tspan x="-38.855" y="0">Evaluación</tspan><tspan x="-35.785" y="24">heurística</tspan></text>
    <text id="Flujogramas" transform="translate(601.712 1415)" fill="#12263f" font-size="16" font-family="Roboto-Bold, Roboto" font-weight="700"><tspan x="-44.566" y="0">Flujogramas</tspan></text>
    <path id="Trazado_160213" data-name="Trazado 160213" d="M13126.424-10244.591h-79.244v-175.342h79.244" transform="translate(-12559.288 11700)" fill="none" stroke="#ffa726" stroke-width="3"/>
    <rect id="Rectángulo_39371" data-name="Rectángulo 39371" width="189" height="131" rx="15" transform="translate(326.712 1302)" fill="#ffd99d"/>
    <text id="Realizar_un_inventario_Agrupar_las_tarjetas_Definir_el_mapa_Implementación" data-name="Realizar un inventario
Agrupar las tarjetas
Definir el mapa
Implementación" transform="translate(421.712 1337)" fill="#12263f" font-size="16" font-family="Roboto-Regular, Roboto"><tspan x="-76.266" y="0">Realizar un inventario</tspan><tspan x="-69.66" y="24">Agrupar las tarjetas</tspan><tspan x="-53.32" y="48">Definir el mapa</tspan><tspan x="-57.59" y="72">Implementación</tspan></text>
    <g id="Grupo_143585" data-name="Grupo 143585">
      <path id="Trazado_160214" data-name="Trazado 160214" d="M13030-10539.5h35.05v47.5" transform="translate(-12559.288 11700)" fill="none" stroke="#ffa726" stroke-width="3"/>
      <path id="Polígono_47" data-name="Polígono 47" d="M5,0l5,9.022H0Z" transform="translate(510.762 1213.409) rotate(180)" fill="#ffa726"/>
    </g>
    <g id="Grupo_143586" data-name="Grupo 143586" transform="translate(-855.243 1674.52) rotate(-90)">
      <path id="Trazado_160214-2" data-name="Trazado 160214" d="M13030-10539.5h65.166v21.8" transform="translate(-12581.48 11725.695)" fill="none" stroke="#ffa726" stroke-width="3"/>
      <path id="Polígono_47-2" data-name="Polígono 47" d="M5,0l5,9.022H0Z" transform="translate(518.687 1213.409) rotate(180)" fill="#ffa726"/>
    </g>
    <g id="Grupo_143587" data-name="Grupo 143587" transform="translate(903.044 2438.25) rotate(180)">
      <path id="Trazado_160214-3" data-name="Trazado 160214" d="M13030-10539.5h118.572v16.5" transform="translate(-12581.479 11722.621)" fill="none" stroke="#ffa726" stroke-width="3"/>
      <path id="Polígono_47-3" data-name="Polígono 47" d="M5,0l5,9.022H0Z" transform="translate(572.092 1206.272) rotate(180)" fill="#ffa726"/>
    </g>
    <rect id="Rectángulo_39368" data-name="Rectángulo 39368" width="118" height="44" rx="15" transform="translate(362.712 1138)" fill="#ffd99d"/>
    <text id="Contenido" transform="translate(421.712 1166)" fill="#12263f" font-size="16" font-family="Roboto-Regular, Roboto"><tspan x="-36.465" y="0">Contenido</tspan></text>
    <rect id="Rectángulo_39369" data-name="Rectángulo 39369" width="118" height="44" rx="15" transform="translate(281.712 1187)" fill="#ffd99d"/>
    <text id="Usuario" transform="translate(340.712 1215)" fill="#12263f" font-size="16" font-family="Roboto-Regular, Roboto"><tspan x="-27.285" y="0">Usuario</tspan></text>
    <rect id="Rectángulo_39370" data-name="Rectángulo 39370" width="118" height="44" rx="15" transform="translate(442.712 1226)" fill="#ffd99d"/>
    <text id="Contexto" transform="translate(501.712 1254)" fill="#12263f" font-size="16" font-family="Roboto-Regular, Roboto"><tspan x="-32.098" y="0">Contexto</tspan></text>
    <rect id="Rectángulo_39364" data-name="Rectángulo 39364" width="233" height="238" rx="15" transform="translate(674.712 500)" fill="#ffa726"/>
    <text id="EVOLUCIÓN_DEL_LIBRO" data-name="EVOLUCIÓN DEL LIBRO" transform="translate(696.712 535)" fill="#12263f" font-size="18" font-family="Roboto-Black, Roboto" font-weight="800"><tspan x="0" y="0">EVOLUCIÓN DEL LIBRO</tspan></text>
    <text id="Cuneiforme_Papiro_Papel_Pergamino_Grandes_códices_Guttember_y_la_imprenta_Tecnicas_de_impresión_Libros_digitales" data-name="Cuneiforme
Papiro / Papel
Pergamino
Grandes códices
Guttember y la imprenta
Tecnicas de impresión
Libros digitales" transform="translate(791.712 575)" fill="#12263f" font-size="16" font-family="Roboto-Regular, Roboto"><tspan x="-41.508" y="0">Cuneiforme</tspan><tspan x="-50.258" y="24">Papiro / Papel</tspan><tspan x="-38.762" y="48">Pergamino</tspan><tspan x="-59.375" y="72">Grandes códices</tspan><tspan x="-85.555" y="96">Guttember y la imprenta</tspan><tspan x="-80.359" y="120">Tecnicas de impresión</tspan><tspan x="-54.184" y="144">Libros digitales</tspan></text>
    <rect id="Rectángulo_39362" data-name="Rectángulo 39362" width="223" height="218" rx="15" transform="translate(1048.712 757)" fill="#e2f4f6"/>
    <text id="DIAGRAMACIÓN_DE_LA_ARQUITECTURA" data-name="DIAGRAMACIÓN DELA ARQUITECTURA" transform="translate(1080.712 809)" fill="#12263f" font-size="18" font-family="Roboto-Black, Roboto" font-weight="800"><tspan x="0" y="0">DIAGRAMACIÓN DE</tspan><tspan x="0" y="25">LA ARQUITECTURA</tspan></text>
    <text id="Diseño_guión_e_StoryBoard_Pruebas_de_usabilidad_Indicadores_Validación_de_prototipo" data-name="Diseño, guión e StoryBoard
Pruebas de usabilidad
Indicadores
Validación de prototipo" transform="translate(1160.712 878)" fill="#12263f" font-size="16" font-family="Roboto-Regular, Roboto"><tspan x="-94.75" y="0">Diseño, guión e </tspan><tspan y="0" font-family="Roboto-Italic, Roboto" font-style="italic">StoryBoard</tspan><tspan x="-78.652" y="24">Pruebas de usabilidad</tspan><tspan x="-41.727" y="48">Indicadores</tspan><tspan x="-82.207" y="72">Validación de prototipo</tspan></text>
    <rect id="Rectángulo_39358" data-name="Rectángulo 39358" width="196" height="235" rx="15" transform="translate(323.712 763)" fill="#ffd99d"/>
    <text id="_1-_PRE-PRODUCCIÓN" data-name="1- PRE-PRODUCCIÓN" transform="translate(333.712 794)" fill="#12263f" font-size="18" font-family="Roboto-Black, Roboto" font-weight="800"><tspan x="0" y="0">1- PRE-PRODUCCIÓN</tspan></text>
    <text id="Necesidad_Requerimientos_Célula_Sesiones_creativas_Software_Validación_Producción" data-name="Necesidad
Requerimientos
Célula
Sesiones creativas
Software
Validación
Producción" transform="translate(421.712 834)" fill="#12263f" font-size="16" font-family="Roboto-Regular, Roboto"><tspan x="-37.809" y="0">Necesidad</tspan><tspan x="-55.836" y="24">Requerimientos</tspan><tspan x="-22.09" y="48">Célula</tspan><tspan x="-66.703" y="72">Sesiones creativas</tspan><tspan font-family="Roboto-Italic, Roboto" font-style="italic"><tspan x="-31.363" y="96">Software</tspan></tspan><tspan x="-37.113" y="120">Validación</tspan><tspan x="-40.453" y="144">Producción</tspan></text>
  </g>
</svg>
