<svg xmlns="http://www.w3.org/2000/svg" xmlns:xlink="http://www.w3.org/1999/xlink" width="105" height="105" viewBox="0 0 105 105">
  <defs>
    <clipPath id="clip-path">
      <rect id="Rectángulo_38986" data-name="Rectángulo 38986" width="60.077" height="53.731" fill="#f57c00"/>
    </clipPath>
  </defs>
  <g id="Grupo_142083" data-name="Grupo 142083" transform="translate(-275 -868)">
    <g id="Elipse_4884" data-name="Elipse 4884" transform="translate(275 868)" fill="#fff" stroke="#f57c00" stroke-width="3">
      <circle cx="52.5" cy="52.5" r="52.5" stroke="none"/>
      <circle cx="52.5" cy="52.5" r="51" fill="none"/>
    </g>
    <g id="Grupo_143009" data-name="Grupo 143009" transform="translate(297.461 893.635)">
      <g id="Grupo_143009-2" data-name="Grupo 143009" clip-path="url(#clip-path)">
        <path id="Trazado_158128" data-name="Trazado 158128" d="M58.973,2.368A5.5,5.5,0,0,0,54.075,0Q42.081,0,30.087,0,18.034,0,5.982,0A5.484,5.484,0,0,0,.592,3.239,6.225,6.225,0,0,0,.026,5.778Q-.025,26.862.007,47.948A5.555,5.555,0,0,0,4.3,53.531a6.24,6.24,0,0,0,1.622.186q24.106.014,48.211.014A5.694,5.694,0,0,0,60,48.846a.593.593,0,0,1,.073-.159V5.039a14.262,14.262,0,0,0-1.1-2.67M57.246,47.775a2.857,2.857,0,0,1-3.1,3.111q-24.136.01-48.273,0a2.84,2.84,0,0,1-3.086-3.118q-.013-5.308.01-10.616a1.2,1.2,0,0,1,.3-.764q7.558-7.745,15.144-15.463c.108-.11.227-.209.375-.344l3.245,3.728q5.37,6.172,10.74,12.345c.89,1.023,1.516,1.094,2.626.31q5.267-3.72,10.533-7.442c.206-.146.415-.289.642-.447l2.577,1.858q3.924,2.828,7.852,5.65a.877.877,0,0,1,.427.811c-.017,3.461-.006,6.921-.011,10.382m.048-14.93c0,.166-.021.333-.037.573-.236-.157-.412-.268-.581-.39q-4.572-3.283-9.143-6.569a1.528,1.528,0,0,0-2.266,0Q40.034,30.174,34.8,33.9c-.173.123-.351.242-.576.4-.636-.728-1.264-1.443-1.888-2.16L20.05,18.02c-.97-1.114-1.691-1.14-2.729-.085Q10.347,25.023,3.377,32.115c-.15.153-.283.324-.424.486l-.169-.059v-.618c0-8.6.03-17.208-.021-25.812a3.049,3.049,0,0,1,3.3-3.29q23.993.036,47.987.014c1.682,0,2.76.713,3.131,2.1a4.076,4.076,0,0,1,.111,1.043q.008,13.434,0,26.868" transform="translate(0 0)" fill="#f57c00"/>
        <path id="Trazado_158129" data-name="Trazado 158129" d="M85.475,20.991a7.237,7.237,0,1,0,7.254,7.225,7.237,7.237,0,0,0-7.254-7.225M85.5,32.684a4.468,4.468,0,1,1-.024-8.936,4.468,4.468,0,0,1,.024,8.936" transform="translate(-46.896 -12.584)" fill="#f57c00"/>
      </g>
    </g>
  </g>
</svg>
