<svg xmlns="http://www.w3.org/2000/svg" xmlns:xlink="http://www.w3.org/1999/xlink" width="105" height="105" viewBox="0 0 105 105">
  <defs>
    <clipPath id="clip-path">
      <rect id="Rectángulo_38987" data-name="Rectángulo 38987" width="54.172" height="65.227" fill="#f57c00"/>
    </clipPath>
  </defs>
  <g id="Grupo_142084" data-name="Grupo 142084" transform="translate(-590 -868)">
    <g id="Elipse_4885" data-name="Elipse 4885" transform="translate(590 868)" fill="#fff" stroke="#f57c00" stroke-width="3">
      <circle cx="52.5" cy="52.5" r="52.5" stroke="none"/>
      <circle cx="52.5" cy="52.5" r="51" fill="none"/>
    </g>
    <g id="Grupo_143011" data-name="Grupo 143011" transform="translate(615.414 887.887)">
      <g id="Grupo_143010" data-name="Grupo 143010" clip-path="url(#clip-path)">
        <path id="Trazado_158130" data-name="Trazado 158130" d="M54.165,5.36A5.088,5.088,0,0,0,49.352.011a5.172,5.172,0,0,0-.55,0H14.987A5.073,5.073,0,0,0,9.58,5.43q-.01,5.059,0,10.126a3.961,3.961,0,0,0,.026.572.87.87,0,0,0,.861.786.861.861,0,0,0,.95-.678,3.061,3.061,0,0,0,.069-.753q.006-5,0-10a3.2,3.2,0,0,1,3.585-3.558h33.56a3.238,3.238,0,0,1,3.611,3.614V52.726a3.237,3.237,0,0,1-3.586,3.579H17.278a.252.252,0,0,1-.018-.033A12.54,12.54,0,0,0,18.523,50.7c-.013-.576.128-.729.716-.728q14.747.031,29.485.014c2.039,0,2.039,0,2.039-2.058V38.946c0-.743-.35-1.184-.931-1.2-.6-.016-.968.449-.98,1.224v.509c0,2.691,0,5.392.005,8.088,0,.343-.019.52-.459.519q-14.807-.023-29.613-.007c-.314,0-.47-.046-.548-.416A18.488,18.488,0,0,0,15.524,41.2a.837.837,0,0,1-.137-.712c.4-1.711.807-3.421,1.169-5.14a26.315,26.315,0,0,0,.736-4.062,4.521,4.521,0,0,0-1.937-4.366.889.889,0,0,1-.5-.873q.016-8.66-.008-17.321c0-.592.161-.714.726-.713q16.3.026,32.606,0c.528,0,.7.083.7.669q-.036,12.96-.015,25.918c0,.8.353,1.219.983,1.2.605-.013.928-.417.928-1.184V7.305c0-.861-.33-1.184-1.195-1.184H14.167c-.895,0-1.217.33-1.22,1.235v18.85a3.359,3.359,0,0,1,.022.372,2,2,0,0,1-.108.2.375.375,0,0,1-.079.049,3.1,3.1,0,0,0-1.176,1.061.187.187,0,0,1-.108-.059V20.289a3.213,3.213,0,0,0-.048-.7.936.936,0,0,0-1.846.089,5.068,5.068,0,0,0-.02.636q0,5.445.006,10.889a2.114,2.114,0,0,1-.251,1.03C7.85,35.064,6.369,37.9,4.876,40.721a10.543,10.543,0,0,0-1.125,3.351,14.751,14.751,0,0,0,.481,5.167,13.134,13.134,0,0,1-1.321,9.17C2,60.079,1.16,61.792.288,63.484c-.442.861-.4,1.108.3,1.743H23.643a10.151,10.151,0,0,0,1.73-2.317,2.014,2.014,0,0,1,1.234-.876,16.748,16.748,0,0,0,6.7-3.36,1.7,1.7,0,0,1,1.236-.465q7.132.025,14.265.009a5.093,5.093,0,0,0,5.36-4.81,5.242,5.242,0,0,0,0-.54q.009-23.753,0-47.507M22.756,63.2a6.259,6.259,0,0,1-2.629.107H2.628c-.08-.241.09-.382.17-.538.506-1,.989-2.015,1.55-2.985A15.46,15.46,0,0,0,6.007,48.31a9.621,9.621,0,0,1-.232-4.717,9.391,9.391,0,0,1,.737-1.884L12.972,29.4c.078-.15.155-.3.244-.445a.867.867,0,0,1,1.518-.095,3.659,3.659,0,0,1,.562,3.147c-.538,2.807-1.146,5.6-1.847,8.372a1.814,1.814,0,0,0,.3,1.6,15.657,15.657,0,0,1,2.884,8.155A11.17,11.17,0,0,1,13.8,58.078c-.123.147-.254.285-.374.43a.956.956,0,1,0,1.294,1.407,1,1,0,0,0,.123-.138c.368-.409.711-.843,1.044-1.28a.654.654,0,0,1,.581-.294q6.972.013,13.943.009a1.317,1.317,0,0,1,.215.063,19.241,19.241,0,0,1-5.245,2.094,1.7,1.7,0,0,0-1.114.753c-.472.735-.832,1.726-1.513,2.078" transform="translate(0 0)" fill="#f57c00"/>
        <path id="Trazado_158131" data-name="Trazado 158131" d="M65.586,42.819q.019-7.32,0-14.64a2.166,2.166,0,0,0-2.131-2.17,8.834,8.834,0,0,0-1.076,0,3.463,3.463,0,0,1-1.929-.455c-2.679-1.378-5.389-1.722-8.074,0a.352.352,0,0,1-.449-.032,7.284,7.284,0,0,0-7.507-.2,6.64,6.64,0,0,1-3.213.7A2.21,2.21,0,0,0,38.732,28.5V42.564a2.248,2.248,0,0,0,1.992,2.477,2.28,2.28,0,0,0,.5,0H63.309a2.169,2.169,0,0,0,2.275-2.058c0-.054,0-.108,0-.162M44.751,27.235a6.369,6.369,0,0,1,5.2-.584c1.184.443,1.245.527,1.245,1.763V39.222a7.884,7.884,0,0,0-6.815.191c-.137-.158-.085-.311-.085-.45q0-5.477-.012-10.953a.726.726,0,0,1,.461-.774ZM51.21,42.871c-.063.41-.342.241-.526.241-2.759.012-5.518.008-8.277.008-.361,0-.723-.026-1.082.006-.522.047-.706-.143-.7-.682.025-2.314.011-4.629.011-6.94,0-2.292.016-4.585-.012-6.877-.007-.564.18-.738.732-.723,1.026.029,1.028,0,1.028,1.042V40.6c0,.491-.054.992.469,1.292.538.308.969.01,1.411-.244a6.966,6.966,0,0,1,4.907-1.086,5.083,5.083,0,0,1,.85.25c1.157.447,1.37.854,1.186,2.062Zm2.485.262c-.473,0-.606-.107-.593-.589.033-1.213.052-1.283,1.2-1.74a5.948,5.948,0,0,1,4.745.323c.464.2.9.47,1.346.712a.969.969,0,0,0,1.55-.853c.022-1.633.015-3.267,0-4.9a.981.981,0,0,0-.856-1.093,1,1,0,0,0-.113-.008c-.557.013-.929.446-.937,1.139-.012,1.076,0,2.158,0,3.337a7.988,7.988,0,0,0-6.924-.227v-.638c0-3.564.012-7.13-.014-10.694a.9.9,0,0,1,.532-.894,5.488,5.488,0,0,1,4.724-.291c1.685.57,1.681.581,1.681,2.324v2.673c0,.919.323,1.353.969,1.345s.94-.425.942-1.374c0-1.1.015-2.207-.008-3.31-.008-.368.108-.467.469-.462,1.507.026,1.258-.119,1.261,1.245.009,4.392-.007,8.784.015,13.176,0,.591-.132.811-.769.8-3.078-.033-6.152-.027-9.229,0Z" transform="translate(-20.299 -12.781)" fill="#f57c00"/>
        <path id="Trazado_158132" data-name="Trazado 158132" d="M45.124,77.451c.169.01.34.013.509.007H64.214c.254,0,.51.013.763-.007a.935.935,0,0,0,.919-.945.95.95,0,0,0-.861-.949,2.67,2.67,0,0,0-.445-.01H45.5a1.859,1.859,0,0,0-.506.027.909.909,0,0,0-.743,1.03.879.879,0,0,0,.872.847" transform="translate(-23.197 -39.608)" fill="#f57c00"/>
        <path id="Trazado_158133" data-name="Trazado 158133" d="M44.4,87.4a1.171,1.171,0,0,0,1.076.418q4.773-.006,9.543,0h9.607c.792,0,1.248-.347,1.264-.943s-.439-.958-1.224-.969H45.639a3.883,3.883,0,0,0-.635.024A.933.933,0,0,0,44.4,87.4" transform="translate(-23.186 -45.042)" fill="#f57c00"/>
        <path id="Trazado_158134" data-name="Trazado 158134" d="M61.331,108.312a2.691,2.691,0,1,0,2.731-2.669,2.691,2.691,0,0,0-2.731,2.669m3.47-.007a.789.789,0,0,1-.765.812h-.029a.765.765,0,0,1-.754-.775v-.006a.731.731,0,0,1,.691-.769c.021,0,.042,0,.063,0a.741.741,0,0,1,.792.687c0,.017,0,.034,0,.05" transform="translate(-32.158 -55.392)" fill="#f57c00"/>
        <path id="Trazado_158135" data-name="Trazado 158135" d="M69.38,8.327a.95.95,0,0,0,.028-1.9h-.057c-.614-.015-1.228,0-1.843,0-.657,0-1.313-.013-1.97,0a.909.909,0,0,0-.956.861c0,.011,0,.022,0,.033a.924.924,0,0,0,.843,1c.027,0,.054,0,.081,0,1.29.028,2.583.026,3.875,0" transform="translate(-33.86 -3.367)" fill="#f57c00"/>
        <path id="Trazado_158136" data-name="Trazado 158136" d="M59.635,7.4a.956.956,0,1,0-1.91-.085c0,.019,0,.038,0,.057a.956.956,0,1,0,1.913.028Z" transform="translate(-30.266 -3.355)" fill="#f57c00"/>
      </g>
    </g>
  </g>
</svg>
