<svg xmlns="http://www.w3.org/2000/svg" xmlns:xlink="http://www.w3.org/1999/xlink" width="1245" height="617.771" viewBox="0 0 1245 617.771">
  <defs>
    <linearGradient id="linear-gradient" x1="0.029" y1="0.976" x2="0.94" y2="0.115" gradientUnits="objectBoundingBox">
      <stop offset="0" stop-color="#f57c00"/>
      <stop offset="1" stop-color="#ffa726"/>
    </linearGradient>
    <linearGradient id="linear-gradient-2" x1="0.549" y1="1.333" x2="0.096" y2="-0.299" xlink:href="#linear-gradient"/>
    <linearGradient id="linear-gradient-5" x1="0.5" y1="0.122" x2="0.5" y2="1" gradientUnits="objectBoundingBox">
      <stop offset="0" stop-color="#fdd835" stop-opacity="0"/>
      <stop offset="0.567" stop-color="#fec52f" stop-opacity="0.392"/>
      <stop offset="1" stop-color="#ffa726"/>
    </linearGradient>
    <clipPath id="clip-path">
      <ellipse id="Elipse_4985" data-name="Elipse 4985" cx="178.5" cy="213" rx="178.5" ry="213" transform="translate(621.5 4770)" fill="#fff" stroke="#707070" stroke-width="1"/>
    </clipPath>
    <filter id="Elipse_4988" x="811" y="118" width="33" height="33" filterUnits="userSpaceOnUse">
      <feOffset dy="3" input="SourceAlpha"/>
      <feGaussianBlur stdDeviation="3" result="blur"/>
      <feFlood flood-opacity="0.161"/>
      <feComposite operator="in" in2="blur"/>
      <feComposite in="SourceGraphic"/>
    </filter>
    <filter id="Elipse_4989" x="382" y="57" width="33" height="33" filterUnits="userSpaceOnUse">
      <feOffset dy="3" input="SourceAlpha"/>
      <feGaussianBlur stdDeviation="3" result="blur-2"/>
      <feFlood flood-opacity="0.161"/>
      <feComposite operator="in" in2="blur-2"/>
      <feComposite in="SourceGraphic"/>
    </filter>
    <filter id="Elipse_4987" x="858" y="357" width="33" height="33" filterUnits="userSpaceOnUse">
      <feOffset dy="3" input="SourceAlpha"/>
      <feGaussianBlur stdDeviation="3" result="blur-3"/>
      <feFlood flood-opacity="0.161"/>
      <feComposite operator="in" in2="blur-3"/>
      <feComposite in="SourceGraphic"/>
    </filter>
    <filter id="Elipse_4990" x="346" y="290" width="33" height="33" filterUnits="userSpaceOnUse">
      <feOffset dy="3" input="SourceAlpha"/>
      <feGaussianBlur stdDeviation="3" result="blur-4"/>
      <feFlood flood-opacity="0.161"/>
      <feComposite operator="in" in2="blur-4"/>
      <feComposite in="SourceGraphic"/>
    </filter>
    <filter id="Elipse_4991" x="394" y="347" width="46" height="46" filterUnits="userSpaceOnUse">
      <feOffset input="SourceAlpha"/>
      <feGaussianBlur stdDeviation="3" result="blur-5"/>
      <feFlood flood-color="#f57c00"/>
      <feComposite operator="in" in2="blur-5"/>
      <feComposite in="SourceGraphic"/>
    </filter>
    <filter id="Elipse_4992" x="508" y="154" width="46" height="46" filterUnits="userSpaceOnUse">
      <feOffset input="SourceAlpha"/>
      <feGaussianBlur stdDeviation="3" result="blur-6"/>
      <feFlood flood-color="#f57c00"/>
      <feComposite operator="in" in2="blur-6"/>
      <feComposite in="SourceGraphic"/>
    </filter>
    <filter id="Elipse_4993" x="686" y="154" width="46" height="46" filterUnits="userSpaceOnUse">
      <feOffset input="SourceAlpha"/>
      <feGaussianBlur stdDeviation="3" result="blur-7"/>
      <feFlood flood-color="#f57c00"/>
      <feComposite operator="in" in2="blur-7"/>
      <feComposite in="SourceGraphic"/>
    </filter>
    <filter id="Elipse_4994" x="796" y="347" width="46" height="46" filterUnits="userSpaceOnUse">
      <feOffset input="SourceAlpha"/>
      <feGaussianBlur stdDeviation="3" result="blur-8"/>
      <feFlood flood-color="#f57c00"/>
      <feComposite operator="in" in2="blur-8"/>
      <feComposite in="SourceGraphic"/>
    </filter>
  </defs>
  <g id="Grupo_143427" data-name="Grupo 143427" transform="translate(-177.5 -4569)">
    <path id="Sustracción_7" data-name="Sustracción 7" d="M5033.051,11917.544h0c-.364-4.968-.548-10.029-.548-15.043a204.146,204.146,0,0,1,4.112-40.811,201.484,201.484,0,0,1,30.471-72.409,203.119,203.119,0,0,1,89.092-73.368,201.421,201.421,0,0,1,38.014-11.8,204.463,204.463,0,0,1,81.621,0,201.292,201.292,0,0,1,72.41,30.47,203.113,203.113,0,0,1,73.368,89.1,201.584,201.584,0,0,1,11.8,38.01,204.114,204.114,0,0,1,4.116,40.811c0,4.987-.186,10.049-.553,15.041a202.5,202.5,0,0,0-403.9,0Z" transform="translate(-4438.001 -6985.779)" fill="#ffa726"/>
    <path id="Trazado_157177" data-name="Trazado 157177" d="M-4016.5-6841.158l123.466-48.3" transform="translate(4897.75 11591.158)" fill="none" stroke="#f57c00" stroke-linecap="round" stroke-width="6"/>
    <path id="Trazado_157178" data-name="Trazado 157178" d="M-3854.145-6726.207l-128-108.491" transform="translate(4559.145 11474.051)" fill="none" stroke="#f57c00" stroke-linecap="round" stroke-width="6"/>
    <path id="Trazado_157179" data-name="Trazado 157179" d="M-3950.465-6772.709l-49.406-65.953" transform="translate(4541 11711.045)" fill="none" stroke="#f57c00" stroke-linecap="round" stroke-width="6"/>
    <path id="Trazado_157180" data-name="Trazado 157180" d="M-3952.5-6839.562l-64,.517" transform="translate(5033.5 11778.045)" fill="none" stroke="#f57c00" stroke-linecap="round" stroke-width="6"/>
    <rect id="Rectángulo_38222" data-name="Rectángulo 38222" width="415" height="236" rx="24" transform="translate(1002.5 4569)" fill="url(#linear-gradient)"/>
    <rect id="Rectángulo_38229" data-name="Rectángulo 38229" width="363" height="152" rx="11" transform="translate(177.5 4795)" fill="url(#linear-gradient-2)"/>
    <rect id="Rectángulo_38227" data-name="Rectángulo 38227" width="373" height="165" rx="24" transform="translate(1049.5 4857)" fill="url(#linear-gradient)"/>
    <text id="La_fluidez_de_texto:_gracias_a_esto_se_puede_leer_el_documento_en_cualquier_tamaño_y_el_texto_de_ajusta_dependiendo_el_dispositivo_es_su_principal_ventaja_porque_permite_adaptar_su_tamaño_sin_perder_el_sentido_de_lectura." data-name="La fluidez de texto: gracias a esto se puede leer el documento en cualquier tamaño y el texto de ajusta dependiendo el dispositivo; es su principal ventaja porque permite adaptar su tamaño sin perder el sentido de lectura." transform="translate(195.5 4814)" fill="#fff" font-size="16" font-family="Roboto-Bold, Roboto" font-weight="700"><tspan x="0" y="17">La fluidez de texto: </tspan><tspan y="17" font-family="Roboto-Regular, Roboto" font-weight="400">gracias a esto se puede </tspan><tspan x="0" y="41" font-family="Roboto-Regular, Roboto" font-weight="400">leer el documento en cualquier tamaño y el </tspan><tspan x="0" y="65" font-family="Roboto-Regular, Roboto" font-weight="400">texto de ajusta dependiendo el dispositivo; es </tspan><tspan x="0" y="89" font-family="Roboto-Regular, Roboto" font-weight="400">su principal ventaja porque permite adaptar </tspan><tspan x="0" y="113" font-family="Roboto-Regular, Roboto" font-weight="400">su tamaño sin perder el sentido de lectura.</tspan></text>
    <g id="Grupo_142073" data-name="Grupo 142073" transform="translate(34 -77)">
      <rect id="Rectángulo_38228" data-name="Rectángulo 38228" width="363" height="140" rx="11" transform="translate(180.5 4646)" fill="url(#linear-gradient-2)"/>
      <text id="Formato_de_texto:_se_ajusta_a_la_necesidad_del_lector_como_el_tamaño_el_tipo_de_letra_el_color_o_el_fondo_todo_dependiendo_de_los_dispositivos_de_lectura." data-name="Formato de texto: se ajusta a la necesidad del lector, como el tamaño, el tipo de letra, el color o el fondo, todo dependiendo de los dispositivos de lectura." transform="translate(198.5 4671)" fill="#fff" font-size="16" font-family="Roboto-Bold, Roboto" font-weight="700"><tspan x="0" y="17">Formato de texto: </tspan><tspan y="17" font-family="Roboto-Regular, Roboto" font-weight="400">se ajusta a la necesidad del </tspan><tspan x="0" y="41" font-family="Roboto-Regular, Roboto" font-weight="400">lector, como el tamaño, el tipo de letra, el </tspan><tspan x="0" y="65" font-family="Roboto-Regular, Roboto" font-weight="400">color o el fondo, todo dependiendo de los </tspan><tspan x="0" y="89" font-family="Roboto-Regular, Roboto" font-weight="400">dispositivos de lectura.</tspan></text>
    </g>
    <text id="Contenido_Fijo:_como_se_nombró_anteriormente_este_contenido_permite_que_la_distribución_de_los_elementos_no_interfiera_en_la_lectura_y_se_pueda_tener_una_lectura_fluida_sin_interrupción_de_las_imágenes._Se_recomienda_para_dispositivos_de_tamaños_más_gra" data-name="Contenido Fijo: como se  nombró anteriormente, este contenido permite que la distribución de los elementos no interfiera en la lectura y se pueda tener una lectura fluida sin interrupción de las imágenes.

Se recomienda para dispositivos de tamaños más gra" transform="translate(1028.5 4594)" fill="#fff" font-size="16" font-family="Roboto-Bold, Roboto" font-weight="700"><tspan x="0" y="17">Contenido Fijo: </tspan><tspan y="17" xml:space="preserve" font-family="Roboto-Regular, Roboto" font-weight="400">como se  nombró anteriormente, </tspan><tspan x="0" y="41" font-family="Roboto-Regular, Roboto" font-weight="400">este contenido permite que la distribución de los </tspan><tspan x="0" y="65" font-family="Roboto-Regular, Roboto" font-weight="400">elementos no interfiera en la lectura y se pueda </tspan><tspan x="0" y="89" font-family="Roboto-Regular, Roboto" font-weight="400">tener una lectura fluida sin interrupción de las </tspan><tspan x="0" y="113" font-family="Roboto-Regular, Roboto" font-weight="400">imágenes.</tspan><tspan font-family="Roboto-Regular, Roboto" font-weight="400"><tspan x="0" y="137"></tspan><tspan x="0" y="161">Se recomienda para dispositivos de tamaños más </tspan><tspan x="0" y="185">grandes como tabletas o computadoras.</tspan></tspan></text>
    <text id="HTML_y_CSS:_los_libros_de_este_formato_están_basados_en_lenguajes_HTML_y_CSS_lo_cual_permite_gracias_a_los_avances_que_han_tenido_las_páginas_y_aplicaciones_que_se_puedan_tener_productos_muy_bien_elaborados." data-name="HTML y CSS: los libros de este formato están basados en lenguajes HTML y CSS, lo cual permite gracias a los avances que han tenido las páginas y aplicaciones que se puedan tener productos muy bien elaborados." transform="translate(1072.5 4882)" fill="#fff" font-size="16" font-family="Roboto-Bold, Roboto" font-weight="700"><tspan x="0" y="17">HTML y CSS: </tspan><tspan y="17" font-family="Roboto-Regular, Roboto" font-weight="400">los libros de este formato están </tspan><tspan x="0" y="41" font-family="Roboto-Regular, Roboto" font-weight="400">basados en lenguajes HTML y CSS, lo cual </tspan><tspan x="0" y="65" font-family="Roboto-Regular, Roboto" font-weight="400">permite gracias a los avances que han tenido </tspan><tspan x="0" y="89" font-family="Roboto-Regular, Roboto" font-weight="400">las páginas y aplicaciones que se puedan </tspan><tspan x="0" y="113" font-family="Roboto-Regular, Roboto" font-weight="400">tener productos muy bien elaborados.</tspan></text>
    <g id="Grupo_142072" data-name="Grupo 142072" transform="translate(-3 -20)">
      <ellipse id="Elipse_4986" data-name="Elipse 4986" cx="202.5" cy="200" rx="202.5" ry="200" transform="translate(597.5 4796)" fill="url(#linear-gradient-5)"/>
      <g id="Enmascarar_grupo_197" data-name="Enmascarar grupo 197" clip-path="url(#clip-path)">
        <g id="Grupo_142071" data-name="Grupo 142071" transform="translate(634.088 4753.925)">
          <g id="Grupo_142059" data-name="Grupo 142059">
            <g id="Grupo_142050" data-name="Grupo 142050">
              <path id="Trazado_157132" data-name="Trazado 157132" d="M189.8,39.88s-33.912-7.406-50.648-1.748S108.8,62.079,111.4,94.808,115.45,159.94,99.952,184.8c-15.708,25.194,1.671,37.3,17.316,49.436s64.659-39.9,64.659-39.9Z" fill="#6b1536"/>
              <path id="Trazado_157133" data-name="Trazado 157133" d="M179.656,39.911s-23.883-7.143-40.693-1.712-30.694,23.569-28.537,56.33,3.173,65.18-12.658,89.826c-16.046,24.98,1.168,37.32,16.648,49.665" fill="none" stroke="#6b1536" stroke-miterlimit="10" stroke-width="2.263"/>
            </g>
            <g id="Grupo_142052" data-name="Grupo 142052">
              <g id="Grupo_142051" data-name="Grupo 142051">
                <path id="Trazado_157134" data-name="Trazado 157134" d="M161.1,160.4s6.035,27.91-6.789,33.944-40.732,6.789-46.767,26.4S169.4,254.688,187.5,250.916s63.362-15.086,55.065-30.926-46.013-13.578-45.259-34.7-1.509-49.784-1.509-49.784Z" fill="#ffb99a"/>
                <path id="Trazado_157135" data-name="Trazado 157135" d="M160.505,187.2c14.718-5.711,26.555-16.893,36.579-29.092-.491-12.568-1.283-22.6-1.283-22.6L161.1,160.4S164.648,176.829,160.505,187.2Z" fill="#e09577"/>
              </g>
              <path id="Trazado_157136" data-name="Trazado 157136" d="M164.327,54.306s-34.523.438-41.934,41.52,10.676,72.414,33.468,72.875,47.1-17.22,49.874-50.686S197.8,55.029,164.327,54.306Z" fill="#ffb99a"/>
            </g>
            <g id="Grupo_142057" data-name="Grupo 142057">
              <g id="Grupo_142054" data-name="Grupo 142054">
                <g id="Grupo_142053" data-name="Grupo 142053">
                  <path id="Trazado_157137" data-name="Trazado 157137" d="M150.674,105.856a6.082,6.082,0,0,0-3.323-1.775,6.884,6.884,0,0,0-4.591,1.016,7.132,7.132,0,0,1,.321,2.2l-.007-.71a5.257,5.257,0,0,1,3.752-1.173,5.058,5.058,0,0,1,3.306,2.758l.67.6A7.172,7.172,0,0,1,150.674,105.856Z" fill="#1b262c"/>
                </g>
                <ellipse id="Elipse_4972" data-name="Elipse 4972" cx="17.349" cy="22.461" rx="17.349" ry="22.461" transform="translate(108.516 81.855) rotate(-0.601)" fill="#fff" opacity="0.4"/>
                <ellipse id="Elipse_4973" data-name="Elipse 4973" cx="17.349" cy="22.461" rx="17.349" ry="22.461" transform="translate(149.787 82.559) rotate(-0.6)" fill="#fff" opacity="0.4"/>
                <ellipse id="Elipse_4974" data-name="Elipse 4974" cx="17.349" cy="22.461" rx="17.349" ry="22.461" transform="translate(108.516 81.855) rotate(-0.601)" fill="none" stroke="#1b262c" stroke-miterlimit="10" stroke-width="0.566"/>
                <ellipse id="Elipse_4975" data-name="Elipse 4975" cx="17.349" cy="22.461" rx="17.349" ry="22.461" transform="translate(149.703 82.652) rotate(-0.6)" fill="none" stroke="#1b262c" stroke-miterlimit="10" stroke-width="0.566"/>
              </g>
              <g id="Grupo_142055" data-name="Grupo 142055">
                <path id="Trazado_157138" data-name="Trazado 157138" d="M143.421,126.974l-5.461-3.908,6.1-15.747" fill="none" stroke="#af593c" stroke-miterlimit="10" stroke-width="2.263"/>
                <path id="Trazado_157139" data-name="Trazado 157139" d="M138.323,122.607l9.429,3.721-4.6.694Z" fill="#af593c" opacity="0.5"/>
                <path id="Trazado_157140" data-name="Trazado 157140" d="M136.836,140.1s17.77,9.02,30.519-1.367" fill="none" stroke="#af593c" stroke-miterlimit="10" stroke-width="2.263"/>
                <path id="Trazado_157141" data-name="Trazado 157141" d="M144.658,146.173s10.067,5.59,19.182-1.614" fill="none" stroke="#af593c" stroke-miterlimit="10" stroke-width="2.263" opacity="0.5"/>
              </g>
              <g id="Grupo_142056" data-name="Grupo 142056">
                <path id="Trazado_157142" data-name="Trazado 157142" d="M123.751,105.889c0,5.213,3.027,9.438,6.76,9.438s6.76-4.225,6.76-9.438" fill="none" stroke="#1b262c" stroke-miterlimit="10" stroke-width="2.263"/>
                <path id="Trazado_157143" data-name="Trazado 157143" d="M162.271,108.695c0,5.213,3.027,9.438,6.76,9.438s6.76-4.225,6.76-9.438" fill="none" stroke="#1b262c" stroke-miterlimit="10" stroke-width="2.263"/>
              </g>
            </g>
            <g id="Grupo_142058" data-name="Grupo 142058">
              <path id="Trazado_157144" data-name="Trazado 157144" d="M157.579,55.364s26.717-1.952,30.092,22.814-23.56,97.7,4.052,115.721,33.584,11.757,59.143,26.091c0,0,11.719-20.205,1.81-30.71s-18.62-19.552-15.42-40.837,14.664-85.6-13.291-102.849S160.2,29.574,157.579,55.364Z" fill="#851d41"/>
              <path id="Trazado_157145" data-name="Trazado 157145" d="M252.676,189.28c-7.587-8.043-14.464-15.238-15.838-27.72-5.225,6.931-11.9,12.57-20.492,15.311-12.716,4.057-24.883,2.332-36.048-2.883,1.611,8.706,5.071,15.765,11.425,19.911,27.612,18.017,33.584,11.757,59.143,26.091C250.866,219.99,262.585,199.785,252.676,189.28Z" fill="#6b1536"/>
              <path id="Trazado_157146" data-name="Trazado 157146" d="M157.579,55.364s25.844-2.895,28.442,21.729-25.166,96.426.588,115.019,35.969,9.05,59.866,23.939" fill="none" stroke="#851d41" stroke-miterlimit="10" stroke-width="3.498"/>
            </g>
          </g>
          <g id="Grupo_142060" data-name="Grupo 142060">
            <path id="Trazado_157147" data-name="Trazado 157147" d="M68.512,312.393s20.432,62.864,45.943,62.864,10.629-93.539,10.629-93.539Z" fill="#ff6464"/>
            <path id="Trazado_157148" data-name="Trazado 157148" d="M68.512,312.393s20.432,62.864,45.943,62.864,10.629-93.539,10.629-93.539Z" fill="#ba3a3a" opacity="0.8"/>
            <path id="Trazado_157149" data-name="Trazado 157149" d="M129.381,336.388c.31-25.7-4.3-54.67-4.3-54.67L68.512,312.392s2.5,7.682,6.834,17.672Q102.3,333.76,129.381,336.388Z" fill="#ba3a3a"/>
          </g>
          <g id="Grupo_142063" data-name="Grupo 142063">
            <g id="Grupo_142061" data-name="Grupo 142061">
              <path id="Trazado_157150" data-name="Trazado 157150" d="M115.09,349.731s-43.75,41.11-39.224,103.34,33.19,116.918,33.19,116.918l132,4.526s74.677-119.558,0-213.469S115.09,349.731,115.09,349.731Z" fill="#1b262c"/>
              <path id="Trazado_157151" data-name="Trazado 157151" d="M109.617,361.469c7.347,5.038,16.287,7.524,24.977,9.066,18.455,3.274,37.739,3.152,56.439,3.168a198.384,198.384,0,0,0,53.82-7.655c-1.219-1.675-2.474-3.344-3.793-5-74.677-93.912-125.97-11.315-125.97-11.315a100.581,100.581,0,0,0-8.472,9.483C107.586,360,108.58,360.758,109.617,361.469Z" fill="#151f23"/>
              <path id="Trazado_157152" data-name="Trazado 157152" d="M146.833,524.862c-.618-13.186-1.146-26.394-2.57-39.525-.814-7.5-1.668-4.844-1.48-12.329-24.93-3.669-50.406-21.7-66.7-40.505a123.742,123.742,0,0,0-.219,20.568c4.526,62.231,33.19,116.918,33.19,116.918l44.168,2.073A279.307,279.307,0,0,1,146.833,524.862Z" fill="#151f23"/>
            </g>
            <g id="Grupo_142062" data-name="Grupo 142062">
              <path id="Trazado_157153" data-name="Trazado 157153" d="M82.679,439.76s15.239,22.627,60.032,33.248c0,0,5.08,51.72,6.465,66.035" fill="none" stroke="#2e4149" stroke-miterlimit="10" stroke-width="2.126"/>
              <path id="Trazado_157154" data-name="Trazado 157154" d="M216.6,368.645s35.1,60.494,9.236,167.628" fill="none" stroke="#2e4149" stroke-miterlimit="10" stroke-width="1.063" stroke-dasharray="12.755"/>
              <path id="Trazado_157155" data-name="Trazado 157155" d="M144.36,366.388s-14,51.722-12,96.667" fill="none" stroke="#2e4149" stroke-miterlimit="10" stroke-width="2.126"/>
              <path id="Trazado_157156" data-name="Trazado 157156" d="M133.307,361.274s-19.254,50-21.9,94.916l15.615,6.2" fill="none" stroke="#2e4149" stroke-miterlimit="10" stroke-width="2.126"/>
            </g>
          </g>
          <g id="Grupo_142070" data-name="Grupo 142070">
            <g id="Grupo_142064" data-name="Grupo 142064">
              <path id="Trazado_157157" data-name="Trazado 157157" d="M121.879,203.4s36.961,25.646,89.763,0c0,0,36.961,3.771,42.241,23.383s-9.051,89.763-27.909,119.181c0,0-49.03,23.384-110.884,3.772V320.313S92.342,300.992,90.952,269.02C90.2,251.671,98.5,214.709,121.879,203.4Z" fill="#ff6464"/>
              <path id="Trazado_157158" data-name="Trazado 157158" d="M201.623,286.193c-18.83,7.989-39.056,11.566-59.446,8.924C123.6,292.71,106.55,285.4,91.441,274.758c3.609,28.531,23.649,45.555,23.649,45.555v29.418c61.854,19.612,110.884-3.772,110.884-3.772,15.269-23.819,27.569-74.34,28.9-103.119C241.308,261.664,223.118,277.072,201.623,286.193Z" fill="#e04c4c"/>
              <path id="Trazado_157159" data-name="Trazado 157159" d="M239.489,288.239c-16.873,16.278-33.579,33.307-53.392,46.072a136.2,136.2,0,0,1-52.249,20.2c52.721,10.237,92.126-8.549,92.126-8.549,10.136-15.812,18.959-43.387,24.137-68.561C246.74,281.222,243.06,284.793,239.489,288.239Z" fill="#ba3a3a" opacity="0.5"/>
            </g>
            <g id="Grupo_142067" data-name="Grupo 142067">
              <g id="Grupo_142065" data-name="Grupo 142065">
                <path id="Trazado_157160" data-name="Trazado 157160" d="M31.238,198.685s5-1.39,7.777.938S52.428,231.45,50.191,239.1,31.238,198.685,31.238,198.685Z" fill="#c4cace"/>
                <path id="Trazado_157161" data-name="Trazado 157161" d="M36.033,195.589s5.795,2.058,6.993,5.17,12.882,39.269,12.882,39.269l-6.477-.812S43.639,206.063,36.033,195.589Z" fill="#d9dbdd"/>
                <path id="Trazado_157162" data-name="Trazado 157162" d="M40.037,194.851s11.214,23.561,9.447,43.808l7.746-2.624S48.679,204.3,40.037,194.851Z" fill="#e8ebed"/>
                <path id="Trazado_157163" data-name="Trazado 157163" d="M49.484,238.659s15.5-13.115,75.705-8.055l33.343,81.517-23.6-.03Z" fill="#fff"/>
                <path id="Trazado_157164" data-name="Trazado 157164" d="M49.484,238.659s15.659-10.155,74.3-5.193L157.7,314.445l-22.981-.127Z" fill="#e8ebed"/>
                <path id="Trazado_157165" data-name="Trazado 157165" d="M49.484,238.659s15-7.248,72.121-2.406l33.117,77.983-22.382-.147Z" fill="#d9dbdd"/>
                <path id="Trazado_157166" data-name="Trazado 157166" d="M49.484,238.659s14.43-4.332,70.412.426L152.487,314.1l-21.931-.182Z" fill="#c4cace"/>
                <path id="Trazado_157167" data-name="Trazado 157167" d="M49.484,238.659l69.241.688,35.222,77.577-75.766.931Z" fill="#1b262c"/>
                <path id="Trazado_157168" data-name="Trazado 157168" d="M30.782,195.644l18.7,43.015,28.7,79.195-4.575-3.064L28.412,196.914Z" fill="#151f23"/>
              </g>
              <g id="Grupo_142066" data-name="Grupo 142066">
                <path id="Trazado_157169" data-name="Trazado 157169" d="M62.835,287.376l1.478,3.118s19.636-2.756,21.045-2.285c9.207,3.08-16.409,7.028-16.409,7.028s20.924-1.6,22.076-.011c2.292,3.166-20.21,6.729-20.21,6.729s20.9-1.493,20.08.646c-.878,2.289-15.6,4.579-15.6,4.579s-4.062,6.618-6.81,5.12c0,0-6.59,1.1-4.546-5.809,0,0-5.177-3.529-4.1-8.745C59.84,297.746,57.91,290.613,62.835,287.376Z" fill="#ffb99a"/>
                <path id="Trazado_157170" data-name="Trazado 157170" d="M74.452,307.3s14.442-1.051,14.992.283c1.526,3.7-20.932,4.809-20.932,4.809Z" fill="#ffb99a"/>
              </g>
            </g>
            <g id="Grupo_142069" data-name="Grupo 142069">
              <g id="Grupo_142068" data-name="Grupo 142068">
                <path id="Trazado_157171" data-name="Trazado 157171" d="M114.336,293.535s23.761,7.92,27.494,11.531c2.579,2.494-.528,16.886-4.146,17.679s-9.494,7.651-11.424,7.228-4.805,4.961-7.691,4.165-12.861-18.7-4.458-17.627c0,0-5.771-9.3,4.105-5.225,0,0-7.861-9.165,4.417-7.568C122.633,303.718,93.38,289.873,114.336,293.535Z" fill="#ffb99a"/>
                <path id="Trazado_157172" data-name="Trazado 157172" d="M141.83,305.066l3.937,16.133,51.92,23.252S261.426,393.1,209.379,379.9s-77.694-41.487-77.694-41.487l-13.116-4.278Z" fill="#ffb99a"/>
                <path id="Trazado_157173" data-name="Trazado 157173" d="M141.83,305.066l3.937,16.133,51.92,23.252S261.426,393.1,209.379,379.9s-77.694-41.487-77.694-41.487l-13.116-4.278Z" fill="#e09577" opacity="0.5"/>
                <path id="Trazado_157174" data-name="Trazado 157174" d="M197.687,344.451l-37.9-16.975c-3.1,8.719-6.2,17.449-10.041,25.859A185.114,185.114,0,0,0,209.379,379.9C261.426,393.1,197.687,344.451,197.687,344.451Z" fill="#e09577"/>
              </g>
              <path id="Trazado_157175" data-name="Trazado 157175" d="M206.507,267.484S226.554,214.5,244.93,216.8s16.705,47.61,10.023,99.059c-5.812,44.753-3.341,66.806-30.07,68.342s-59.254-15.238-73.963-27.684c0,0,10.315-15.783,14.332-29.041,0,0,24.549,9.884,31.231,9.884,0,0-3.341-5.376,3.342-5.376S196.483,296.664,206.507,267.484Z" fill="#ff6464"/>
            </g>
          </g>
        </g>
      </g>
      <path id="Sustracción_8" data-name="Sustracción 8" d="M5033.051,11917.544h0c-.364-4.968-.548-10.029-.548-15.043a204.146,204.146,0,0,1,4.112-40.811,201.484,201.484,0,0,1,30.471-72.409,203.119,203.119,0,0,1,89.092-73.368,201.421,201.421,0,0,1,38.014-11.8,204.463,204.463,0,0,1,81.621,0,201.292,201.292,0,0,1,72.41,30.47,203.113,203.113,0,0,1,73.368,89.1,201.584,201.584,0,0,1,11.8,38.01,204.114,204.114,0,0,1,4.116,40.811c0,4.987-.186,10.049-.553,15.041a202.5,202.5,0,0,0-403.9,0Z" transform="translate(6035.003 16906.771) rotate(180)" fill="#1b262c"/>
    </g>
    <g transform="matrix(1, 0, 0, 1, 177.5, 4569)" filter="url(#Elipse_4988)">
      <circle id="Elipse_4988-2" data-name="Elipse 4988" cx="7.5" cy="7.5" r="7.5" transform="translate(820 124)" fill="#f57c00"/>
    </g>
    <g transform="matrix(1, 0, 0, 1, 177.5, 4569)" filter="url(#Elipse_4989)">
      <circle id="Elipse_4989-2" data-name="Elipse 4989" cx="7.5" cy="7.5" r="7.5" transform="translate(391 63)" fill="#f57c00"/>
    </g>
    <path id="Trazado_157181" data-name="Trazado 157181" d="M-4315.123-6910.312l-11.706,7.157s-12-7.125-12.268-20.964c-.031-1.605,10.989-8.037,10.989-8.037l6.862,8.037Z" transform="translate(5013.5 11680)" fill="#ff9700"/>
    <path id="Trazado_157182" data-name="Trazado 157182" d="M-4339.1-6910.312l11.706,7.157s12-7.125,12.268-20.964c.031-1.605-10.989-8.037-10.989-8.037l-6.862,8.037Z" transform="translate(5234.5 11680)" fill="#ff9700"/>
    <circle id="Elipse_4979" data-name="Elipse 4979" cx="26" cy="26" r="26" transform="translate(682.5 4720)" fill="#fdd835"/>
    <circle id="Elipse_4981" data-name="Elipse 4981" cx="26" cy="26" r="26" transform="translate(860.5 4720)" fill="#fdd835"/>
    <circle id="Elipse_4980" data-name="Elipse 4980" cx="26" cy="26" r="26" transform="translate(970.5 4913)" fill="#fdd835"/>
    <circle id="Elipse_4976" data-name="Elipse 4976" cx="26" cy="26" r="26" transform="translate(568.5 4913)" fill="#fdd835"/>
    <g transform="matrix(1, 0, 0, 1, 177.5, 4569)" filter="url(#Elipse_4987)">
      <circle id="Elipse_4987-2" data-name="Elipse 4987" cx="7.5" cy="7.5" r="7.5" transform="translate(867 363)" fill="#f57c00"/>
    </g>
    <g transform="matrix(1, 0, 0, 1, 177.5, 4569)" filter="url(#Elipse_4990)">
      <circle id="Elipse_4990-2" data-name="Elipse 4990" cx="7.5" cy="7.5" r="7.5" transform="translate(355 296)" fill="#f57c00"/>
    </g>
    <g transform="matrix(1, 0, 0, 1, 177.5, 4569)" filter="url(#Elipse_4991)">
      <circle id="Elipse_4991-2" data-name="Elipse 4991" cx="14" cy="14" r="14" transform="translate(403 356)" fill="#fff"/>
    </g>
    <g transform="matrix(1, 0, 0, 1, 177.5, 4569)" filter="url(#Elipse_4992)">
      <circle id="Elipse_4992-2" data-name="Elipse 4992" cx="14" cy="14" r="14" transform="translate(517 163)" fill="#fff"/>
    </g>
    <g transform="matrix(1, 0, 0, 1, 177.5, 4569)" filter="url(#Elipse_4993)">
      <circle id="Elipse_4993-2" data-name="Elipse 4993" cx="14" cy="14" r="14" transform="translate(695 163)" fill="#fff"/>
    </g>
    <g transform="matrix(1, 0, 0, 1, 177.5, 4569)" filter="url(#Elipse_4994)">
      <circle id="Elipse_4994-2" data-name="Elipse 4994" cx="14" cy="14" r="14" transform="translate(805 356)" fill="#fff"/>
    </g>
  </g>
</svg>
