<svg xmlns="http://www.w3.org/2000/svg" xmlns:xlink="http://www.w3.org/1999/xlink" width="295" height="268" viewBox="0 0 295 268">
  <defs>
    <clipPath id="clip-path">
      <rect id="Rectángulo_39311" data-name="Rectángulo 39311" width="266" height="231.811" transform="translate(0 0)" fill="none"/>
    </clipPath>
  </defs>
  <g id="Grupo_143608" data-name="Grupo 143608" transform="translate(-600.5 -1254)">
    <rect id="Rectángulo_39187" data-name="Rectángulo 39187" width="295" height="268" transform="translate(600.5 1254)" fill="#fff4c6"/>
    <g id="Grupo_143426" data-name="Grupo 143426" transform="translate(615 1277.103)">
      <g id="Grupo_143425" data-name="Grupo 143425" transform="translate(0 0.004)" clip-path="url(#clip-path)">
        <path id="Trazado_159849" data-name="Trazado 159849" d="M690.684,170.459H803.966a4.192,4.192,0,0,1,4.192,4.192V375.137a4.192,4.192,0,0,1-4.192,4.192H690.684a4.192,4.192,0,0,1-4.192-4.192V174.651a4.192,4.192,0,0,1,4.192-4.192" transform="translate(-594.865 -147.708)" fill="#fff"/>
        <path id="Rectángulo_39295" data-name="Rectángulo 39295" d="M2.96-1.422H116.242a4.378,4.378,0,0,1,4.382,4.382V203.446a4.378,4.378,0,0,1-4.382,4.382H2.96a4.378,4.378,0,0,1-4.382-4.382V2.959A4.378,4.378,0,0,1,2.96-1.422Zm113.283,208.87a4,4,0,0,0,4-4V2.959a4,4,0,0,0-4-4H2.96a4,4,0,0,0-4,4V203.446a4,4,0,0,0,4,4Z" transform="translate(92.859 23.983)" fill="#231f1f"/>
        <path id="Trazado_159850" data-name="Trazado 159850" d="M716.534,197.483h106.19a4.192,4.192,0,0,1,4.192,4.192V394.948a4.192,4.192,0,0,1-4.192,4.192H716.534a4.192,4.192,0,0,1-4.192-4.192V201.675a4.192,4.192,0,0,1,4.192-4.192" transform="translate(-617.265 -171.125)" fill="#f4780e"/>
        <path id="Rectángulo_39296" data-name="Rectángulo 39296" d="M2.96-1.422H109.149a4.378,4.378,0,0,1,4.382,4.382V196.232a4.378,4.378,0,0,1-4.382,4.382H2.96a4.378,4.378,0,0,1-4.382-4.382V2.96A4.378,4.378,0,0,1,2.96-1.422ZM109.149,200.235a4,4,0,0,0,4-4V2.96a4,4,0,0,0-4-4H2.96a4,4,0,0,0-4,4V196.232a4,4,0,0,0,4,4Z" transform="translate(96.309 27.59)" fill="#231f1f"/>
        <path id="Trazado_159851" data-name="Trazado 159851" d="M1120.526,240.565a1,1,0,1,1-1-1,1,1,0,0,1,1,1" transform="translate(-969.236 -207.591)" fill="#f4780e"/>
        <path id="Trazado_159852" data-name="Trazado 159852" d="M598.1,88.211H711.378A4.192,4.192,0,0,1,715.57,92.4V292.889a4.192,4.192,0,0,1-4.192,4.192H598.1a4.192,4.192,0,0,1-4.192-4.192V92.4a4.192,4.192,0,0,1,4.192-4.192" transform="translate(-514.635 -76.438)" fill="#fff"/>
        <path id="Rectángulo_39297" data-name="Rectángulo 39297" d="M2.96-1.422H116.242a4.378,4.378,0,0,1,4.381,4.381V203.446a4.378,4.378,0,0,1-4.382,4.382H2.96a4.378,4.378,0,0,1-4.382-4.382V2.959A4.378,4.378,0,0,1,2.96-1.422Zm113.283,208.87a4,4,0,0,0,4-4V2.959a4,4,0,0,0-4-4H2.96a4,4,0,0,0-4,4V203.446a4,4,0,0,0,4,4Z" transform="translate(80.501 13.005)" fill="#231f1f"/>
        <path id="Trazado_159853" data-name="Trazado 159853" d="M623.946,115.234h106.19a4.192,4.192,0,0,1,4.192,4.192V312.7a4.192,4.192,0,0,1-4.192,4.192H623.946a4.192,4.192,0,0,1-4.192-4.192V119.426a4.192,4.192,0,0,1,4.192-4.192" transform="translate(-537.035 -99.854)" fill="#f4780e"/>
        <path id="Rectángulo_39298" data-name="Rectángulo 39298" d="M2.959-1.422h106.19a4.378,4.378,0,0,1,4.382,4.382V196.232a4.378,4.378,0,0,1-4.382,4.382H2.959a4.378,4.378,0,0,1-4.382-4.382V2.96A4.378,4.378,0,0,1,2.959-1.422Zm106.19,201.657a4,4,0,0,0,4-4V2.96a4,4,0,0,0-4-4H2.959a4,4,0,0,0-4,4V196.232a4,4,0,0,0,4,4Z" transform="translate(83.952 16.612)" fill="#231f1f"/>
        <path id="Trazado_159854" data-name="Trazado 159854" d="M1027.939,158.317a1,1,0,1,1-1-1,1,1,0,0,1,1,1" transform="translate(-889.007 -136.32)" fill="#f4780e"/>
        <path id="Trazado_159855" data-name="Trazado 159855" d="M89.66,570.753v57.426a3.422,3.422,0,0,1-3.513,3.324H3.513A3.422,3.422,0,0,1,0,628.179V570.753a3.422,3.422,0,0,1,3.513-3.324H86.147a3.422,3.422,0,0,1,3.513,3.324" transform="translate(0 -491.694)" fill="#fff"/>
        <path id="Trazado_159856" data-name="Trazado 159856" d="M89.66,570.753v6.21H0v-6.21a3.422,3.422,0,0,1,3.513-3.324H86.147a3.422,3.422,0,0,1,3.513,3.324" transform="translate(0 -491.694)" fill="#f4780e"/>
        <path id="Trazado_159857" data-name="Trazado 159857" d="M610.337,593.314a1.5,1.5,0,1,1-1.5-1.514,1.506,1.506,0,0,1,1.5,1.514" transform="translate(-526.278 -512.812)" fill="#fff"/>
        <path id="Trazado_159858" data-name="Trazado 159858" d="M566.665,593.314a1.5,1.5,0,1,1-1.5-1.514,1.506,1.506,0,0,1,1.5,1.514" transform="translate(-488.435 -512.812)" fill="#fff"/>
        <path id="Trazado_159859" data-name="Trazado 159859" d="M520,593.314a1.5,1.5,0,1,1-1.5-1.514,1.506,1.506,0,0,1,1.5,1.514" transform="translate(-448 -512.812)" fill="#fff"/>
        <path id="Trazado_159860" data-name="Trazado 159860" d="M152.931,879.035H90.666c-2.091,0-3.863-2.27-4.153-5.32-.353-3.715,1.606-7.033,4.153-7.033h62.265c2.547,0,4.506,3.317,4.153,7.033-.29,3.05-2.062,5.32-4.153,5.32" transform="translate(-74.93 -751.005)" fill="#fff"/>
        <path id="Trazado_159861" data-name="Trazado 159861" d="M151.69,877.982H89.425a3.213,3.213,0,0,1-1.584-.427,4.451,4.451,0,0,1-1.319-1.163,6.515,6.515,0,0,1-.952-1.737,8.494,8.494,0,0,1-.488-2.167,9.05,9.05,0,0,1,.306-3.368,6.619,6.619,0,0,1,1.392-2.59,4.165,4.165,0,0,1,1.215-.94,3.19,3.19,0,0,1,1.432-.344H151.69a3.189,3.189,0,0,1,1.431.344,4.163,4.163,0,0,1,1.215.94,6.617,6.617,0,0,1,1.392,2.59,9.05,9.05,0,0,1,.306,3.368,8.5,8.5,0,0,1-.488,2.167,6.515,6.515,0,0,1-.952,1.737,4.451,4.451,0,0,1-1.319,1.163A3.213,3.213,0,0,1,151.69,877.982ZM89.425,865.63a3.2,3.2,0,0,0-2.363,1.158,6.234,6.234,0,0,0-1.307,2.44,8.663,8.663,0,0,0-.292,3.224,7.173,7.173,0,0,0,1.361,3.7,4.068,4.068,0,0,0,1.2,1.065,2.833,2.833,0,0,0,1.4.378H151.69a2.833,2.833,0,0,0,1.4-.378,4.068,4.068,0,0,0,1.2-1.065,7.174,7.174,0,0,0,1.361-3.7,8.664,8.664,0,0,0-.292-3.224,6.234,6.234,0,0,0-1.307-2.44,3.194,3.194,0,0,0-2.363-1.158Z" transform="translate(-73.689 -749.762)" fill="#231f1f"/>
        <path id="Trazado_159862" data-name="Trazado 159862" d="M146.462,902.081a1.454,1.454,0,1,1-1.454-1.454,1.454,1.454,0,0,1,1.454,1.454" transform="translate(-124.393 -780.42)" fill="#f4780e"/>
        <path id="Trazado_159863" data-name="Trazado 159863" d="M188.63,902.081a1.454,1.454,0,1,1-1.454-1.454,1.454,1.454,0,0,1,1.454,1.454" transform="translate(-160.933 -780.42)" fill="#f4780e"/>
        <path id="Trazado_159864" data-name="Trazado 159864" d="M230.8,902.081a1.454,1.454,0,1,1-1.454-1.454,1.454,1.454,0,0,1,1.454,1.454" transform="translate(-197.472 -780.42)" fill="#f4780e"/>
        <path id="Trazado_159865" data-name="Trazado 159865" d="M272.966,902.081a1.454,1.454,0,1,1-1.454-1.454,1.454,1.454,0,0,1,1.454,1.454" transform="translate(-234.012 -780.42)" fill="#f4780e"/>
        <path id="Trazado_159866" data-name="Trazado 159866" d="M315.134,902.081a1.454,1.454,0,1,1-1.454-1.454,1.454,1.454,0,0,1,1.454,1.454" transform="translate(-270.552 -780.42)" fill="#f4780e"/>
        <path id="Trazado_159867" data-name="Trazado 159867" d="M357.3,902.081a1.454,1.454,0,1,1-1.454-1.454,1.454,1.454,0,0,1,1.454,1.454" transform="translate(-307.092 -780.42)" fill="#f4780e"/>
        <path id="Trazado_159868" data-name="Trazado 159868" d="M399.47,902.081a1.454,1.454,0,1,1-1.454-1.454,1.454,1.454,0,0,1,1.454,1.454" transform="translate(-343.632 -780.42)" fill="#f4780e"/>
        <path id="Trazado_159869" data-name="Trazado 159869" d="M441.638,902.081a1.454,1.454,0,1,1-1.454-1.454,1.454,1.454,0,0,1,1.454,1.454" transform="translate(-380.171 -780.42)" fill="#f4780e"/>
        <path id="Trazado_159870" data-name="Trazado 159870" d="M483.806,902.081a1.454,1.454,0,1,1-1.454-1.454,1.454,1.454,0,0,1,1.454,1.454" transform="translate(-416.711 -780.42)" fill="#f4780e"/>
        <path id="Trazado_159871" data-name="Trazado 159871" d="M525.974,902.081a1.454,1.454,0,1,1-1.454-1.454,1.454,1.454,0,0,1,1.454,1.454" transform="translate(-453.251 -780.42)" fill="#f4780e"/>
        <path id="Trazado_159872" data-name="Trazado 159872" d="M304.6,753.32h-9.007a3.179,3.179,0,0,1-3.181-3.182v-9.786a.241.241,0,0,1,.241-.241h14.888a.241.241,0,0,1,.241.241v9.786a3.179,3.179,0,0,1-3.182,3.182Zm-11.707-12.727v9.545a2.7,2.7,0,0,0,2.7,2.7H304.6a2.7,2.7,0,0,0,2.7-2.7v-9.545Z" transform="translate(-253.383 -641.329)" fill="#f4780e"/>
        <path id="Trazado_159873" data-name="Trazado 159873" d="M292.653,683.346a.241.241,0,0,1-.241-.241v-4.756a4.3,4.3,0,0,1,4.3-4.3h6.765a4.3,4.3,0,0,1,4.3,4.3.241.241,0,1,1-.481,0,3.817,3.817,0,0,0-3.821-3.821h-6.765a3.818,3.818,0,0,0-3.821,3.821v4.756A.241.241,0,0,1,292.653,683.346Z" transform="translate(-253.383 -584.082)" fill="#f4780e"/>
        <path id="Trazado_159874" data-name="Trazado 159874" d="M341.439,769.423a1.557,1.557,0,1,0-2.6,1.153v3.089h2.09v-3.089a1.552,1.552,0,0,0,.511-1.153" transform="translate(-293.169 -665.379)" fill="#f4780e"/>
        <path id="Trazado_159875" data-name="Trazado 159875" d="M1410.847,599.677V657.1a3.422,3.422,0,0,1-3.512,3.324H1324.7a3.422,3.422,0,0,1-3.512-3.324V599.677a3.422,3.422,0,0,1,3.512-3.324h82.635a3.422,3.422,0,0,1,3.512,3.324" transform="translate(-1144.848 -516.758)" fill="#fff"/>
        <path id="Trazado_159876" data-name="Trazado 159876" d="M1410.847,599.677v6.21h-89.659v-6.21a3.422,3.422,0,0,1,3.512-3.324h82.635a3.422,3.422,0,0,1,3.512,3.324" transform="translate(-1144.848 -516.758)" fill="#f4780e"/>
        <path id="Trazado_159877" data-name="Trazado 159877" d="M1931.525,622.238a1.5,1.5,0,1,1-1.5-1.514,1.506,1.506,0,0,1,1.5,1.514" transform="translate(-1671.126 -537.876)" fill="#fff"/>
        <path id="Trazado_159878" data-name="Trazado 159878" d="M1887.854,622.238a1.5,1.5,0,1,1-1.5-1.514,1.506,1.506,0,0,1,1.5,1.514" transform="translate(-1633.283 -537.876)" fill="#fff"/>
        <path id="Trazado_159879" data-name="Trazado 159879" d="M1841.19,622.238a1.5,1.5,0,1,1-1.5-1.514,1.506,1.506,0,0,1,1.5,1.514" transform="translate(-1592.847 -537.876)" fill="#fff"/>
        <path id="Trazado_159880" data-name="Trazado 159880" d="M487.284,1.426H600.567a4.192,4.192,0,0,1,4.192,4.192V206.1a4.192,4.192,0,0,1-4.192,4.192H487.284a4.192,4.192,0,0,1-4.192-4.192V5.618a4.192,4.192,0,0,1,4.192-4.192" transform="translate(-418.613 -1.236)" fill="#fff"/>
        <path id="Rectángulo_39299" data-name="Rectángulo 39299" d="M2.96-1.422H116.242a4.378,4.378,0,0,1,4.381,4.381V203.446a4.378,4.378,0,0,1-4.382,4.382H2.96a4.378,4.378,0,0,1-4.382-4.382V2.959A4.378,4.378,0,0,1,2.96-1.422Zm113.283,208.87a4,4,0,0,0,4-4V2.959a4,4,0,0,0-4-4H2.96a4,4,0,0,0-4,4V203.446a4,4,0,0,0,4,4Z" transform="translate(65.711 1.422)" fill="#231f1f"/>
        <path id="Trazado_159881" data-name="Trazado 159881" d="M513.135,28.45H619.324a4.192,4.192,0,0,1,4.192,4.192V225.915a4.192,4.192,0,0,1-4.192,4.192H513.135a4.192,4.192,0,0,1-4.192-4.192V32.642a4.192,4.192,0,0,1,4.192-4.192" transform="translate(-441.014 -24.653)" fill="#fff"/>
        <path id="Rectángulo_39300" data-name="Rectángulo 39300" d="M2.959-1.422h106.19a4.378,4.378,0,0,1,4.382,4.382V196.232a4.378,4.378,0,0,1-4.382,4.382H2.959a4.378,4.378,0,0,1-4.382-4.382V2.96A4.378,4.378,0,0,1,2.959-1.422Zm106.19,201.657a4,4,0,0,0,4-4V2.96a4,4,0,0,0-4-4H2.959a4,4,0,0,0-4,4V196.232a4,4,0,0,0,4,4Z" transform="translate(69.161 5.029)" fill="#231f1f"/>
        <path id="Trazado_159882" data-name="Trazado 159882" d="M933.379,71.532a1,1,0,1,1-1-1,1,1,0,0,1,1,1" transform="translate(-807.068 -61.119)" fill="#f4780e"/>
        <path id="Trazado_159883" data-name="Trazado 159883" d="M1072.26,795.873v80.7a1.685,1.685,0,0,1-1.684,1.684H971.25a1.685,1.685,0,0,1-1.684-1.684v-80.7a1.685,1.685,0,0,1,1.684-1.684h99.325a1.685,1.685,0,0,1,1.684,1.684" transform="translate(-840.157 -688.188)" fill="#fff"/>
        <path id="Rectángulo_39301" data-name="Rectángulo 39301" d="M.441-1.435H99.766a1.864,1.864,0,0,1,1.327.549,1.864,1.864,0,0,1,.549,1.327v80.7a1.876,1.876,0,0,1-1.876,1.876H.441a1.864,1.864,0,0,1-1.327-.549,1.864,1.864,0,0,1-.549-1.327V.441A1.864,1.864,0,0,1-.886-.886,1.864,1.864,0,0,1,.441-1.435ZM99.766,82.634a1.493,1.493,0,0,0,1.493-1.493V.441a1.483,1.483,0,0,0-.437-1.056,1.483,1.483,0,0,0-1.056-.437H.441A1.483,1.483,0,0,0-.615-.615,1.483,1.483,0,0,0-1.052.441v80.7A1.483,1.483,0,0,0-.615,82.2a1.483,1.483,0,0,0,1.056.437Z" transform="translate(130.653 107.245)" fill="#231f1f"/>
        <path id="Trazado_159884" data-name="Trazado 159884" d="M1049.681,1046l13.5-18.927a5.752,5.752,0,0,1,8.961-.782l16.56,16.872L1105.272,1014a5.85,5.85,0,0,1,10.59.429L1130.989,1046Z" transform="translate(-909.579 -875.922)" fill="#fff"/>
        <path id="Trazado_159885" data-name="Trazado 159885" d="M1270.47,970.177a6.263,6.263,0,1,1-6.263-6.263,6.263,6.263,0,0,1,6.263,6.263" transform="translate(-1090.045 -835.26)" fill="#fff"/>
        <path id="Trazado_159886" data-name="Trazado 159886" d="M1129.745,1044.945h-81.308a.192.192,0,0,1-.156-.3l13.5-18.927a6.7,6.7,0,0,1,1.039-1.152,6.2,6.2,0,0,1,1.212-.831,5.946,5.946,0,0,1,1.328-.5,5.819,5.819,0,0,1,1.389-.169,5.988,5.988,0,0,1,4.286,1.848l16.383,16.69,16.442-28.938a6.951,6.951,0,0,1,1.067-1.427,6.212,6.212,0,0,1,1.3-1.019,5.884,5.884,0,0,1,6.162.12,6.291,6.291,0,0,1,1.347,1.157,7.055,7.055,0,0,1,1.055,1.609l15.127,31.568a.192.192,0,0,1-.173.274Zm-80.936-.383h80.632l-15-31.294a6.668,6.668,0,0,0-1-1.521,5.911,5.911,0,0,0-1.265-1.087,5.5,5.5,0,0,0-5.763-.113,5.837,5.837,0,0,0-1.218.956,6.559,6.559,0,0,0-1.008,1.348l-16.568,29.159a.192.192,0,0,1-.3.039l-16.561-16.872a5.839,5.839,0,0,0-1.9-1.3,5.415,5.415,0,0,0-3.41-.271,5.558,5.558,0,0,0-1.242.47,5.808,5.808,0,0,0-1.137.779,6.3,6.3,0,0,0-.979,1.086Z" transform="translate(-908.335 -874.678)" fill="#231f1f"/>
        <path id="Trazado_159887" data-name="Trazado 159887" d="M1262.963,975.388a6.435,6.435,0,1,1,2.513-.507A6.415,6.415,0,0,1,1262.963,975.388Zm0-12.526a6.052,6.052,0,1,0,2.363.477A6.035,6.035,0,0,0,1262.963,962.862Z" transform="translate(-1088.801 -834.016)" fill="#231f1f"/>
        <path id="Elipse_5467" data-name="Elipse 5467" d="M5.219,0A5.22,5.22,0,0,1,7.25,10.027,5.22,5.22,0,0,1,3.187.41,5.186,5.186,0,0,1,5.219,0Zm0,10.054A4.837,4.837,0,0,0,7.1.763,4.837,4.837,0,0,0,3.337,9.674,4.805,4.805,0,0,0,5.219,10.054Z" transform="translate(214.591 113.569) rotate(-22.5)" fill="#231f1f"/>
        <path id="Línea_995" data-name="Línea 995" d="M-1.244,4.818a.192.192,0,0,1-.192-.192v-5.87a.192.192,0,0,1,.192-.192.192.192,0,0,1,.192.192v5.87A.192.192,0,0,1-1.244,4.818Z" transform="translate(222.654 114.595)" fill="#231f1f"/>
        <path id="Línea_996" data-name="Línea 996" d="M4.626-1.052h-5.87a.192.192,0,0,1-.192-.192.192.192,0,0,1,.192-.192h5.87a.192.192,0,0,1,.192.192A.192.192,0,0,1,4.626-1.052Z" transform="translate(219.719 117.53)" fill="#231f1f"/>
        <path id="Trazado_159888" data-name="Trazado 159888" d="M360.247,983.695v33.391c0,.827-.957,1.5-2.136,1.5H280.946c-1.18,0-2.137-.67-2.137-1.5V983.695c0-.827.957-1.5,2.137-1.5h77.165c1.179,0,2.136.671,2.136,1.5" transform="translate(-241.596 -851.102)" fill="#fff"/>
        <path id="Trazado_159889" data-name="Trazado 159889" d="M279.7,980.761h77.165a2.84,2.84,0,0,1,1.62.474,1.784,1.784,0,0,1,.512.534,1.305,1.305,0,0,1,.2.682v33.391a1.3,1.3,0,0,1-.2.682,1.783,1.783,0,0,1-.512.534,2.841,2.841,0,0,1-1.62.473H279.7a2.842,2.842,0,0,1-1.621-.473,1.783,1.783,0,0,1-.512-.534,1.3,1.3,0,0,1-.2-.682V982.451a1.305,1.305,0,0,1,.2-.682,1.785,1.785,0,0,1,.512-.534A2.842,2.842,0,0,1,279.7,980.761Zm77.165,36.385a2.456,2.456,0,0,0,1.4-.4,1.126,1.126,0,0,0,.544-.9V982.451a1.127,1.127,0,0,0-.544-.9,2.455,2.455,0,0,0-1.4-.4H279.7a2.457,2.457,0,0,0-1.4.4,1.127,1.127,0,0,0-.544.9v33.391a1.126,1.126,0,0,0,.544.9,2.458,2.458,0,0,0,1.4.4Z" transform="translate(-240.352 -849.859)" fill="#231f1f"/>
        <path id="Trazado_159890" data-name="Trazado 159890" d="M360.247,983.695v5.182H278.809v-5.182c0-.827.957-1.5,2.137-1.5h77.165c1.179,0,2.136.671,2.136,1.5" transform="translate(-241.596 -851.102)" fill="#f4780e"/>
        <path id="Trazado_159891" data-name="Trazado 159891" d="M850.162,1004.65a.818.818,0,1,1-.818-.818.818.818,0,0,1,.818.818" transform="translate(-735.273 -869.85)" fill="#fff"/>
        <path id="Trazado_159892" data-name="Trazado 159892" d="M793.88,1004.65a.818.818,0,1,1-.818-.818.818.818,0,0,1,.818.818" transform="translate(-686.503 -869.85)" fill="#fff"/>
        <path id="Trazado_159893" data-name="Trazado 159893" d="M822.021,1004.65a.818.818,0,1,1-.818-.818.818.818,0,0,1,.818.818" transform="translate(-710.888 -869.85)" fill="#fff"/>
        <path id="Trazado_159894" data-name="Trazado 159894" d="M334.423,1074.712a9.812,9.812,0,1,1-9.812-9.812,9.812,9.812,0,0,1,9.812,9.812" transform="translate(-272.783 -922.767)" fill="#f4780e"/>
        <path id="Trazado_159895" data-name="Trazado 159895" d="M374.84,1100.028a2.453,2.453,0,1,1-2.453-2.453,2.453,2.453,0,0,1,2.453,2.453" transform="translate(-320.558 -951.081)" fill="#fff"/>
        <path id="Trazado_159896" data-name="Trazado 159896" d="M361.747,1140.969a4.905,4.905,0,0,0-9.673,0Z" transform="translate(-305.082 -985.141)" fill="#fff"/>
        <rect id="Rectángulo_39302" data-name="Rectángulo 39302" width="48.037" height="1.579" transform="translate(65.933 143.155)" fill="#f4780e"/>
        <rect id="Rectángulo_39303" data-name="Rectángulo 39303" width="48.037" height="1.579" transform="translate(65.933 148.793)" fill="#f4780e"/>
        <rect id="Rectángulo_39304" data-name="Rectángulo 39304" width="7.308" height="1.579" transform="translate(65.933 160.689)" fill="#f4780e"/>
        <rect id="Rectángulo_39305" data-name="Rectángulo 39305" width="7.308" height="1.579" transform="translate(75.234 160.689)" fill="#f4780e"/>
        <rect id="Rectángulo_39306" data-name="Rectángulo 39306" width="5.059" height="1.579" transform="translate(108.757 160.689)" fill="#f4780e"/>
        <rect id="Rectángulo_39307" data-name="Rectángulo 39307" width="21.872" height="1.579" transform="translate(84.994 160.689)" fill="#f4780e"/>
        <rect id="Rectángulo_39308" data-name="Rectángulo 39308" width="15.178" height="1.579" transform="translate(65.933 154.656)" fill="#f4780e"/>
        <rect id="Rectángulo_39309" data-name="Rectángulo 39309" width="19.726" height="1.579" transform="translate(82.899 154.656)" fill="#f4780e"/>
        <rect id="Rectángulo_39310" data-name="Rectángulo 39310" width="9.25" height="1.579" transform="translate(104.464 154.656)" fill="#f4780e"/>
        <path id="Trazado_159897" data-name="Trazado 159897" d="M580.32,79.861l-7.064-5.846L569.327,82.3l-1.654-9.019L559.339,77.1l4.531-7.972-8.842-2.43,8.595-3.195-5.211-7.545,8.638,3.077.857-9.129,4.639,7.91,6.525-6.442-1.531,9.041,9.14-.741-6.984,5.942,7.477,5.307L578,70.989Z" transform="translate(-480.948 -43.249)" fill="#fff"/>
        <path id="Trazado_159898" data-name="Trazado 159898" d="M568.083,81.248l-.025,0a.191.191,0,0,1-.163-.155l-1.609-8.777-8.111,3.719a.192.192,0,0,1-.246-.269l4.409-7.758-8.6-2.365a.192.192,0,0,1-.016-.364l8.364-3.109-5.071-7.342a.192.192,0,0,1,.222-.289l8.406,2.995.834-8.884a.192.192,0,0,1,.356-.079l4.514,7.7L577.692,50a.192.192,0,0,1,.323.168l-1.49,8.8,8.894-.721a.192.192,0,0,1,.14.337l-6.8,5.782,7.276,5.165a.192.192,0,0,1-.11.348l-8.923.061,2.254,8.634a.192.192,0,0,1-.308.2l-6.874-5.689-3.823,8.063A.192.192,0,0,1,568.083,81.248Zm-1.654-9.4a.192.192,0,0,1,.188.157l1.547,8.435,3.674-7.749a.192.192,0,0,1,.3-.066l6.606,5.467-2.166-8.3a.192.192,0,0,1,.184-.24l8.575-.058-6.993-4.964a.192.192,0,0,1-.013-.3l6.532-5.557-8.547.693a.192.192,0,0,1-.2-.223l1.432-8.455-6.1,6.025a.192.192,0,0,1-.3-.039l-4.338-7.4-.8,8.538a.192.192,0,0,1-.255.163L557.663,55.1l4.874,7.056a.192.192,0,0,1-.091.288l-8.038,2.988,8.269,2.272a.192.192,0,0,1,.116.279l-4.237,7.456,7.8-3.574A.192.192,0,0,1,566.43,71.846Z" transform="translate(-479.704 -42.005)" fill="#231f1f"/>
        <path id="Trazado_159899" data-name="Trazado 159899" d="M558.333,1292.883a6.379,6.379,0,0,0-3.2.916c-3.446,2.048-4.762,6.871-2.94,10.771.872,1.866,1.867,3.991,2.958,6.315a18.8,18.8,0,0,0,6.692,7.859,15.942,15.942,0,0,0,8.735,2.6h.131a15.9,15.9,0,0,0,8.578-2.657,18.7,18.7,0,0,0,6.614-7.9,3.1,3.1,0,0,1,2.7-1.967,3.029,3.029,0,0,1,2.878,1.641l2.21,3.768a18.274,18.274,0,0,0,6.912,6.854,15.779,15.779,0,0,0,8.48,1.933,16.028,16.028,0,0,0,8.251-2.9,18.814,18.814,0,0,0,6.224-7.61l1.034-2.248a3.1,3.1,0,0,1,2.7-1.962,3.03,3.03,0,0,1,2.875,1.634l5.377,9.125c2.163,3.672,6.546,4.674,9.789,2.239a8.623,8.623,0,0,0,1.954-11.057l-5.377-9.125a18.262,18.262,0,0,0-6.916-6.831,15.782,15.782,0,0,0-8.474-1.918,16.029,16.029,0,0,0-8.24,2.9,18.818,18.818,0,0,0-6.216,7.6l-1.034,2.248a3.1,3.1,0,0,1-2.7,1.962,3.031,3.031,0,0,1-2.875-1.641l-2.21-3.768a18.272,18.272,0,0,0-6.919-6.857,15.772,15.772,0,0,0-8.487-1.928,16.029,16.029,0,0,0-8.254,2.907,18.822,18.822,0,0,0-6.22,7.626,3.082,3.082,0,0,1-5.744.017c-1.087-2.316-2.078-4.431-2.945-6.288a7.007,7.007,0,0,0-6.337-4.269" transform="translate(-477.779 -1119.854)" fill="#fff"/>
        <path id="Trazado_159900" data-name="Trazado 159900" d="M626.177,1290.908a15.841,15.841,0,0,1,3.934.5,16.238,16.238,0,0,1,3.727,1.469,18.455,18.455,0,0,1,6.99,6.9l5.377,9.125a8.746,8.746,0,0,1,1.087,3,9.157,9.157,0,0,1-.013,3.123,8.995,8.995,0,0,1-.4,1.5,8.541,8.541,0,0,1-.651,1.393,7.7,7.7,0,0,1-2.028,2.3,6.64,6.64,0,0,1-4.006,1.368,6.517,6.517,0,0,1-1.746-.239,6.807,6.807,0,0,1-1.647-.7,7.293,7.293,0,0,1-1.466-1.148,8.046,8.046,0,0,1-1.2-1.572l-5.377-9.125a3.133,3.133,0,0,0-1.3-1.267,2.752,2.752,0,0,0-1.223-.278c-.057,0-.115,0-.171.005a2.867,2.867,0,0,0-1.247.367,3.179,3.179,0,0,0-1.291,1.484l-1.034,2.247a19,19,0,0,1-6.289,7.687,16.215,16.215,0,0,1-8.349,2.93c-.3.017-.6.026-.9.026a15.828,15.828,0,0,1-3.947-.5,16.238,16.238,0,0,1-3.737-1.479,18.467,18.467,0,0,1-6.986-6.925l-2.21-3.768a3.135,3.135,0,0,0-1.3-1.272,2.75,2.75,0,0,0-1.226-.28c-.057,0-.115,0-.171.005a2.869,2.869,0,0,0-1.249.367,3.179,3.179,0,0,0-1.291,1.489,18.886,18.886,0,0,1-6.683,7.981,16.1,16.1,0,0,1-8.681,2.689h-.182a16.139,16.139,0,0,1-8.791-2.635,18.988,18.988,0,0,1-6.761-7.939c-1.12-2.387-2.116-4.512-2.958-6.315a8.923,8.923,0,0,1-.811-3.107,9.117,9.117,0,0,1,.295-3.1,8.791,8.791,0,0,1,.532-1.443,8.282,8.282,0,0,1,.774-1.312,7.431,7.431,0,0,1,2.227-2.051,6.787,6.787,0,0,1,1.624-.7,6.455,6.455,0,0,1,1.673-.242h.074a6.683,6.683,0,0,1,3.715,1.148,7.455,7.455,0,0,1,1.539,1.375,8.258,8.258,0,0,1,1.185,1.856c.852,1.823,1.843,3.939,2.945,6.288a3.176,3.176,0,0,0,1.375,1.526,2.868,2.868,0,0,0,1.324.318h.009a2.871,2.871,0,0,0,1.324-.323,3.154,3.154,0,0,0,1.365-1.537,19.014,19.014,0,0,1,6.284-7.7,16.218,16.218,0,0,1,8.353-2.942c.3-.018.612-.027.916-.027a15.811,15.811,0,0,1,3.942.5,16.245,16.245,0,0,1,3.733,1.477,18.463,18.463,0,0,1,6.993,6.928l2.21,3.768a3.133,3.133,0,0,0,1.305,1.272,2.754,2.754,0,0,0,1.226.279c.056,0,.112,0,.168,0a2.866,2.866,0,0,0,1.249-.366,3.179,3.179,0,0,0,1.292-1.485l1.034-2.247a19.009,19.009,0,0,1,6.28-7.681,16.218,16.218,0,0,1,8.339-2.935C625.564,1290.917,625.873,1290.908,626.177,1290.908Zm14.018,30.287a6.259,6.259,0,0,0,3.776-1.292,7.318,7.318,0,0,0,1.927-2.182,8.338,8.338,0,0,0,1-2.763,8.776,8.776,0,0,0,.013-2.993,8.363,8.363,0,0,0-1.04-2.869l-5.377-9.125a18.071,18.071,0,0,0-6.843-6.76,15.857,15.857,0,0,0-3.639-1.435,15.461,15.461,0,0,0-3.839-.486c-.3,0-.6.009-.894.026a15.836,15.836,0,0,0-8.142,2.867,18.625,18.625,0,0,0-6.151,7.527l-1.034,2.247a3.552,3.552,0,0,1-1.45,1.658,3.251,3.251,0,0,1-1.416.415c-.063,0-.126.005-.19.005a3.134,3.134,0,0,1-1.395-.319,3.507,3.507,0,0,1-1.467-1.422l-2.21-3.768a18.08,18.08,0,0,0-6.846-6.786,15.861,15.861,0,0,0-3.645-1.442,15.43,15.43,0,0,0-3.846-.489c-.3,0-.6.009-.893.026a15.836,15.836,0,0,0-8.155,2.873,18.63,18.63,0,0,0-6.156,7.549,3.526,3.526,0,0,1-1.533,1.716,3.259,3.259,0,0,1-1.5.368h-.011a3.253,3.253,0,0,1-1.5-.362,3.548,3.548,0,0,1-1.544-1.7c-1.1-2.349-2.094-4.465-2.945-6.289a7.879,7.879,0,0,0-1.13-1.77,7.082,7.082,0,0,0-1.46-1.3,6.3,6.3,0,0,0-3.5-1.084h-.069a6.064,6.064,0,0,0-1.573.228,6.4,6.4,0,0,0-1.532.662,7.046,7.046,0,0,0-2.112,1.946,8.109,8.109,0,0,0-1.247,2.631,8.736,8.736,0,0,0-.282,2.975,8.541,8.541,0,0,0,.777,2.974c.842,1.8,1.837,3.928,2.958,6.315a18.6,18.6,0,0,0,6.623,7.78,15.755,15.755,0,0,0,8.582,2.574h.177a15.718,15.718,0,0,0,8.475-2.626,18.5,18.5,0,0,0,6.545-7.821,3.554,3.554,0,0,1,1.449-1.662,3.253,3.253,0,0,1,1.417-.417c.064,0,.129-.005.194-.005a3.129,3.129,0,0,1,1.395.319,3.508,3.508,0,0,1,1.465,1.422l2.21,3.768a18.085,18.085,0,0,0,6.839,6.783,15.864,15.864,0,0,0,3.649,1.445,15.457,15.457,0,0,0,3.852.49c.291,0,.586-.008.876-.025a15.833,15.833,0,0,0,8.152-2.862,18.621,18.621,0,0,0,6.16-7.533l1.034-2.247a3.552,3.552,0,0,1,1.448-1.657,3.249,3.249,0,0,1,1.415-.417c.064,0,.129-.006.194-.006a3.131,3.131,0,0,1,1.392.318,3.507,3.507,0,0,1,1.465,1.416l5.377,9.125a7.643,7.643,0,0,0,1.147,1.5,6.912,6.912,0,0,0,1.389,1.088A6.284,6.284,0,0,0,640.2,1321.195Z" transform="translate(-476.533 -1118.61)" fill="#231f1f"/>
        <path id="Trazado_159901" data-name="Trazado 159901" d="M285.334,306.005a30.768,30.768,0,0,0,28.453,9.86,25.354,25.354,0,0,1,4.655-.719c2.478-.007,4.83,1.009,7.1,2.006l5.825,2.561c2.469,1.086,5.232,2.189,7.785,1.319a3.284,3.284,0,0,0,2.2-2.55c.1-1.461-1.3-1.96-2.318-2.68-3.415-2.427-6.817-4.844-10.366-7.074a165.91,165.91,0,0,0-22.182-11.7A13.649,13.649,0,0,0,297.7,295.8a22.741,22.741,0,0,0-8.862,4.239c-1.879,1.388-3.773,3.649-3.5,5.97" transform="translate(-247.228 -256.082)" fill="#f49a89"/>
        <path id="Trazado_159902" data-name="Trazado 159902" d="M299.055,294.09h0a12.483,12.483,0,0,1,3.116.4,20.646,20.646,0,0,1,3.15,1.115c3.822,1.659,7.632,3.489,11.325,5.437s7.35,4.058,10.882,6.277c3.566,2.241,7.027,4.7,10.375,7.08.195.138.411.272.62.4a5.786,5.786,0,0,1,1.245.934,1.938,1.938,0,0,1,.532,1.514,2.456,2.456,0,0,1-.252.9,3.347,3.347,0,0,1-.542.785,3.852,3.852,0,0,1-1.539,1.029,6.275,6.275,0,0,1-2.029.324,10.065,10.065,0,0,1-3.01-.521,28.307,28.307,0,0,1-2.884-1.128l-5.825-2.561a35.885,35.885,0,0,0-3.44-1.369,11.622,11.622,0,0,0-3.557-.621H317.2a17.809,17.809,0,0,0-3.562.5c-.346.073-.7.148-1.058.215a29.032,29.032,0,0,1-5.447.511,30.793,30.793,0,0,1-6.5-.7,31.714,31.714,0,0,1-6.217-2.037,31.042,31.042,0,0,1-5.657-3.277,29.17,29.17,0,0,1-4.815-4.419.191.191,0,0,1-.046-.1,4.425,4.425,0,0,1,.177-1.794,6.487,6.487,0,0,1,.8-1.668,9.648,9.648,0,0,1,1.2-1.473,11.943,11.943,0,0,1,1.4-1.212c.692-.511,1.386-.984,2.062-1.406.729-.455,1.462-.866,2.18-1.221a20.994,20.994,0,0,1,2.293-.976,17.7,17.7,0,0,1,2.4-.669A13.207,13.207,0,0,1,299.055,294.09Zm36.884,25.822a5.893,5.893,0,0,0,1.905-.3,3.456,3.456,0,0,0,1.38-.925,2.964,2.964,0,0,0,.481-.695,2.077,2.077,0,0,0,.214-.763,1.553,1.553,0,0,0-.433-1.228,5.514,5.514,0,0,0-1.164-.866c-.214-.133-.436-.27-.64-.416-3.343-2.376-6.8-4.833-10.357-7.068-3.524-2.214-7.177-4.321-10.857-6.263s-7.486-3.769-11.3-5.424a20.28,20.28,0,0,0-3.092-1.1,12.1,12.1,0,0,0-3.022-.392h0a12.829,12.829,0,0,0-2.56.267,17.3,17.3,0,0,0-2.35.655,20.593,20.593,0,0,0-2.251.958c-.706.35-1.429.755-2.147,1.2-.668.417-1.353.884-2.037,1.39a11.555,11.555,0,0,0-1.356,1.173,9.262,9.262,0,0,0-1.156,1.414,6.1,6.1,0,0,0-.754,1.568,4.063,4.063,0,0,0-.169,1.581A28.8,28.8,0,0,0,288.987,309a30.658,30.658,0,0,0,5.587,3.236,31.333,31.333,0,0,0,6.142,2.013,30.408,30.408,0,0,0,6.417.692,28.646,28.646,0,0,0,5.375-.5c.35-.067.706-.142,1.051-.214a18.091,18.091,0,0,1,3.639-.508h.025a12,12,0,0,1,3.674.64,36.2,36.2,0,0,1,3.478,1.383L330.2,318.3a27.986,27.986,0,0,0,2.845,1.113A9.693,9.693,0,0,0,335.94,319.912Z" transform="translate(-245.985 -254.838)" fill="#231f1f"/>
        <path id="Trazado_159903" data-name="Trazado 159903" d="M556.275,413.912l-.311,60.457a2.711,2.711,0,0,1-2.726,2.7l-97.945-.5a2.711,2.711,0,0,1-2.7-2.725l.311-60.457a2.712,2.712,0,0,1,2.726-2.7l97.945.5a2.712,2.712,0,0,1,2.7,2.726" transform="translate(-392.186 -355.869)" fill="#f4780e"/>
        <path id="Trazado_159904" data-name="Trazado 159904" d="M454.055,408.88h.015l97.945.5a2.951,2.951,0,0,1,2.937,2.968l-.311,60.457a2.95,2.95,0,0,1-2.968,2.936l-97.945-.5a2.949,2.949,0,0,1-2.938-2.967l.311-60.457a2.951,2.951,0,0,1,2.953-2.938Zm97.635,66.384a2.471,2.471,0,0,0,2.471-2.457l.311-60.457a2.472,2.472,0,0,0-2.459-2.484l-97.958-.5a2.472,2.472,0,0,0-2.471,2.459l-.311,60.457a2.47,2.47,0,0,0,2.459,2.483l97.945.5Z" transform="translate(-390.624 -354.307)" fill="#f4780e"/>
        <path id="Trazado_159905" data-name="Trazado 159905" d="M558.081,413.912l-.033,6.369-103.369-.531.033-6.369a2.712,2.712,0,0,1,2.726-2.7l97.945.5a2.712,2.712,0,0,1,2.7,2.726" transform="translate(-393.992 -355.869)" fill="#fff"/>
        <path id="Trazado_159906" data-name="Trazado 159906" d="M456.18,409.247h.015l97.945.5a2.9,2.9,0,0,1,2.889,2.919L557,419.039a.192.192,0,0,1-.193.191L453.434,418.7a.192.192,0,0,1-.191-.193l.033-6.369a2.9,2.9,0,0,1,2.9-2.889Zm100.434,9.6.032-6.177a2.521,2.521,0,0,0-2.507-2.533l-97.958-.5a2.521,2.521,0,0,0-2.52,2.508l-.032,6.177Z" transform="translate(-392.748 -354.625)" fill="#231f1f"/>
        <path id="Trazado_159907" data-name="Trazado 159907" d="M737.487,571.443a15.049,15.049,0,1,1-14.971-15.126,15.049,15.049,0,0,1,14.971,15.126" transform="translate(-612.973 -482.065)" fill="#fff"/>
        <path id="Trazado_159908" data-name="Trazado 159908" d="M793.657,602.128l8.664,7.11a1.911,1.911,0,0,1,0,2.953l-8.738,7.187a1.911,1.911,0,0,1-3.125-1.486l.074-14.3a1.911,1.911,0,0,1,3.123-1.467" transform="translate(-684.957 -521.383)" fill="#f4780e"/>
        <path id="Trazado_159909" data-name="Trazado 159909" d="M1177.782,442.822h-.006a1.229,1.229,0,0,1,.006-2.459h.006a1.23,1.23,0,0,1-.006,2.459Zm0-2.076a.846.846,0,0,0,0,1.693h0a.846.846,0,0,0,0-1.693Z" transform="translate(-1019.517 -381.588)" fill="#231f1f"/>
        <path id="Trazado_159910" data-name="Trazado 159910" d="M1106.344,442.455h-.006a1.23,1.23,0,0,1,.006-2.459h.006a1.23,1.23,0,0,1-.006,2.459Zm0-2.076a.846.846,0,0,0,0,1.693h0a.846.846,0,0,0,0-1.693Z" transform="translate(-957.614 -381.27)" fill="#231f1f"/>
        <path id="Trazado_159911" data-name="Trazado 159911" d="M1142.062,442.639h-.006a1.229,1.229,0,0,1,.006-2.459h.006a1.229,1.229,0,0,1-.006,2.459Zm0-2.076a.846.846,0,0,0,0,1.693h0a.846.846,0,0,0,0-1.693Z" transform="translate(-988.564 -381.43)" fill="#231f1f"/>
        <path id="Trazado_159912" data-name="Trazado 159912" d="M488.2,404.56,474.728,399.3a3.326,3.326,0,1,1,2.479-6.172l11.742,3.337Z" transform="translate(-409.532 -340.436)" fill="#f49a89"/>
        <path id="Trazado_159913" data-name="Trazado 159913" d="M417.741,416.955,404.171,412a3.326,3.326,0,1,1,2.479-6.172l11.742,3.337Z" transform="translate(-348.392 -351.441)" fill="#f49a89"/>
        <path id="Trazado_159914" data-name="Trazado 159914" d="M371.046,432.317l-11.346-4.8a3.55,3.55,0,0,1-1.622-4.122c.5-1.845,2.191-2.79,3.68-2.051l9.747,3.337Z" transform="translate(-310.168 -364.892)" fill="#f49a89"/>
        <path id="Trazado_159915" data-name="Trazado 159915" d="M486.95,403.508a.192.192,0,0,1-.07-.013l-13.468-5.263a3.518,3.518,0,1,1,2.611-6.532l11.732,3.334a.192.192,0,0,1,.138.2l-.753,8.1a.191.191,0,0,1-.191.174ZM474.694,391.82a3.135,3.135,0,0,0-1.142,6.055l13.231,5.171.715-7.687-11.589-3.293-.021-.007A3.117,3.117,0,0,0,474.694,391.82Z" transform="translate(-408.286 -339.192)" fill="#231f1f"/>
        <path id="Trazado_159916" data-name="Trazado 159916" d="M416.5,415.9a.192.192,0,0,1-.066-.012l-13.57-4.957,0,0a3.518,3.518,0,1,1,2.611-6.532l11.732,3.334a.192.192,0,0,1,.139.2l-.651,7.793a.192.192,0,0,1-.191.176Zm-13.5-5.328,13.333,4.87.617-7.386-11.591-3.294-.021-.007a3.118,3.118,0,0,0-2.154-.087,3.154,3.154,0,0,0-.863.433,3.135,3.135,0,0,0,.679,5.469Z" transform="translate(-347.147 -350.197)" fill="#231f1f"/>
        <path id="Trazado_159917" data-name="Trazado 159917" d="M369.8,431.264a.191.191,0,0,1-.075-.015l-11.346-4.8-.007,0a3.225,3.225,0,0,1-1.586-1.776,4.134,4.134,0,0,1-.139-2.568,3.521,3.521,0,0,1,1.082-1.779,2.818,2.818,0,0,1,.815-.493,2.5,2.5,0,0,1,2.041.093l9.735,3.333a.192.192,0,0,1,.129.193l-.458,7.632a.192.192,0,0,1-.191.18ZM358.534,426.1l11.093,4.689.433-7.216-9.609-3.29-.023-.01a2.121,2.121,0,0,0-1.743-.085,2.435,2.435,0,0,0-.7.426,3.14,3.14,0,0,0-.962,1.587A3.361,3.361,0,0,0,358.534,426.1Z" transform="translate(-308.924 -363.648)" fill="#231f1f"/>
        <path id="Trazado_159918" data-name="Trazado 159918" d="M35.8,269.664c4.509.6,6.156.56,10.417-1.024,5.568-2.069,5.9-.911,10.527,2.991,1.6,1.352,9.657,7.339,9.36,1.174a6.85,6.85,0,0,0-1.392-3.344,41.611,41.611,0,0,0-5.67-6.623,88.546,88.546,0,0,0,10.684,9.447c.976.732,2.162,1.487,3.356.9a2.335,2.335,0,0,0,1.168-1.434,5.343,5.343,0,0,0-.543-3.69,29.328,29.328,0,0,0-7.345-10.311l10.847,11.675c1.386,1.491,3.372,3.126,5.23,2.127a2.852,2.852,0,0,0,1.379-1.865,6.909,6.909,0,0,0-.867-4.509,67.036,67.036,0,0,0-7.507-12.742,181.336,181.336,0,0,1,14.805,15.735,17.9,17.9,0,0,0,4.077,3.983,7.05,7.05,0,0,0,1.952.836,2.868,2.868,0,0,0,3.467-3.523,16.189,16.189,0,0,0-2.677-5.007,184.965,184.965,0,0,0-14.35-17.517,19.4,19.4,0,0,0-6.614-5.219c-5.148-2.888-7.967-1.852-12.884-1.139-13.112,1.9-15.844,1.047-28.788,3.871L2.268,253.431l13.561,21.848Z" transform="translate(-1.965 -207.799)" fill="#f49a89"/>
        <path id="Trazado_159919" data-name="Trazado 159919" d="M62.983,274.49a5.819,5.819,0,0,1-2.107-.5,16.2,16.2,0,0,1-2.233-1.145,28.147,28.147,0,0,1-3.264-2.314c-.519-.438-.992-.848-1.408-1.209a22.277,22.277,0,0,0-2.6-2.068,4.744,4.744,0,0,0-1.092-.511,3.916,3.916,0,0,0-1.17-.17,7.194,7.194,0,0,0-1.722.245,22.218,22.218,0,0,0-2.343.755,26.18,26.18,0,0,1-3.439,1.071,13.148,13.148,0,0,1-2.926.321,32.071,32.071,0,0,1-4.106-.352l-19.936,5.6a.192.192,0,0,1-.215-.083L.861,252.288A.192.192,0,0,1,.973,252l32.169-8.972.011,0c3.577-.78,6.592-1.329,9.49-1.728,2.612-.36,4.89-.564,7.3-.78,3.186-.285,6.8-.609,12.009-1.365.657-.1,1.273-.2,1.869-.293a27.49,27.49,0,0,1,4.429-.49,11.607,11.607,0,0,1,3.125.418,16.018,16.018,0,0,1,3.577,1.524,17.861,17.861,0,0,1,3.8,2.4,27.461,27.461,0,0,1,2.61,2.579l.259.28c2.558,2.759,5.065,5.635,7.451,8.548s4.712,5.936,6.914,8.988a24.9,24.9,0,0,1,1.583,2.426,11.418,11.418,0,0,1,1.123,2.644,3.03,3.03,0,0,1,.04,1.429,3.081,3.081,0,0,1-.568,1.224,3.122,3.122,0,0,1-1.047.874,2.964,2.964,0,0,1-1.362.329,3.088,3.088,0,0,1-.762-.1,7.284,7.284,0,0,1-2.006-.859A17.4,17.4,0,0,1,89,267.213l-.134-.161c-2.3-2.751-4.7-5.469-7.16-8.08-1.948-2.07-3.965-4.114-6.015-6.1.928,1.321,1.861,2.788,2.787,4.382,1.213,2.089,2.393,4.371,3.412,6.6a12.681,12.681,0,0,1,.832,2.221,5.014,5.014,0,0,1,.047,2.413,3.043,3.043,0,0,1-1.475,1.989,2.7,2.7,0,0,1-1.292.33,3.313,3.313,0,0,1-1.167-.228,5.424,5.424,0,0,1-1.1-.582,11.153,11.153,0,0,1-1.9-1.685l-5.454-5.871q.3.468.574.947a31.207,31.207,0,0,1,1.694,3.354,9.271,9.271,0,0,1,.617,1.844,3.982,3.982,0,0,1-.067,1.978,2.723,2.723,0,0,1-.472.9,2.319,2.319,0,0,1-.795.646,2.2,2.2,0,0,1-.975.228,4.569,4.569,0,0,1-2.579-1.149c-2.144-1.608-4.229-3.325-6.228-5.13.539.684,1.033,1.364,1.488,2.046a12.043,12.043,0,0,1,.942,1.62,4.919,4.919,0,0,1,.482,1.821,4.817,4.817,0,0,1-.118,1.439,2.141,2.141,0,0,1-.5.948A1.923,1.923,0,0,1,62.983,274.49Zm-13.875-8.3a4.292,4.292,0,0,1,1.283.187,5.12,5.12,0,0,1,1.18.551,22.492,22.492,0,0,1,2.651,2.1c.416.361.887.769,1.4,1.205a27.724,27.724,0,0,0,3.215,2.278,15.807,15.807,0,0,0,2.179,1.118,5.451,5.451,0,0,0,1.963.469,1.979,1.979,0,0,0,.669-.1,1.306,1.306,0,0,0,.509-.328,2.827,2.827,0,0,0,.511-2.1,6.716,6.716,0,0,0-1.36-3.247,37.082,37.082,0,0,0-3.974-4.9c-.563-.555-1.127-1.125-1.675-1.694a.192.192,0,0,1,.272-.27c.6.589,1.153,1.144,1.676,1.7a88.64,88.64,0,0,0,8.989,7.735,4.256,4.256,0,0,0,2.35,1.073,1.8,1.8,0,0,0,.807-.189,2.149,2.149,0,0,0,1.069-1.318,3.61,3.61,0,0,0,.058-1.791,8.922,8.922,0,0,0-.593-1.767,30.822,30.822,0,0,0-1.673-3.312,30.4,30.4,0,0,0-2.089-3.126l-3.548-3.819a.192.192,0,0,1,.266-.275,26.246,26.246,0,0,1,3.575,3.846l7.287,7.843a10.782,10.782,0,0,0,1.835,1.628,5.043,5.043,0,0,0,1.021.542,2.932,2.932,0,0,0,1.032.2,2.323,2.323,0,0,0,1.111-.284,2.66,2.66,0,0,0,1.284-1.741,4.641,4.641,0,0,0-.046-2.232,12.354,12.354,0,0,0-.808-2.152c-1.014-2.218-2.189-4.488-3.4-6.567a54.171,54.171,0,0,0-4.088-6.136.192.192,0,0,1,.282-.257c2.611,2.463,5.184,5.039,7.645,7.655s4.876,5.34,7.176,8.1l.135.161a17.11,17.11,0,0,0,3.9,3.782,6.9,6.9,0,0,0,1.9.813,2.7,2.7,0,0,0,.667.085,2.585,2.585,0,0,0,1.187-.287,2.737,2.737,0,0,0,.918-.766,2.7,2.7,0,0,0,.5-1.07,2.65,2.65,0,0,0-.035-1.25,11.045,11.045,0,0,0-1.087-2.555,26.076,26.076,0,0,0-1.56-2.39c-2.2-3.045-4.518-6.062-6.9-8.969s-4.883-5.776-7.436-8.53l-.259-.28a18.548,18.548,0,0,0-6.3-4.9l-.011-.006a15.653,15.653,0,0,0-3.5-1.492,11.228,11.228,0,0,0-3.023-.4,27.223,27.223,0,0,0-4.367.485c-.6.1-1.216.2-1.876.294-5.223.758-8.839,1.082-12.03,1.367-2.407.216-4.681.419-7.284.778-2.887.4-5.891.945-9.456,1.722L1.322,252.3l13.35,21.509,19.835-5.576a.192.192,0,0,1,.077-.006,31.994,31.994,0,0,0,4.095.354,12.775,12.775,0,0,0,2.843-.312,25.824,25.824,0,0,0,3.388-1.056,22.579,22.579,0,0,1,2.384-.767A7.562,7.562,0,0,1,49.108,266.193Z" transform="translate(-0.721 -206.555)" fill="#231f1f"/>
        <path id="Trazado_159920" data-name="Trazado 159920" d="M1443.835,19.318a57.259,57.259,0,0,0-4.648,13.389c-.484,2.275-.359,5.385,1.878,6.022,1.662.473,3.273-.895,4.262-2.312s1.852-3.1,3.448-3.762c3.9,4.8,10.677,6.787,16.543,7.694,2.536.392,6.88,1.335,9.361.377,3.666-1.417,1.626-3.915-.2-6.411a146.278,146.278,0,0,0-12.656-14.841c-1.854-1.926-3.287-4.063-5.424-5.663-2.4-1.8-4.957-3.379-7.516-4.939-2.008-1.224-3.421-2.913-6.1-2.213-.457.119-.894.313-1.358.4-1.95.368-3.8-1.179-5.786-1.128-1.87.048-2.98,1.55-3.9,2.984-1.217,1.906-2.24,3.94-3.307,5.946a61.957,61.957,0,0,0-5.477,14.308,3.689,3.689,0,0,0-.129,1.737c.416,1.707,2.8,2,4.1,1.277a6.171,6.171,0,0,0,2.042-2.292l8.142-13c-1.6,2.422-3.1,4.911-4.474,7.466-1.206,2.245-2.379,4.77-2.39,7.368a2.818,2.818,0,0,0,.625,2.025,2.412,2.412,0,0,0,2.338.445,6.6,6.6,0,0,0,3.672-3.339c2.25-3.9,4.518-7.73,6.956-11.535" transform="translate(-1232.863 -5.14)" fill="#f49a89"/>
        <path id="Trazado_159921" data-name="Trazado 159921" d="M1434.479,4.5a8.013,8.013,0,0,1,2.63.61,7.477,7.477,0,0,0,2.44.577,3.158,3.158,0,0,0,.584-.053,5.888,5.888,0,0,0,.774-.221c.185-.062.377-.126.572-.177a5.017,5.017,0,0,1,1.263-.171,6.488,6.488,0,0,1,3.786,1.6c.385.271.784.551,1.2.807,2.609,1.591,5.148,3.166,7.531,4.949a15.907,15.907,0,0,1,1.948,1.751c.6.621,1.164,1.285,1.714,1.928.569.665,1.158,1.352,1.786,2a145.874,145.874,0,0,1,12.673,14.86l.223.3a19.03,19.03,0,0,1,1.568,2.353,4.533,4.533,0,0,1,.432,1.138,2.241,2.241,0,0,1-.019,1.1,2.141,2.141,0,0,1-.666,1,4.7,4.7,0,0,1-1.417.806,6.116,6.116,0,0,1-1.346.333,11.078,11.078,0,0,1-1.523.1,34.585,34.585,0,0,1-5.477-.613c-.4-.067-.771-.129-1.112-.182-1.6-.248-3.128-.556-4.53-.914a33.511,33.511,0,0,1-4.525-1.487,22.852,22.852,0,0,1-4.164-2.226,17.553,17.553,0,0,1-1.835-1.444,15.385,15.385,0,0,1-1.517-1.579,3.769,3.769,0,0,0-.728.446,5.335,5.335,0,0,0-.733.7,15.416,15.416,0,0,0-1.257,1.728c-.168.254-.342.518-.516.769a7.406,7.406,0,0,1-1.624,1.707,3.585,3.585,0,0,1-2.113.783,2.684,2.684,0,0,1-.735-.1,2.646,2.646,0,0,1-1.405-.957,3.986,3.986,0,0,1-.689-1.582,7.525,7.525,0,0,1-.148-1.862,10.808,10.808,0,0,1,.23-1.845,57.442,57.442,0,0,1,3.43-10.762c-1.634,2.63-3.354,5.52-5.385,9.044a9.72,9.72,0,0,1-1.572,2.1,5.1,5.1,0,0,1-2.217,1.333,3.355,3.355,0,0,1-.881.12,2.661,2.661,0,0,1-.882-.142,1.975,1.975,0,0,1-.761-.474,2.925,2.925,0,0,1-.68-2.161,11.544,11.544,0,0,1,.758-3.88c.192-.533.411-1.056.638-1.553l-2.32,3.706a12.389,12.389,0,0,1-.9,1.307,4.209,4.209,0,0,1-1.211,1.051,3.462,3.462,0,0,1-1.648.393,3.724,3.724,0,0,1-.878-.1,3.02,3.02,0,0,1-.809-.32,2.157,2.157,0,0,1-1.047-1.369,3.82,3.82,0,0,1,.13-1.828,61.971,61.971,0,0,1,2.3-7.345,62.867,62.867,0,0,1,3.193-7.007c.2-.368.394-.744.585-1.107.851-1.617,1.732-3.29,2.729-4.852a9.806,9.806,0,0,1,1.624-2.051,4.153,4.153,0,0,1,1.087-.72,3.5,3.5,0,0,1,1.342-.3Zm5.07,1.569a7.874,7.874,0,0,1-2.568-.6,7.73,7.73,0,0,0-2.5-.588h-.091a3.311,3.311,0,0,0-2.183.923,9.468,9.468,0,0,0-1.557,1.972c-.989,1.549-1.866,3.214-2.714,4.824-.191.364-.389.74-.585,1.108a62.476,62.476,0,0,0-3.173,6.964,61.6,61.6,0,0,0-2.287,7.3,3.515,3.515,0,0,0-.13,1.646,1.715,1.715,0,0,0,.321.663,1.925,1.925,0,0,0,.546.466,3.008,3.008,0,0,0,1.494.371,3.076,3.076,0,0,0,1.463-.345,3.841,3.841,0,0,0,1.1-.958,12.129,12.129,0,0,0,.873-1.267l5.521-8.818c.814-1.374,1.7-2.784,2.624-4.191a.192.192,0,0,1,.322.207l-2.619,4.183c-.648,1.094-1.27,2.195-1.849,3.272a26.878,26.878,0,0,0-1.632,3.526,11.171,11.171,0,0,0-.736,3.752,2.575,2.575,0,0,0,.57,1.89,1.6,1.6,0,0,0,.615.381,2.281,2.281,0,0,0,.755.12,2.972,2.972,0,0,0,.781-.107,4.188,4.188,0,0,0,1.1-.481,5.507,5.507,0,0,0,.953-.756,9.343,9.343,0,0,0,1.508-2.013c2.69-4.669,4.837-8.229,6.961-11.543a.192.192,0,0,1,.333.188,57.045,57.045,0,0,0-4.632,13.344,10.377,10.377,0,0,0-.222,1.778,7.154,7.154,0,0,0,.14,1.767,3.613,3.613,0,0,0,.619,1.432,2.271,2.271,0,0,0,1.206.822,2.3,2.3,0,0,0,.63.088,3.213,3.213,0,0,0,1.886-.708,7.016,7.016,0,0,0,1.536-1.617c.172-.247.344-.508.511-.76a7.323,7.323,0,0,1,3.021-3.069.192.192,0,0,1,.222.056,14.9,14.9,0,0,0,1.569,1.649,17.172,17.172,0,0,0,1.795,1.412,22.48,22.48,0,0,0,4.094,2.188,33.121,33.121,0,0,0,4.472,1.469c1.39.355,2.9.66,4.493.907.343.053.719.116,1.117.183a34.29,34.29,0,0,0,5.414.608,10.694,10.694,0,0,0,1.47-.092,5.732,5.732,0,0,0,1.261-.311,4.328,4.328,0,0,0,1.3-.736,1.741,1.741,0,0,0,.552-.824,1.84,1.84,0,0,0,.012-.912,4.168,4.168,0,0,0-.4-1.041,18.821,18.821,0,0,0-1.536-2.3l-.223-.3a145.518,145.518,0,0,0-12.639-14.821c-.636-.66-1.228-1.352-1.8-2.021-.546-.638-1.112-1.3-1.7-1.912a15.543,15.543,0,0,0-1.9-1.709c-2.37-1.773-4.9-3.343-7.5-4.929-.431-.263-.835-.546-1.225-.821a12.789,12.789,0,0,0-1.7-1.07,4.134,4.134,0,0,0-1.867-.459,4.57,4.57,0,0,0-1.166.158c-.182.048-.368.11-.547.17A6.28,6.28,0,0,1,1440.2,6,3.545,3.545,0,0,1,1439.549,6.065Z" transform="translate(-1231.616 -3.896)" fill="#231f1f"/>
        <path id="Trazado_159922" data-name="Trazado 159922" d="M1415.076,80.9l-26.689,11.374-6.95-12.591-.662-1.2-1.787-3.237-.266-.482c-3.193-.37-5.592.7-8.774.883-3.51.206-7.015-.433-10.529-.23-3.75.218-7.386,1.352-11.114,1.824s-7.8.18-10.774-2.11a2.967,2.967,0,0,1-1.04-1.233c-.441-1.176.47-2.429,1.48-3.175q.168-.124.339-.237c3.43-2.306,7.958-2.03,12.1-2.774a14.162,14.162,0,0,0,4.483-1.487c3.341-1.871,5.276-5.349,7.343-8.451.128-.194.257-.385.387-.576a12.836,12.836,0,0,0,1.026-1.76l0,0a9.891,9.891,0,0,0,.9-4.876v-.008c-.041-1.2-.2-2.5-.328-4.03-.009-.1-.017-.206-.026-.309a8.465,8.465,0,0,0-.138-1.095c-.029-.135-.064-.266-.106-.4-.029-.085-.062-.17-.1-.251a2.3,2.3,0,0,0-.123-.242c-.023-.038-.048-.077-.073-.115s-.049-.07-.073-.1a.027.027,0,0,0-.006-.007,2.455,2.455,0,0,0-.176-.2c-.031-.033-.063-.065-.1-.1s-.066-.062-.1-.091-.066-.057-.1-.085l-.008-.006-.1-.078-.006,0c-.035-.026-.071-.051-.107-.076h0c-.086-.06-.176-.119-.267-.173l-.021-.013-.081-.049c-.1-.061-.206-.118-.31-.175l-.151-.081-.765-.413-1.2-.656c-.911-.5-1.814-1-2.72-1.482l-.388-.207c-.128-.069-.257-.136-.385-.2-.187-.1-.375-.2-.563-.294l-.012-.006c-.156-.081-.312-.162-.469-.241-.045-.024-.092-.048-.138-.071-.066-.034-.131-.068-.2-.1l-.364-.183c-.075-.038-.152-.076-.229-.113-.143-.071-.285-.141-.429-.209q-.1-.049-.2-.094l-.042-.02c-.18-.087-.362-.172-.545-.257q-.677-.314-1.372-.613l-.313-.133q-.513-.215-1.037-.42c-1.269,1.46-2.506,2.912-3.772,4.322l-.043.048q-.527.585-1.06,1.16l0,0a46.953,46.953,0,0,1-5.748,5.331c-.23.177-.468.354-.711.525-1.79,1.27-3.887,2.314-5.948,1.729a2.194,2.194,0,0,1-1.365-.951,1.643,1.643,0,0,1-.192-.722,3.622,3.622,0,0,1,.3-1.43,21.54,21.54,0,0,1,3.9-5.816c2.939-3.485,10.247-12.889,11.766-13.248a11.228,11.228,0,0,1,4.643.186l.265.051s0,0,0,0q.38.071.759.147c.162.031.324.063.484.1s.337.068.5.1c.073.014.146.029.218.045l.759.158.9.193.041.009.87.2q.452.1.9.209l.874.208.117.029.809.2c.3.074.6.151.9.228s.6.156.9.235.6.16.895.242q2.232.611,4.443,1.3c11.486,6,21.215,14.6,30.167,24.337l.639.883h0Z" transform="translate(-1154.087 -24.201)" fill="#f49a89"/>
        <path id="Trazado_159923" data-name="Trazado 159923" d="M1387.143,91.221a.192.192,0,0,1-.168-.1l-7.612-13.791-1.787-3.237-.219-.395a16.946,16.946,0,0,0-5.132.4,27.574,27.574,0,0,1-3.512.49,44.177,44.177,0,0,1-5.3-.114,44.118,44.118,0,0,0-5.233-.116,45.884,45.884,0,0,0-6.423.992c-1.527.31-3.1.631-4.678.831a20.17,20.17,0,0,1-5.723-.02,13,13,0,0,1-2.731-.74,10.243,10.243,0,0,1-2.461-1.389,3.176,3.176,0,0,1-1.1-1.318,2.01,2.01,0,0,1-.107-.98,2.718,2.718,0,0,1,.314-.927,4.711,4.711,0,0,1,1.339-1.489c.113-.083.229-.165.345-.242h0a10.29,10.29,0,0,1,1.981-1.032,14.468,14.468,0,0,1,2.133-.648,39.584,39.584,0,0,1,4.51-.659c1.175-.126,2.389-.256,3.552-.465a13.825,13.825,0,0,0,4.423-1.465,11.209,11.209,0,0,0,1.956-1.4,15.629,15.629,0,0,0,1.667-1.733,41.808,41.808,0,0,0,2.83-4c.27-.415.549-.844.825-1.259.113-.171.236-.354.389-.578a12.557,12.557,0,0,0,1.011-1.734l.007-.014a8.972,8.972,0,0,0,.75-2.367,11.8,11.8,0,0,0,.13-2.409.061.061,0,0,1,0-.007v0c-.028-.827-.114-1.726-.2-2.678-.041-.429-.083-.873-.123-1.339-.009-.1-.017-.2-.025-.311a8.169,8.169,0,0,0-.135-1.069,3.809,3.809,0,0,0-.1-.375c-.029-.084-.059-.163-.091-.235h0a2.042,2.042,0,0,0-.112-.221c-.022-.036-.045-.072-.068-.107s-.041-.059-.062-.088l0,0-.007-.009a2.255,2.255,0,0,0-.161-.188c-.027-.028-.057-.059-.086-.085l-.005,0c-.026-.025-.055-.052-.092-.083l0,0c-.024-.021-.051-.044-.086-.073l-.007-.005,0,0-.052-.04-.042-.032-.011-.007c-.036-.026-.07-.05-.1-.072l-.011-.008c-.082-.057-.165-.111-.248-.16l-.009-.006,0,0-.01-.006-.078-.047h0c-.1-.06-.2-.116-.3-.171l-.093-.05-.058-.031-.755-.407-.01-.006h0l-.048-.026-1.153-.63-.187-.1c-.83-.456-1.688-.927-2.531-1.378h0l-.364-.194-.022-.012h0l-.27-.143-.114-.06c-.174-.092-.37-.2-.561-.293l0,0-.008,0c-.165-.086-.317-.164-.466-.24l0,0c-.041-.022-.083-.043-.128-.066l-.005,0h0l-.05-.026-.145-.073h0l-.362-.182h0c-.074-.038-.151-.075-.226-.111h0c-.124-.062-.272-.135-.427-.208l0,0c-.062-.031-.126-.062-.19-.092l0,0-.006,0-.024-.011-.011,0c-.17-.082-.34-.162-.542-.256-.457-.212-.917-.418-1.367-.611l-.231-.1-.08-.034h0c-.322-.135-.62-.256-.907-.369-.327.376-.655.756-.973,1.124-.885,1.024-1.8,2.082-2.712,3.1l-.043.048c-.372.412-.719.792-1.062,1.162v0l0,0a46.8,46.8,0,0,1-5.771,5.351c-.261.2-.5.374-.717.529a11.743,11.743,0,0,1-2.92,1.585,6.169,6.169,0,0,1-1.578.334,4.708,4.708,0,0,1-1.613-.162,2.4,2.4,0,0,1-1.48-1.043,1.84,1.84,0,0,1-.216-.806,3.752,3.752,0,0,1,.308-1.508,14.422,14.422,0,0,1,1.728-3.1c.7-.983,1.5-1.934,2.209-2.774.652-.773,1.5-1.82,2.492-3.033,1.661-2.039,3.728-4.577,5.475-6.575.958-1.1,1.725-1.924,2.344-2.528a4.473,4.473,0,0,1,1.558-1.175,11.356,11.356,0,0,1,4.723.184l.251.048.028.005c.258.049.51.1.749.144a.192.192,0,0,1-.074.376c-.239-.047-.491-.1-.75-.145l-.011,0-.263-.051h0a20.7,20.7,0,0,0-2.306-.334,7.414,7.414,0,0,0-2.257.146c-.137.032-.5.215-1.379,1.076-.611.6-1.371,1.418-2.323,2.507-1.742,1.993-3.807,4.528-5.466,6.565-.989,1.214-1.843,2.262-2.5,3.038-.7.834-1.5,1.779-2.189,2.749a14.04,14.04,0,0,0-1.683,3.013,3.386,3.386,0,0,0-.283,1.351,1.444,1.444,0,0,0,.169.639,2.033,2.033,0,0,0,1.25.858,4.323,4.323,0,0,0,1.481.148,5.784,5.784,0,0,0,1.479-.314A11.381,11.381,0,0,0,1338,47.143h0c.217-.153.448-.323.7-.52a46.44,46.44,0,0,0,5.725-5.309h0c.341-.368.687-.746,1.057-1.157l.043-.048c.909-1.013,1.823-2.07,2.707-3.092.347-.4.706-.817,1.063-1.227a.192.192,0,0,1,.214-.053c.328.128.669.266,1.041.422h0l.08.034.233.1c.453.195.917.4,1.377.616.2.094.372.173.542.256l.043.02,0,0c.066.031.133.063.2.095.156.074.3.147.429.209.075.037.154.074.23.113h0l.365.183.149.076.049.025,0,0c.045.022.091.045.136.07.148.074.3.152.462.237l.023.012c.191.1.387.2.56.292l.114.06.271.144.022.012.365.2h0c.845.452,1.7.924,2.535,1.38l.187.1,1.152.63.047.026h0l.011.006.754.407.059.032.092.049h0c.1.054.208.114.314.178l.078.047.029.018c.088.052.176.109.262.169a.18.18,0,0,1,.028.019l.087.062.022.015.049.037.046.035,0,0,.013.009c.03.024.068.055.107.09s.074.065.1.095.075.072.1.1h0a2.659,2.659,0,0,1,.183.213.251.251,0,0,1,.018.023l0,0c.023.032.048.066.071.1s.053.081.078.122v0a2.379,2.379,0,0,1,.133.262c.036.082.071.172.1.266v0a4.163,4.163,0,0,1,.111.414,8.568,8.568,0,0,1,.142,1.12c.009.109.016.208.025.308.04.466.082.908.123,1.336.091.959.177,1.864.206,2.7,0,0,0,0,0,.007v0a12.166,12.166,0,0,1-.135,2.483,9.355,9.355,0,0,1-.787,2.478l-.008.015a12.944,12.944,0,0,1-1.036,1.776c-.151.221-.274.4-.385.573h0c-.275.413-.554.841-.823,1.256-1.794,2.759-3.649,5.612-6.586,7.256a14.19,14.19,0,0,1-4.542,1.508c-1.176.211-2.4.342-3.578.468a39.286,39.286,0,0,0-4.466.651,14.09,14.09,0,0,0-2.078.63,9.924,9.924,0,0,0-1.908.994h0c-.111.074-.222.152-.33.232A4.32,4.32,0,0,0,1335.611,71a2.34,2.34,0,0,0-.271.8,1.628,1.628,0,0,0,.086.795,2.829,2.829,0,0,0,.977,1.149,9.868,9.868,0,0,0,2.369,1.336,12.616,12.616,0,0,0,2.65.718,19.789,19.789,0,0,0,5.614.018c1.558-.2,3.13-.517,4.649-.826a46.176,46.176,0,0,1,6.477-1,44.409,44.409,0,0,1,5.279.116,43.894,43.894,0,0,0,5.25.114,27.284,27.284,0,0,0,3.464-.484c.873-.162,1.7-.314,2.572-.4a12.549,12.549,0,0,1,2.772,0,.191.191,0,0,1,.146.1l.266.482,2.449,4.436,6.866,12.44,26.309-11.212L1396.5,56.031a.2.2,0,0,1-.027-.053l-.265-.821a.192.192,0,1,1,.365-.118l.256.792,17.157,23.712a.191.191,0,0,1-.08.289l-26.689,11.374A.191.191,0,0,1,1387.143,91.221Z" transform="translate(-1152.844 -22.957)" fill="#231f1f"/>
        <path id="Trazado_159924" data-name="Trazado 159924" d="M925.888,204.114l-64.63.472A10.967,10.967,0,0,1,850.212,193.7h0A10.967,10.967,0,0,1,861.1,182.653l64.63-.472a10.967,10.967,0,1,1,.16,21.932" transform="translate(-736.733 -157.865)" fill="#fff"/>
        <path id="Trazado_159925" data-name="Trazado 159925" d="M1376.993,223.128a3.677,3.677,0,0,1,3.114,1.715,3.68,3.68,0,0,1-3.108,5.646,3.677,3.677,0,0,1-3.114-1.715,3.68,3.68,0,0,1,3.108-5.645Zm.007,6.977a3.3,3.3,0,0,0,1.564-6.2,3.32,3.32,0,0,0-1.57-.4,3.3,3.3,0,0,0-1.564,6.2A3.321,3.321,0,0,0,1377,230.105Z" transform="translate(-1190.018 -193.348)" fill="#231f1f"/>
        <path id="Línea_997" data-name="Línea 997" d="M1.622,3.484A.191.191,0,0,1,1.46,3.4L-1.406-1.142a.192.192,0,0,1,.06-.264.192.192,0,0,1,.264.06L1.784,3.19a.192.192,0,0,1-.162.294Z" transform="translate(190.086 37.654)" fill="#231f1f"/>
        <path id="Trazado_159926" data-name="Trazado 159926" d="M1358.156,220.327a7.835,7.835,0,0,1-1.722-.193,7.756,7.756,0,0,1-3.956-2.257,7.814,7.814,0,0,1-2-3.964,7.794,7.794,0,0,1,7.662-9.17,7.837,7.837,0,0,1,1.722.193,7.756,7.756,0,0,1,3.956,2.257,7.814,7.814,0,0,1,2,3.964,7.794,7.794,0,0,1-7.663,9.17Zm-.014-15.2a7.346,7.346,0,0,0-2.447.419,7.409,7.409,0,0,0,2.46,14.4,7.349,7.349,0,0,0,2.447-.419,7.409,7.409,0,0,0-2.46-14.4Z" transform="translate(-1170.123 -177.417)" fill="#231f1f"/>
        <path id="Trazado_159927" data-name="Trazado 159927" d="M859.933,203.534a11.232,11.232,0,0,1-2.236-.224,11.1,11.1,0,0,1-3.974-1.663,11.189,11.189,0,0,1-4.046-4.871,11.1,11.1,0,0,1-.66-2.082,11.232,11.232,0,0,1-.241-2.237h0a11.244,11.244,0,0,1,.21-2.25,11.1,11.1,0,0,1,1.65-4,11.189,11.189,0,0,1,4.879-4.078,11.106,11.106,0,0,1,2.09-.666,11.241,11.241,0,0,1,2.247-.243l64.63-.472h.083a11.233,11.233,0,0,1,2.236.224,11.1,11.1,0,0,1,3.974,1.663,11.189,11.189,0,0,1,4.046,4.87,11.1,11.1,0,0,1,.66,2.082,11.266,11.266,0,0,1,.031,4.487,11.1,11.1,0,0,1-1.65,4,11.19,11.19,0,0,1-4.88,4.078,11.1,11.1,0,0,1-2.09.666,11.237,11.237,0,0,1-2.247.243l-64.63.472ZM849.16,192.454a10.849,10.849,0,0,0,.233,2.161,10.718,10.718,0,0,0,1.635,3.827,10.809,10.809,0,0,0,4.733,3.871,10.722,10.722,0,0,0,2.013.621,10.847,10.847,0,0,0,2.159.217h.08l64.63-.472a10.855,10.855,0,0,0,2.17-.235,10.717,10.717,0,0,0,3.84-1.649,10.806,10.806,0,0,0,3.869-4.769,10.726,10.726,0,0,0,.613-2.027,10.886,10.886,0,0,0-.03-4.334,10.717,10.717,0,0,0-1.635-3.827,10.806,10.806,0,0,0-4.733-3.871,10.718,10.718,0,0,0-2.013-.621,10.847,10.847,0,0,0-2.159-.217h-.081l-64.63.472a10.856,10.856,0,0,0-2.17.235,10.715,10.715,0,0,0-3.84,1.649,10.8,10.8,0,0,0-3.869,4.769,10.717,10.717,0,0,0-.613,2.027,10.839,10.839,0,0,0-.2,2.173Z" transform="translate(-735.489 -156.621)" fill="#231f1f"/>
        <path id="Trazado_159928" data-name="Trazado 159928" d="M1692.368,378.85l-6.853,4.516-2.5-4.53Z" transform="translate(-1458.381 -328.273)" fill="#f4780e"/>
      </g>
    </g>
  </g>
</svg>
