<svg xmlns="http://www.w3.org/2000/svg" xmlns:xlink="http://www.w3.org/1999/xlink" width="774.5" height="890.131" viewBox="0 0 774.5 890.131">
  <defs>
    <linearGradient id="linear-gradient" x1="1.559" y1="0.091" x2="0.175" y2="0.111" gradientUnits="objectBoundingBox">
      <stop offset="0" stop-color="#f57c00"/>
      <stop offset="1" stop-color="#ffcc81"/>
    </linearGradient>
    <filter id="Elipse_5460" x="117" y="588" width="102" height="102" filterUnits="userSpaceOnUse">
      <feOffset dy="3" input="SourceAlpha"/>
      <feGaussianBlur stdDeviation="3" result="blur"/>
      <feFlood flood-opacity="0.161"/>
      <feComposite operator="in" in2="blur"/>
      <feComposite in="SourceGraphic"/>
    </filter>
    <filter id="Elipse_5458" x="117" y="4" width="102" height="102" filterUnits="userSpaceOnUse">
      <feOffset dy="3" input="SourceAlpha"/>
      <feGaussianBlur stdDeviation="3" result="blur-2"/>
      <feFlood flood-opacity="0.161"/>
      <feComposite operator="in" in2="blur-2"/>
      <feComposite in="SourceGraphic"/>
    </filter>
    <clipPath id="clip-path">
      <rect id="Rectángulo_39284" data-name="Rectángulo 39284" width="44.292" height="42.816" fill="#f57c00"/>
    </clipPath>
    <filter id="Elipse_5459" x="117" y="303" width="102" height="102" filterUnits="userSpaceOnUse">
      <feOffset dy="3" input="SourceAlpha"/>
      <feGaussianBlur stdDeviation="3" result="blur-3"/>
      <feFlood flood-opacity="0.161"/>
      <feComposite operator="in" in2="blur-3"/>
      <feComposite in="SourceGraphic"/>
    </filter>
    <clipPath id="clip-path-2">
      <rect id="Rectángulo_39285" data-name="Rectángulo 39285" width="46.508" height="46.487" fill="#f57c00"/>
    </clipPath>
    <clipPath id="clip-path-3">
      <rect id="Rectángulo_39286" data-name="Rectángulo 39286" width="48.29" height="48.277" fill="#f57c00"/>
    </clipPath>
    <filter id="Elipse_5461" x="557" y="303" width="102" height="102" filterUnits="userSpaceOnUse">
      <feOffset dy="3" input="SourceAlpha"/>
      <feGaussianBlur stdDeviation="3" result="blur-4"/>
      <feFlood flood-opacity="0.161"/>
      <feComposite operator="in" in2="blur-4"/>
      <feComposite in="SourceGraphic"/>
    </filter>
    <clipPath id="clip-path-4">
      <rect id="Rectángulo_39287" data-name="Rectángulo 39287" width="39.241" height="49.048" fill="#f57c00"/>
    </clipPath>
    <filter id="Elipse_5462" x="557" y="588" width="102" height="102" filterUnits="userSpaceOnUse">
      <feOffset dy="3" input="SourceAlpha"/>
      <feGaussianBlur stdDeviation="3" result="blur-5"/>
      <feFlood flood-opacity="0.161"/>
      <feComposite operator="in" in2="blur-5"/>
      <feComposite in="SourceGraphic"/>
    </filter>
    <clipPath id="clip-path-5">
      <rect id="Rectángulo_39288" data-name="Rectángulo 39288" width="47.611" height="47.618" fill="#f57c00"/>
    </clipPath>
  </defs>
  <g id="Grupo_143591" data-name="Grupo 143591" transform="translate(-413.5 -2427)">
    <g id="Grupo_143419" data-name="Grupo 143419">
      <path id="Trazado_159704" data-name="Trazado 159704" d="M372.737,766.162H90.32A90.422,90.422,0,0,1,0,675.842V0H27V675.842a63.392,63.392,0,0,0,63.32,63.32H372.737a63.392,63.392,0,0,0,63.32-63.32V209.6h27V675.842A90.422,90.422,0,0,1,372.737,766.162Z" transform="translate(569.5 2550.969)" fill="url(#linear-gradient)"/>
      <rect id="Rectángulo_39277" data-name="Rectángulo 39277" width="335" height="220.323" rx="12" transform="translate(413.5 2479)" fill="#fff4c6"/>
      <rect id="Rectángulo_39278" data-name="Rectángulo 39278" width="335" height="198.323" rx="12" transform="translate(413.5 2778.469)" fill="#fff4c6"/>
      <rect id="Rectángulo_39280" data-name="Rectángulo 39280" width="335" height="183" rx="12" transform="translate(853 2778.469)" fill="#ffd99d"/>
      <rect id="Rectángulo_39279" data-name="Rectángulo 39279" width="335" height="212" rx="12" transform="translate(413.5 3063.469)" fill="#fff4c6"/>
      <rect id="Rectángulo_39281" data-name="Rectángulo 39281" width="335" height="188" rx="12" transform="translate(853 3063.469)" fill="#ffd99d"/>
      <text id="Information_architect_Delimitan_y_desarrollan_el_prototipado_de_productos_mediante_la_utilización_de_herramientas_y_elementos_de_fácil_entendimiento_como_mapas_de_sitio_card_sorting_y_wireframing._" data-name="Information architect
Delimitan y desarrollan el prototipado de productos, mediante la utilización de herramientas y elementos de fácil entendimiento, como mapas de sitio, card sorting y wireframing. " transform="translate(433.5 2537)" fill="#12263f" font-size="16" font-family="Roboto-BoldItalic, Roboto" font-style="italic" font-weight="700"><tspan x="-74.508" y="17">Information architect</tspan><tspan font-family="Roboto-Regular, Roboto" font-weight="400" font-style="normal"><tspan x="-143.336" y="41">Delimitan y desarrollan el prototipado de </tspan><tspan x="-130.137" y="65">productos, mediante la utilización de </tspan><tspan x="-119.91" y="89">herramientas y elementos de fácil </tspan><tspan x="-130.723" y="113">entendimiento, como mapas de sitio, </tspan><tspan x="-93.277" y="137" font-family="Roboto-Italic, Roboto" font-style="italic">card sorting y wireframing. </tspan></tspan></text>
      <text id="UX_researcher_Se_llevan_a_cabo_estudios_e_investigación_recolección_de_datos_para_poder_definir_y_delimitar_los_futuros_clientes_y_sus_comportamientos." data-name="UX researcher
Se llevan a cabo estudios e investigación, recolección de datos para poder definir y delimitar los futuros clientes y sus comportamientos." transform="translate(433.5 2837.469)" fill="#12263f" font-size="16" font-family="Roboto-BoldItalic, Roboto" font-weight="700" font-style="italic"><tspan x="-50.027" y="17">UX researcher</tspan><tspan font-family="Roboto-Regular, Roboto" font-weight="400" font-style="normal"><tspan x="-146.891" y="41">Se llevan a cabo estudios e investigación, </tspan><tspan x="-144.164" y="65">recolección de datos para poder definir y </tspan><tspan x="-121.461" y="89">delimitar los futuros clientes y sus </tspan><tspan x="-65.613" y="113">comportamientos.</tspan></tspan></text>
      <text id="Visual_designer_Se_encarga_de_hacer_el_producto_atractivo_que_sea_de_fácil_comprensión_para_el_usuario_y_agradable_a_la_vista._" data-name="Visual designer
Se encarga de hacer el producto atractivo, que sea de fácil comprensión para el usuario y agradable a la vista. " transform="translate(873 2843.05)" fill="#12263f" font-size="16" font-family="Roboto-BoldItalic, Roboto" font-weight="700" font-style="italic"><tspan x="-54.621" y="17">Visual designer</tspan><tspan font-family="Roboto-Regular, Roboto" font-weight="400" font-style="normal"><tspan x="-114.332" y="41">Se encarga de hacer el producto </tspan><tspan x="-138.973" y="65">atractivo, que sea de fácil comprensión </tspan><tspan x="-131.008" y="89">para el usuario y agradable a la vista. </tspan></tspan></text>
      <text id="Interaction_designer_Se_enfoca_en_entender_las_interacciones_del_usuario_frente_a_un_producto_específico_su_comportamiento_y_posibles_acciones_frente_a_las_diferentes_herramientas_que_tiene_para_utilizar._" data-name="Interaction designer
Se enfoca en entender las interacciones del usuario frente a un producto específico, su comportamiento y posibles acciones frente a las diferentes herramientas que tiene para utilizar. " transform="translate(433.5 3118.469)" fill="#12263f" font-size="16" font-family="Roboto-BoldItalic, Roboto" font-weight="700" font-style="italic"><tspan x="-70.895" y="17">Interaction designer</tspan><tspan font-family="Roboto-Regular, Roboto" font-weight="400" font-style="normal"><tspan x="-141.629" y="41">Se enfoca en entender las interacciones </tspan><tspan x="-113.152" y="65">del usuario frente a un producto </tspan><tspan x="-115.648" y="89">específico, su comportamiento y </tspan><tspan x="-143.383" y="113">posibles acciones frente a las diferentes </tspan><tspan x="-126.75" y="137">herramientas que tiene para utilizar. </tspan></tspan></text>
      <text id="Content_strategist_Se_encarga_de_la_comunicación_directa_con_el_usuario_y_como_mejorar_su_experiencia_con_el_producto_que_va_a_utilizar._" data-name="Content strategist
Se encarga de la comunicación directa con el usuario y como mejorar su experiencia con el producto que va a utilizar. " transform="translate(873 3118.469)" fill="#12263f" font-size="16" font-family="Roboto-BoldItalic, Roboto" font-weight="700" font-style="italic"><tspan x="-63.633" y="17">Content strategist</tspan><tspan font-family="Roboto-Regular, Roboto" font-weight="400" font-style="normal"><tspan x="-137.391" y="41">Se encarga de la comunicación directa </tspan><tspan x="-117.711" y="65">con el usuario y como mejorar su </tspan><tspan x="-129.539" y="89">experiencia con el producto que va a </tspan><tspan x="-25.496" y="113">utilizar. </tspan></tspan></text>
      <g transform="matrix(1, 0, 0, 1, 413.5, 2427)" filter="url(#Elipse_5460)">
        <circle id="Elipse_5460-2" data-name="Elipse 5460" cx="42" cy="42" r="42" transform="translate(126 594)" fill="#fff"/>
      </g>
      <g id="Grupo_143397" data-name="Grupo 143397">
        <g transform="matrix(1, 0, 0, 1, 413.5, 2427)" filter="url(#Elipse_5458)">
          <circle id="Elipse_5458-2" data-name="Elipse 5458" cx="42" cy="42" r="42" transform="translate(126 10)" fill="#fff"/>
        </g>
        <g id="Grupo_143396" data-name="Grupo 143396" transform="translate(559.354 2457.725)">
          <g id="Grupo_143395" data-name="Grupo 143395" clip-path="url(#clip-path)">
            <path id="Trazado_159828" data-name="Trazado 159828" d="M0,38.923V5.268c.03-.092.07-.182.091-.276A4.455,4.455,0,0,1,5.633,1.636a4.455,4.455,0,0,1,3.219,4.32c.01.457,0,.915,0,1.384H26.518a.382.382,0,0,0,.04-.1c0-1.1,0-2.191.01-3.286a4.236,4.236,0,0,1,.557-2.188A3.73,3.73,0,0,1,31.077.086a3.627,3.627,0,0,1,2.829,3.209c.061,1.179.039,2.362.054,3.543,0,.166,0,.331,0,.529h.54c1.744,0,3.488-.008,5.231,0A4.465,4.465,0,0,1,43.37,9.123a5.8,5.8,0,0,1,.923,2.115V38.923a11.117,11.117,0,0,1-.877,2.035,4.3,4.3,0,0,1-3.786,1.859q-17.484-.009-34.967,0c-.144,0-.288,0-.432-.008a4.429,4.429,0,0,1-3.16-1.563A5.062,5.062,0,0,1,0,38.923M19.2,24.739v-.522c0-1.572.016-3.143-.009-4.715a1.214,1.214,0,0,1,.578-1.116c2.178-1.537,4.34-3.1,6.515-4.638a.6.6,0,0,0,.291-.566c-.013-1.312-.005-2.624-.007-3.936,0-.123-.02-.246-.033-.4H9.424c-.569,0-.57,0-.57.593q0,12.761,0,25.521a4.431,4.431,0,0,1-.022.561.665.665,0,0,1-.658.627.665.665,0,0,1-.742-.525c-.043-.151-.029-.32-.081-.466a6.3,6.3,0,0,0-.6-1.5,2.835,2.835,0,0,0-3.228-1.03A2.951,2.951,0,0,0,1.48,35.44c-.022.879-.006,1.759-.005,2.638a3,3,0,0,0,3.256,3.261H39.548a3.009,3.009,0,0,0,3.272-3.289q0-12.955,0-25.91a3.006,3.006,0,0,0-3.266-3.293q-2.552-.006-5.1,0c-.151,0-.3.016-.489.026v.475c0,1.254.009,2.509-.006,3.763a.717.717,0,0,0,.344.674c2.177,1.538,4.341,3.1,6.516,4.637a1.1,1.1,0,0,1,.537.964q-.013,5.688,0,11.376a1.111,1.111,0,0,1-.51.981q-4.984,3.548-9.958,7.108a.855.855,0,0,1-1.218.007q-4.979-3.554-9.957-7.108a1.127,1.127,0,0,1-.513-1.022c.018-1.211-.006-2.423.015-3.633a.849.849,0,0,0-.365-.758C16.19,24.229,13.552,22.1,10.9,20a1.363,1.363,0,0,1-.571-1.177c.017-1.975.006-3.95.009-5.926a2.235,2.235,0,0,1,.05-.557.717.717,0,0,1,1.374-.008,2.286,2.286,0,0,1,.053.6c0,1.831.007,3.662,0,5.493a.723.723,0,0,0,.305.658c.6.45,1.175.931,1.76,1.4L19.2,24.739M7.376,32.088v-.5q0-12.69,0-25.381c0-.23-.007-.462-.029-.691a2.951,2.951,0,0,0-5.871.573q-.005,12.82,0,25.64c0,.106.016.213.026.342a4.583,4.583,0,0,1,5.875.012m13.362-11.4c-.031.047-.057.069-.057.091,0,1.644-.011,3.287,0,4.93a.649.649,0,0,0,.241.409c.518.437,1.059.846,1.58,1.278a.769.769,0,0,1,.216,1.1c-.275.36-.7.38-1.145.044-.282-.214-.556-.438-.9-.712,0,.86.015,1.632-.008,2.4a.67.67,0,0,0,.334.633q4.474,3.181,8.934,6.383a.476.476,0,0,0,.666,0q4.475-3.219,8.968-6.41a.646.646,0,0,0,.31-.6c-.01-3.056-.006-6.113-.007-9.169,0-.121-.016-.242-.027-.394a1.915,1.915,0,0,0-.188.1c-1.819,1.3-3.64,2.589-5.448,3.9a.769.769,0,0,0-.238.5,11.161,11.161,0,0,1-.179,1.963c-.642,2.135-1.371,4.245-2.068,6.363a1.486,1.486,0,0,1-2.914-.01c-.583-1.778-1.142-3.564-1.758-5.33a6.741,6.741,0,0,1-.479-2.953.592.592,0,0,0-.313-.6c-1.742-1.231-3.474-2.474-5.21-3.713-.1-.072-.207-.138-.311-.207m8.784,5.124v-.551q0-4.325,0-8.649c0-.738.247-1.106.739-1.11s.739.358.739,1.1q0,4.346,0,8.692v.518h1.448V10.366H31c0,.314,0,.587,0,.86,0,.706.006,1.413-.022,2.118A.662.662,0,0,1,30.3,14a.688.688,0,0,1-.738-.586,3.175,3.175,0,0,1-.043-.6c0-.817,0-1.633,0-2.453H28.068V25.809ZM21.2,19.186,26.54,23V15.373L21.2,19.186m12.78,3.821,5.348-3.821-5.348-3.819ZM32.451,5.864c0-.824.039-1.629-.01-2.428a2.154,2.154,0,0,0-2.063-1.963,2.128,2.128,0,0,0-2.247,1.746,22.72,22.72,0,0,0-.021,2.645Zm-.261,21.478H28.347l1.874,5.705.088.007,1.88-5.712M28.069,8.8h4.41c0-.384-.014-.729,0-1.072.015-.28-.084-.373-.369-.371-1.264.013-2.529.005-3.794.008a1.533,1.533,0,0,0-.251.043Z" transform="translate(-0.001 0)" fill="#f57c00"/>
            <path id="Trazado_159829" data-name="Trazado 159829" d="M42.267,45.138c-.705,0-1.411.016-2.115,0-.618-.018-.983-.5-.784-1a.736.736,0,0,1,.753-.471c1.425,0,2.85-.006,4.274,0a.738.738,0,0,1,.814.713.752.752,0,0,1-.784.752c-.719.023-1.439.006-2.158.006v0" transform="translate(-26.022 -28.898)" fill="#f57c00"/>
            <path id="Trazado_159830" data-name="Trazado 159830" d="M55.387,34.925c.748,0,1.5-.019,2.243.007a.693.693,0,0,1,.694.688.729.729,0,0,1-.641.741,1.144,1.144,0,0,1-.213.027c-1.4,0-2.791.01-4.186,0-.529-.005-.836-.3-.84-.731,0-.451.311-.729.872-.739.69-.011,1.381,0,2.072,0v.014" transform="translate(-34.712 -23.106)" fill="#f57c00"/>
            <path id="Trazado_159831" data-name="Trazado 159831" d="M40.82,36.435a8.722,8.722,0,0,1-.872-.061.667.667,0,0,1-.587-.73.633.633,0,0,1,.6-.67,14.084,14.084,0,0,1,1.723,0,.631.631,0,0,1,.589.684.649.649,0,0,1-.567.707c-.3.048-.6.046-.89.066" transform="translate(-26.051 -23.133)" fill="#f57c00"/>
          </g>
        </g>
      </g>
      <g id="Grupo_143400" data-name="Grupo 143400">
        <g transform="matrix(1, 0, 0, 1, 413.5, 2427)" filter="url(#Elipse_5459)">
          <circle id="Elipse_5459-2" data-name="Elipse 5459" cx="42" cy="42" r="42" transform="translate(126 309)" fill="#fff"/>
        </g>
        <g id="Grupo_143399" data-name="Grupo 143399" transform="translate(558.5 2755)">
          <g id="Grupo_143398" data-name="Grupo 143398" clip-path="url(#clip-path-2)">
            <path id="Trazado_159832" data-name="Trazado 159832" d="M26.062,9.746A16.273,16.273,0,1,0,42.333,26.02h0A16.273,16.273,0,0,0,26.062,9.746m0,1.55a14.707,14.707,0,0,1,12.027,6.253l-1.938,1.938a3.057,3.057,0,0,0-1.562-.442,3.1,3.1,0,0,0-3.1,3.1,3.059,3.059,0,0,0,.43,1.56l-5.074,5.074a3.005,3.005,0,0,0-3.129,0l-3.524-3.524a3.059,3.059,0,0,0,.44-1.564,3.093,3.093,0,0,0-6.089-.775H11.672A14.744,14.744,0,0,1,26.062,11.3M36.135,22.145a1.55,1.55,0,1,1-1.55-1.55,1.55,1.55,0,0,1,1.55,1.55Zm-9.3,9.3a1.55,1.55,0,1,1-1.55-1.55h0a1.55,1.55,0,0,1,1.549,1.55m-7.748-7.748a1.55,1.55,0,1,1-1.55-1.55,1.55,1.55,0,0,1,1.55,1.55Zm14.127,15.2A14.719,14.719,0,0,1,11.422,24.469h3.127a3.1,3.1,0,0,0,2.99,2.328,3.06,3.06,0,0,0,1.564-.44l3.524,3.524a3.059,3.059,0,0,0-.44,1.564,3.1,3.1,0,1,0,6.2,0,3.059,3.059,0,0,0-.44-1.564l5.074-5.074a3.059,3.059,0,0,0,1.564.44,3.1,3.1,0,0,0,3.1-3.1,3.057,3.057,0,0,0-.44-1.564l1.69-1.689a14.71,14.71,0,0,1-5.717,20" transform="translate(-6.675 -6.646)" fill="#f57c00"/>
            <path id="Trazado_159833" data-name="Trazado 159833" d="M38.759,7.749a3.1,3.1,0,0,0,2.99-2.327h4.76V3.875h-4.76a3.093,3.093,0,0,0-6.089.775,3.057,3.057,0,0,0,.44,1.564L34.738,7.576A19.372,19.372,0,1,0,29.9,35.631l2.339,2.339,1.1,1.1L39.578,45.3a4.063,4.063,0,0,0,5.745-5.746l-6.238-6.237-1.1-1.1-2.339-2.339a19.309,19.309,0,0,0,0-21.027L37.2,7.31a3.059,3.059,0,0,0,1.558.439m0-4.655a1.547,1.547,0,1,0,0,.006Zm5.46,37.559a2.512,2.512,0,1,1-3.378,3.72c-.046-.042-.09-.085-.133-.13l-.041-.041L34.43,37.965l3.554-3.554Zm-7.332-7.332-3.554,3.554-2.148-2.147c.109-.084.212-.176.319-.262s.233-.189.349-.286c.17-.143.337-.286.5-.435.085-.078.165-.155.248-.233q.476-.447.923-.923c.078-.083.155-.163.233-.248.148-.164.292-.332.435-.5q.146-.172.286-.349c.085-.107.177-.209.261-.319Zm-3-3.6c-.244.341-.5.675-.762,1-.078.094-.161.184-.24.277q-.356.414-.734.8-.165.17-.335.335-.387.379-.8.734c-.092.078-.183.162-.277.24-.321.265-.655.518-1,.762a17.85,17.85,0,1,1,4.148-4.148" transform="translate(0 0)" fill="#f57c00"/>
          </g>
        </g>
      </g>
      <g id="Grupo_143402" data-name="Grupo 143402" transform="translate(557.5 3039)">
        <g id="Grupo_143401" data-name="Grupo 143401" clip-path="url(#clip-path-3)">
          <path id="Trazado_159834" data-name="Trazado 159834" d="M3.114,40.482v-23.8a2.373,2.373,0,0,1,2.67-2.663c4.525,0,9.051-.007,13.576.012.432,0,.623-.136.668-.54a2.456,2.456,0,0,1,.068-.333.89.89,0,0,0-.418-1.188h0a2.07,2.07,0,0,1-.857-1.224,9.662,9.662,0,0,1-.1-2.317.691.691,0,0,1,.741-.637c.24-.013.482,0,.786,0V1.012c0-.759.26-1.012,1.03-1.012h5.791c.693,0,.963.276.964.981q0,3.115,0,6.23v.576c.28,0,.518-.011.756,0a.765.765,0,0,1,.8.734c0,.023,0,.045,0,.068.016.551.03,1.1,0,1.654a2.243,2.243,0,0,1-1.23,1.915.414.414,0,0,0-.251.492c.151,1.362.143,1.363,1.475,1.363H42.564a2.358,2.358,0,0,1,2.595,2.593V40.488c.526,0,1.008-.006,1.49,0a1.557,1.557,0,0,1,1.622,1.49q0,.067,0,.135c.008.876.05,1.756-.023,2.627a3.862,3.862,0,0,1-3.9,3.531c-2.952.013-5.9,0-8.856,0H4.249A3.922,3.922,0,0,1,0,44.032c0-.649-.008-1.3,0-1.947a1.547,1.547,0,0,1,1.492-1.6c.034,0,.069,0,.1,0,.483-.011.967,0,1.516,0M40.462,18.716H31.6c.46.755.441.915-.135,1.557q-3.239,3.6-6.476,7.2c-.676.752-1.022.753-1.69.01q-3.2-3.564-6.406-7.129a1.768,1.768,0,0,1-.5-.749,2.368,2.368,0,0,1,.207-.886H7.821V37.348h32.64Zm6.245,23.363a1.227,1.227,0,0,0-.185-.037q-8.466,0-16.932.01a.649.649,0,0,0-.453.312c-.389.727-.753,1.47-1.111,2.215a.925.925,0,0,1-.922.575q-2.968-.012-5.936,0a.919.919,0,0,1-.919-.577c-.336-.7-.712-1.383-1.03-2.092a.675.675,0,0,0-.729-.462q-8.2.023-16.4.01H1.557v2.012A2.38,2.38,0,0,0,4.232,46.7H44.274A2.321,2.321,0,0,0,46.7,44.536c.048-.8.009-1.618.009-2.458ZM4.671,40.456H43.58c.006-.118.016-.212.016-.306V16.505c0-.673-.293-.934-1.012-.934H29.545c-.137,0-.273.012-.5.023.3.409.556.736.785,1.084a.968.968,0,0,0,.924.458c3.389-.021,6.775-.012,10.168-.01.9,0,1.118.227,1.118,1.12V37.806c0,.894-.227,1.121-1.118,1.121H7.353c-.9,0-1.125-.224-1.125-1.113V18.256c0-.9.222-1.128,1.109-1.128H17.6c.171,0,.414.016.5-.078.385-.441.726-.921,1.148-1.473H5.735c-.822,0-1.059.24-1.059,1.078V39.862ZM23.357,25.215c0-1.368-.011-2.6.008-3.824a.665.665,0,0,0-.4-.714A2.279,2.279,0,0,1,21.849,18.2a2.336,2.336,0,0,1,4.42-.467,2.115,2.115,0,0,1-.623,2.667,1.606,1.606,0,0,0-.739,1.719c.026.857,0,1.719.007,2.578,0,.136.015.271.029.492l5.186-5.763c-1.869-2-3.439-4.121-3.613-6.941H21.743c-.161,2.847-1.759,4.953-3.6,6.942Zm3.08-23.621H21.825V7.762h4.612Zm-6.189,7.76c0,.285-.013.526,0,.766a.752.752,0,0,0,.737.768h.042q3.107.019,6.214,0a.752.752,0,0,0,.778-.724c0-.013,0-.026,0-.039.017-.251,0-.5,0-.771Zm7.28,32.712H20.74c.239.478.439.918.681,1.333a.52.52,0,0,0,.389.184q2.337.02,4.666,0a.475.475,0,0,0,.361-.156c.244-.425.452-.877.691-1.36ZM24.138,17.9a.779.779,0,1,0,.773.785v-.019a.779.779,0,0,0-.773-.764Z" transform="translate(0 0)" fill="#f57c00"/>
          <path id="Trazado_159835" data-name="Trazado 159835" d="M47.827,83.568c3.18-.923,5.367-3.971,5.715-8h1.546a10.255,10.255,0,0,1-4.663,8.5H55.08c0-.249-.009-.486,0-.723a.76.76,0,0,1,.71-.807c.026,0,.052,0,.079,0q1.558-.022,3.115,0a.739.739,0,0,1,.762.714c0,.022,0,.043,0,.065q.024,1.533,0,3.065c-.008.53-.322.808-.883.813q-1.436.013-2.871,0c-.628-.006-.9-.293-.911-.934v-.617H53.637c-1.751,0-3.5.006-5.255-.01a.5.5,0,0,0-.556.381,3.056,3.056,0,0,1-2.87,1.96,3.136,3.136,0,0,1-2.888-1.947c-.066-.156-.256-.366-.39-.367-2.254-.023-4.507-.016-6.841-.016,0,.234,0,.456,0,.673a.79.79,0,0,1-.867.883c-.973.01-1.947.008-2.92,0a.779.779,0,0,1-.884-.864q-.016-1.484,0-2.968a.772.772,0,0,1,.857-.836c.925-.008,1.849,0,2.773,0,.787,0,1.031.252,1.037,1.055v.467h4.634a10.287,10.287,0,0,1-4.648-8.5h1.557A8.645,8.645,0,0,0,38.628,81.3a8.191,8.191,0,0,0,3.448,2.271c1.8-2.465,4.037-2.467,5.751-.007m-2.849,2.86a1.557,1.557,0,1,0-1.574-1.54V84.9a1.558,1.558,0,0,0,1.578,1.525Zm-11.73-2.295h-1.5v1.5h1.5Zm24.913,0h-1.5v1.5h1.5Z" transform="translate(-20.825 -52.178)" fill="#f57c00"/>
        </g>
      </g>
      <g id="Grupo_143405" data-name="Grupo 143405">
        <g transform="matrix(1, 0, 0, 1, 413.5, 2427)" filter="url(#Elipse_5461)">
          <circle id="Elipse_5461-2" data-name="Elipse 5461" cx="42" cy="42" r="42" transform="translate(566 309)" fill="#fff"/>
        </g>
        <g id="Grupo_143404" data-name="Grupo 143404" transform="translate(1001.5 2754)">
          <g id="Grupo_143403" data-name="Grupo 143403" transform="translate(0 0)" clip-path="url(#clip-path-4)">
            <path id="Trazado_159836" data-name="Trazado 159836" d="M26.98,31.064c0,1.333,0,2.591,0,3.85a4.094,4.094,0,0,1-4.325,4.324c-2.348,0-4.7,0-7.118,0,0,.357-.028.692,0,1.022a13.889,13.889,0,0,1-1.489,7.788c-.478.944-.439,1-1.512,1H3.6c-.779,0-.955-.121-1.194-.837Q1.266,44.8.135,41.388a2.606,2.606,0,0,1-.123-.8Q0,31.88,0,23.17a1.316,1.316,0,0,1,.514-1.1c1.613-1.362,3.2-2.751,4.817-4.111a1,1,0,0,0,.407-.858c-.015-4.24-.011-8.48-.009-12.72A4.1,4.1,0,0,1,10.1,0q6.257,0,12.514,0A4.1,4.1,0,0,1,26.98,4.382c0,.7,0,1.392,0,2.133.191.009.354.024.518.024,1.379,0,2.759-.025,4.137.02a1.6,1.6,0,0,1,.984.4q3.14,3.072,6.214,6.211a1.481,1.481,0,0,1,.391.936c.024,5.313.018,10.625.016,15.938,0,.733-.289,1.021-1.021,1.021q-5.312,0-10.625,0H26.98M25.339,6.54c0-.924.033-1.776-.008-2.623A2.433,2.433,0,0,0,22.995,1.64a4.729,4.729,0,0,0-.918.009.7.7,0,0,0-.449.291c-.3.531-.548,1.095-.839,1.633a2.381,2.381,0,0,1-2.2,1.329c-1.481.013-2.963.011-4.444,0a2.429,2.429,0,0,1-2.265-1.391c-.27-.511-.508-1.039-.782-1.548-.071-.131-.212-.3-.337-.314C8.484,1.38,7.34,2.62,7.346,4.5c.036,10.1.017,20.194.017,30.292,0,.17,0,.341,0,.511A2.346,2.346,0,0,0,9.12,37.448c.028-.111.062-.221.082-.334.408-2.415.809-4.831,1.222-7.244A2.4,2.4,0,0,1,12.884,27.8q.74-.008,1.481,0a2.454,2.454,0,0,1,2.476,2.882c-.2,1.278-.427,2.549-.639,3.824-.17,1.017-.335,2.034-.5,3.054a1.292,1.292,0,0,0,.206.044c2.366,0,4.733.023,7.1-.008a2.413,2.413,0,0,0,2.335-2.382c.02-.748,0-1.5.006-2.247,0-.623,0-1.246,0-1.9-1.02,0-1.972-.019-2.922.008a1.477,1.477,0,0,1-1.175-.48q-3.017-3.05-6.066-6.069a1.466,1.466,0,0,1-.469-1.128q.017-7.867.008-15.733c0-.869.254-1.121,1.125-1.121q4.444,0,8.887,0ZM22.916,29.393H37.565V14.742H22.916Zm-17.187-9.6c-.207.161-.339.257-.463.363-1.1.942-2.188,1.894-3.3,2.822a.85.85,0,0,0-.332.737q.014,8.326.01,16.651a1.944,1.944,0,0,0,.079.6c.669,2.034,1.355,4.062,2.018,6.1a.441.441,0,0,0,.509.355q3.958-.014,7.916,0a.464.464,0,0,0,.511-.362c.3-.795.656-1.57.928-2.374a4.588,4.588,0,0,0,.281-1.474,37.176,37.176,0,0,1,.613-8.529c.3-1.342.471-2.714.7-4.072.133-.79-.181-1.171-.973-1.179-.323,0-.647,0-.97,0-.972,0-1.145.16-1.3,1.1q-.626,3.827-1.274,7.65c-.162.954-.491,1.172-1.437,1.015a4.07,4.07,0,0,1-3.516-4.12q-.013-7.33,0-14.66v-.625M36.405,13.08c-.1-.125-.133-.177-.176-.22-1.491-1.492-2.976-2.99-4.483-4.466a.98.98,0,0,0-.631-.21q-6.532-.018-13.063-.008c-.142,0-.283.02-.513.037,1.618,1.614,3.166,3.167,4.73,4.7a.856.856,0,0,0,.551.159q6.556.013,13.114.007h.47M16.377,9.362c-.012.184-.021.263-.021.343q0,6.66.011,13.32a.968.968,0,0,0,.27.606c1.418,1.444,2.853,2.872,4.286,4.3.086.086.189.153.336.27,0-4.638,0-9.2-.008-13.754a.626.626,0,0,0-.179-.39c-1.534-1.545-3.076-3.081-4.694-4.7m3.544-7.7H12.789a7.207,7.207,0,0,0,.606,1.163,1.127,1.127,0,0,0,.74.424c1.478.039,2.959.037,4.438,0a1.053,1.053,0,0,0,.716-.381,8.005,8.005,0,0,0,.631-1.208" transform="translate(0 0)" fill="#f57c00"/>
          </g>
        </g>
      </g>
      <g id="Grupo_143408" data-name="Grupo 143408">
        <g transform="matrix(1, 0, 0, 1, 413.5, 2427)" filter="url(#Elipse_5462)">
          <circle id="Elipse_5462-2" data-name="Elipse 5462" cx="42" cy="42" r="42" transform="translate(566 594)" fill="#fff"/>
        </g>
        <g id="Grupo_143407" data-name="Grupo 143407" transform="translate(997.5 3040)">
          <g id="Grupo_143406" data-name="Grupo 143406" clip-path="url(#clip-path-5)">
            <path id="Trazado_159837" data-name="Trazado 159837" d="M33.193,0a10.41,10.41,0,0,1,1.134.365A4.584,4.584,0,0,1,37.273,4.71c.048,2.758.013,5.516.014,8.275v.534a11.052,11.052,0,0,1,7.915,4.2A10.9,10.9,0,0,1,47.59,24a11.2,11.2,0,0,1-8.718,11.5c0,.907-.006,1.82.007,2.733a.71.71,0,0,0,.161.368,3.241,3.241,0,0,1,.635,1.955c.009,1.286.023,2.573-.005,3.858a3.167,3.167,0,0,1-6.236.821,5.524,5.524,0,0,1-.113-1.1c-.019-.429,0-.86,0-1.263H20.081q-7.39,0-14.78,0c-2.883,0-4.506-1.251-5.245-4.052A.843.843,0,0,0,0,38.687V4.092c.033-.1.075-.194.1-.295A4.639,4.639,0,0,1,2.47.607,12.016,12.016,0,0,1,4.091,0ZM1.584,11.139v.444q0,13.112,0,26.223a3.2,3.2,0,0,0,3.436,3.466q12.714,0,25.428,0c.805,0,1.61-.03,2.415-.036.355,0,.475-.156.457-.514a3.2,3.2,0,0,1,.661-2.176.606.606,0,0,0,.127-.333c.01-.913.006-1.826.006-2.732a11.16,11.16,0,0,1-8.726-11.266,10.836,10.836,0,0,1,2.235-6.289,11.073,11.073,0,0,1,8.059-4.411V11.139ZM36.448,34.125a9.526,9.526,0,1,0-9.477-9.57,9.552,9.552,0,0,0,9.477,9.57M35.65,9.5a.612.612,0,0,0,.046-.135c0-1.519.018-3.038,0-4.556a3.158,3.158,0,0,0-3.251-3.224q-13.784-.009-27.567,0A3.164,3.164,0,0,0,1.588,4.866c-.01,1.411,0,2.821,0,4.231,0,.132.018.264.029.406Zm-.743,32.943c0,.636-.012,1.271,0,1.906a1.59,1.59,0,1,0,3.174-.006q.025-1.882,0-3.765a1.591,1.591,0,1,0-3.175.006c-.012.62,0,1.24,0,1.86m.828-5.112h1.52V35.712h-1.52Z" fill="#f57c00"/>
            <path id="Trazado_159838" data-name="Trazado 159838" d="M15.044,46.654a5.577,5.577,0,1,1,7.111-.012c.211.105.418.2.616.308a5.346,5.346,0,0,1,2.951,4.727c.06,1.919.029,3.842.011,5.763A2.328,2.328,0,0,1,23.36,59.79q-4.739.019-9.479,0a2.328,2.328,0,0,1-2.4-2.369c-.019-1.89-.044-3.781,0-5.67a5.381,5.381,0,0,1,3.138-4.893c.136-.07.275-.134.419-.2m5.942,11.533V56.469c0-1.5,0-3,0-4.507a.8.8,0,1,1,1.581.01c0,.139,0,.279,0,.418,0,1.626,0,3.253,0,4.879,0,.575.328.944.8.937a.806.806,0,0,0,.774-.913c0-1.843.019-3.687-.007-5.529a3.8,3.8,0,0,0-3.261-3.777A29.36,29.36,0,0,0,17.13,47.9a3.937,3.937,0,0,0-4.065,4.036c-.012,1.27,0,2.54,0,3.81,0,.557-.008,1.115.01,1.672a.777.777,0,0,0,.751.791.809.809,0,0,0,.815-.736,2.828,2.828,0,0,0,.008-.371c0-1.719,0-3.438.006-5.158a.791.791,0,1,1,1.576-.039c.011,2.088,0,4.176,0,6.286ZM18.669,38.38a3.962,3.962,0,1,0,3.9,4.052,3.94,3.94,0,0,0-3.9-4.052" transform="translate(-7.501 -24.084)" fill="#f57c00"/>
            <path id="Trazado_159839" data-name="Trazado 159839" d="M24.552,109.559q-6.018,0-12.036,0c-.6,0-.911-.208-.986-.635-.1-.551.271-.945.909-.947q3.044-.009,6.088,0l17.892,0c.108,0,.217,0,.325,0,.592.011.933.307.929.8s-.339.779-.946.78q-6.088,0-12.176,0" transform="translate(-7.538 -70.679)" fill="#f57c00"/>
            <path id="Trazado_159840" data-name="Trazado 159840" d="M61.811,100.39c-1.131,0-2.262,0-3.393,0-.621,0-.993-.3-.995-.794s.372-.791.995-.791q3.393,0,6.786,0c.594,0,.936.3.938.791s-.345.79-.938.791c-1.131,0-2.262,0-3.393,0Z" transform="translate(-37.59 -64.677)" fill="#f57c00"/>
            <path id="Trazado_159841" data-name="Trazado 159841" d="M60.63,89.616c.742,0,1.484,0,2.227,0,.553,0,.9.308.909.773.009.483-.35.809-.926.812q-2.25.009-4.5,0a.82.82,0,0,1-.915-.781c-.011-.476.355-.8.932-.8.758-.005,1.515,0,2.273,0Z" transform="translate(-37.591 -58.662)" fill="#f57c00"/>
            <path id="Trazado_159842" data-name="Trazado 159842" d="M84.045,66.723c-.4-.357-.74-.629-1.046-.931a.779.779,0,0,1-.088-1.186.79.79,0,0,1,1.189.055q.734.709,1.444,1.441a.8.8,0,0,1,0,1.262q-.725.75-1.475,1.475a.8.8,0,0,1-1.159.061.779.779,0,0,1,.05-1.187c.315-.316.659-.6,1.085-.989" transform="translate(-54.11 -42.132)" fill="#f57c00"/>
            <path id="Trazado_159843" data-name="Trazado 159843" d="M101.165,86.839c-.362.394-.642.725-.951,1.028a.793.793,0,1,1-1.123-1.109c.484-.5.975-1,1.478-1.479a.784.784,0,0,1,1.2-.009q.772.738,1.51,1.512a.791.791,0,1,1-1.138,1.093c-.309-.3-.593-.63-.972-1.037" transform="translate(-64.676 -55.641)" fill="#f57c00"/>
            <path id="Trazado_159844" data-name="Trazado 159844" d="M101.181,49.635c.357-.4.631-.739.935-1.045a.785.785,0,0,1,1.191-.083.8.8,0,0,1-.066,1.194c-.475.489-.956.973-1.447,1.446a.807.807,0,0,1-1.264-.022q-.715-.7-1.412-1.415a.8.8,0,0,1-.084-1.193.78.78,0,0,1,1.19.066c.306.3.583.639.957,1.053" transform="translate(-64.677 -31.598)" fill="#f57c00"/>
            <path id="Trazado_159845" data-name="Trazado 159845" d="M121.241,66.751c.4.349.739.618,1.045.919a.779.779,0,0,1,.089,1.188.793.793,0,0,1-1.191-.059q-.733-.712-1.444-1.446a.8.8,0,0,1,.018-1.262q.7-.717,1.412-1.413a.8.8,0,1,1,1.1,1.135c-.295.294-.615.563-1.029.938" transform="translate(-78.187 -42.132)" fill="#f57c00"/>
            <path id="Trazado_159846" data-name="Trazado 159846" d="M68.351,13.928q-1.9,0-3.807,0a2.382,2.382,0,1,1-.02-4.757q3.853-.011,7.706,0a2.38,2.38,0,1,1,.02,4.757c-1.3.012-2.6,0-3.9,0Zm-.018-1.591v0c1.27,0,2.54,0,3.81,0,.619,0,.993-.312.981-.8-.011-.471-.381-.781-.965-.782q-3.787-.006-7.574,0c-.62,0-.981.313-.973.813.009.485.353.766.957.768,1.255,0,2.509,0,3.764,0" transform="translate(-40.595 -6)" fill="#f57c00"/>
            <path id="Trazado_159847" data-name="Trazado 159847" d="M29.942,13.932a2.378,2.378,0,1,1,2.374-2.356,2.381,2.381,0,0,1-2.374,2.356m-.017-1.589a.77.77,0,0,0,.793-.783.784.784,0,0,0-1.568-.02.774.774,0,0,0,.775.8" transform="translate(-18.035 -6.007)" fill="#f57c00"/>
            <path id="Trazado_159848" data-name="Trazado 159848" d="M11.566,13.939a2.379,2.379,0,1,1,2.368-2.351,2.351,2.351,0,0,1-2.368,2.351m.777-2.38a.793.793,0,0,0-.8-.787.819.819,0,0,0-.775.777.792.792,0,0,0,.789.8.764.764,0,0,0,.786-.788" transform="translate(-6.009 -6.011)" fill="#f57c00"/>
          </g>
        </g>
      </g>
    </g>
    <g id="Elipse_5443" data-name="Elipse 5443" transform="translate(529.5 2427)" fill="none" stroke="#f57c00" stroke-linecap="round" stroke-width="2.5" stroke-dasharray="0 5">
      <circle cx="52" cy="52" r="52" stroke="none"/>
      <circle cx="52" cy="52" r="50.75" fill="none"/>
    </g>
    <g id="Elipse_5463" data-name="Elipse 5463" transform="translate(529.5 2727)" fill="none" stroke="#f57c00" stroke-linecap="round" stroke-width="2.5" stroke-dasharray="0 5">
      <circle cx="52" cy="52" r="52" stroke="none"/>
      <circle cx="52" cy="52" r="50.75" fill="none"/>
    </g>
    <g id="Elipse_5464" data-name="Elipse 5464" transform="translate(529.5 3011)" fill="none" stroke="#f57c00" stroke-linecap="round" stroke-width="2.5" stroke-dasharray="0 5">
      <circle cx="52" cy="52" r="52" stroke="none"/>
      <circle cx="52" cy="52" r="50.75" fill="none"/>
    </g>
    <g id="Elipse_5465" data-name="Elipse 5465" transform="translate(968.5 3011)" fill="none" stroke="#f57c00" stroke-linecap="round" stroke-width="2.5" stroke-dasharray="0 5">
      <circle cx="52" cy="52" r="52" stroke="none"/>
      <circle cx="52" cy="52" r="50.75" fill="none"/>
    </g>
    <g id="Elipse_5466" data-name="Elipse 5466" transform="translate(968.5 2727)" fill="none" stroke="#f57c00" stroke-linecap="round" stroke-width="2.5" stroke-dasharray="0 5">
      <circle cx="52" cy="52" r="52" stroke="none"/>
      <circle cx="52" cy="52" r="50.75" fill="none"/>
    </g>
  </g>
</svg>
