<svg xmlns="http://www.w3.org/2000/svg" xmlns:xlink="http://www.w3.org/1999/xlink" width="296" height="211" viewBox="0 0 296 211">
  <defs>
    <clipPath id="clip-path">
      <rect id="Rectángulo_38358" data-name="Rectángulo 38358" width="191.14" height="196.298" fill="none"/>
    </clipPath>
    <clipPath id="clip-path-2">
      <rect id="Rectángulo_38338" data-name="Rectángulo 38338" width="191.141" height="196.298" fill="none"/>
    </clipPath>
    <clipPath id="clip-path-3">
      <path id="Trazado_157218" data-name="Trazado 157218" d="M225.872,246.686a3.411,3.411,0,0,1-1.419,3.123L228.6,247.4a3.406,3.406,0,0,0,1.419-3.122Z" transform="translate(-224.453 -244.278)" fill="none"/>
    </clipPath>
    <clipPath id="clip-path-4">
      <rect id="Rectángulo_38339" data-name="Rectángulo 38339" width="5.563" height="5.53" fill="none"/>
    </clipPath>
    <clipPath id="clip-path-6">
      <path id="Trazado_157222" data-name="Trazado 157222" d="M144.133,0a2.518,2.518,0,0,0-1.279.329l-4.143,2.408a3.433,3.433,0,0,1,3.463.34L146.318.668A4.438,4.438,0,0,0,144.133,0Z" transform="translate(-138.711 0)" fill="none"/>
    </clipPath>
    <clipPath id="clip-path-8">
      <path id="Trazado_157224" data-name="Trazado 157224" d="M137.491,17.76,137.159,129.7a7.227,7.227,0,0,0,2.527,5.1,4.923,4.923,0,0,0,.709.5l47.044,27.161c1.252.723,2.341.535,2.884-.349a2.828,2.828,0,0,0,.371-1.507l.329-111.945a5.352,5.352,0,0,0-.214-1.466,7.2,7.2,0,0,0-3.019-4.133L140.747,15.905a2.956,2.956,0,0,0-1.456-.445c-1.064,0-1.8.842-1.8,2.3" transform="translate(-137.159 -15.46)" fill="none"/>
    </clipPath>
    <linearGradient id="linear-gradient" x1="-0.231" y1="2.001" x2="-0.227" y2="2.001" gradientUnits="objectBoundingBox">
      <stop offset="0" stop-color="#9796f0"/>
      <stop offset="0.169" stop-color="#9f9aed"/>
      <stop offset="0.442" stop-color="#b7a6e6"/>
      <stop offset="0.785" stop-color="#deb9db"/>
      <stop offset="1" stop-color="#fbc7d4"/>
    </linearGradient>
    <clipPath id="clip-path-11">
      <path id="Trazado_157235" data-name="Trazado 157235" d="M74.326,212.119l49.756,28.869c-1.931-1.122-3.131-3.507-3.14-6.893l-49.755-28.87c.01,3.386,1.209,5.77,3.139,6.893" transform="translate(-71.187 -205.226)" fill="none"/>
    </clipPath>
    <clipPath id="clip-path-13">
      <path id="Trazado_157239" data-name="Trazado 157239" d="M69.291,191.737l49.755,28.869c-.009-3.359-1.2-5.727-3.118-6.841L66.173,184.9c1.918,1.114,3.109,3.481,3.118,6.841" transform="translate(-66.173 -184.896)" fill="none"/>
    </clipPath>
    <clipPath id="clip-path-15">
      <path id="Trazado_157244" data-name="Trazado 157244" d="M104.056,94.109l49.755,28.87c-.043-15.428,10.846-34.286,24.27-42.037L128.326,52.073c-13.423,7.75-24.313,26.608-24.27,42.036" transform="translate(-104.056 -52.073)" fill="none"/>
    </clipPath>
    <clipPath id="clip-path-17">
      <path id="Trazado_157253" data-name="Trazado 157253" d="M37.632,183.6c-6.351,3.666-11.5,12.581-11.476,19.875.028,10.092-7.092,22.424-15.874,27.495l49.754,28.87c8.782-5.07,15.9-17.4,15.874-27.494-.021-7.295,5.126-16.21,11.476-19.876,3.2-1.844,6.094-2.013,8.188-.8L45.82,182.8a5.962,5.962,0,0,0-3.032-.778,10.462,10.462,0,0,0-5.155,1.574" transform="translate(-10.282 -182.022)" fill="none"/>
    </clipPath>
    <clipPath id="clip-path-19">
      <path id="Trazado_157288" data-name="Trazado 157288" d="M240.25,203.279a2.1,2.1,0,0,1-.874,1.923l1.192-.692a2.1,2.1,0,0,0,.874-1.924Z" transform="translate(-239.376 -202.586)" fill="none"/>
    </clipPath>
    <clipPath id="clip-path-21">
      <path id="Trazado_157291" data-name="Trazado 157291" d="M206.527,130.025l-1.192.693a2.114,2.114,0,0,1,2.133.209l1.192-.693a2.727,2.727,0,0,0-1.345-.411,1.55,1.55,0,0,0-.788.2" transform="translate(-205.335 -129.822)" fill="none"/>
    </clipPath>
    <clipPath id="clip-path-23">
      <path id="Trazado_157297" data-name="Trazado 157297" d="M236.13,146.983a6.584,6.584,0,0,1,2.989,5.176l1.192-.693a6.587,6.587,0,0,0-2.989-5.176Z" transform="translate(-236.13 -146.29)" fill="none"/>
    </clipPath>
    <clipPath id="clip-path-25">
      <path id="Trazado_157316" data-name="Trazado 157316" d="M260.33,132.655a2.4,2.4,0,0,1-1,2.2l1.362-.792a2.4,2.4,0,0,0,1-2.2Z" transform="translate(-259.33 -131.864)" fill="none"/>
    </clipPath>
    <clipPath id="clip-path-27">
      <path id="Trazado_157319" data-name="Trazado 157319" d="M232.988,88.7l-1.361.792a2.416,2.416,0,0,1,2.437.238l1.361-.791a3.12,3.12,0,0,0-1.536-.47,1.771,1.771,0,0,0-.9.231" transform="translate(-231.627 -88.469)" fill="none"/>
    </clipPath>
    <clipPath id="clip-path-29">
      <path id="Trazado_157325" data-name="Trazado 157325" d="M255.543,101.575a7.527,7.527,0,0,1,3.414,5.914l1.362-.792a7.526,7.526,0,0,0-3.415-5.914Z" transform="translate(-255.543 -100.783)" fill="none"/>
    </clipPath>
  </defs>
  <g id="Grupo_143419" data-name="Grupo 143419" transform="translate(-598.5 -407)">
    <g id="Grupo_143418" data-name="Grupo 143418">
      <rect id="Rectángulo_38198" data-name="Rectángulo 38198" width="296" height="211" transform="translate(598.5 407)" fill="#fff4c6"/>
      <g id="freepik--background-simple--inject-80" transform="translate(618.733 421.535)">
        <path id="Trazado_127996" data-name="Trazado 127996" d="M6184.252,14411.42c5.542-38.746-21.26-90.154-49.061-111.395-50.175-38.351-91.885-30.933-124.278-17.2s-37.047,59.6-59.442,80.343-35.112,48.654-1.154,76.436,61.367,13.669,96.879,11.9,82.619,12.109,108.063.054C6173.051,14443.188,6181.818,14428.543,6184.252,14411.42Z" transform="translate(-5929.451 -14271.717)" fill="#ffd99d"/>
      </g>
    </g>
    <g id="Grupo_142237" data-name="Grupo 142237" transform="translate(654.746 421.702)">
      <g id="Grupo_142236" data-name="Grupo 142236" clip-path="url(#clip-path)">
        <path id="Trazado_157193" data-name="Trazado 157193" d="M237.132,236.559v3.328L258.5,252.3v-3.327Z" transform="translate(-88.865 -88.651)" fill="#d7cbd4"/>
        <path id="Trazado_157194" data-name="Trazado 157194" d="M271.306,248.977V252.3l21.506-12.417v-3.327Z" transform="translate(-101.672 -88.651)" fill="#ebe0e7"/>
        <path id="Trazado_157195" data-name="Trazado 157195" d="M237.132,229.117,258.5,241.535l21.506-12.417L258.639,216.7Z" transform="translate(-88.865 -81.209)" fill="#f0f0f2"/>
        <path id="Trazado_157196" data-name="Trazado 157196" d="M236.5,229.486v3.327l21.367,12.417V241.9Z" transform="translate(-88.628 -86)" fill="#d7cbd4"/>
        <path id="Trazado_157197" data-name="Trazado 157197" d="M270.672,241.9v3.328l21.507-12.417v-3.327Z" transform="translate(-101.434 -86)" fill="#ebe0e7"/>
        <path id="Trazado_157198" data-name="Trazado 157198" d="M236.5,222.044l21.367,12.416,21.507-12.416-21.367-12.417Z" transform="translate(-88.628 -78.558)" fill="#f0f0f2"/>
        <path id="Trazado_157199" data-name="Trazado 157199" d="M230.128,225.4v3.328L251.5,241.147V237.82Z" transform="translate(-86.241 -84.47)" fill="#d7cbd4"/>
        <path id="Trazado_157200" data-name="Trazado 157200" d="M264.3,237.82v3.327l21.507-12.416V225.4Z" transform="translate(-99.047 -84.47)" fill="#ebe0e7"/>
        <path id="Trazado_157201" data-name="Trazado 157201" d="M230.128,217.961,251.5,230.378,273,217.961l-21.367-12.417Z" transform="translate(-86.241 -77.028)" fill="#f0f0f2"/>
        <path id="Trazado_157202" data-name="Trazado 157202" d="M230.128,218.623v3.328L251.5,234.367V231.04Z" transform="translate(-86.241 -81.929)" fill="#d7cbd4"/>
        <path id="Trazado_157203" data-name="Trazado 157203" d="M264.3,231.04v3.327l21.507-12.417v-3.328Z" transform="translate(-99.047 -81.929)" fill="#ebe0e7"/>
        <path id="Trazado_157204" data-name="Trazado 157204" d="M230.128,211.18,251.5,223.6,273,211.18l-21.367-12.417Z" transform="translate(-86.241 -74.487)" fill="#f0f0f2"/>
        <path id="Trazado_157205" data-name="Trazado 157205" d="M230.128,210.948v3.328L251.5,226.693v-3.327Z" transform="translate(-86.241 -79.053)" fill="#d7cbd4"/>
        <path id="Trazado_157206" data-name="Trazado 157206" d="M264.3,223.365v3.328l21.507-12.417v-3.328Z" transform="translate(-99.047 -79.053)" fill="#ebe0e7"/>
        <path id="Trazado_157207" data-name="Trazado 157207" d="M230.128,203.506,251.5,215.923,273,203.506l-21.367-12.417Z" transform="translate(-86.241 -71.611)" fill="#f0f0f2"/>
        <g id="Grupo_142164" data-name="Grupo 142164">
          <g id="Grupo_142163" data-name="Grupo 142163" clip-path="url(#clip-path-2)">
            <path id="Trazado_157208" data-name="Trazado 157208" d="M254.686,209.654l-5.63-3.251-2.222.509a6.241,6.241,0,0,0-1.61.55q-.671.386-.447.882a4.42,4.42,0,0,0,1.281,1.065l-.435.251-5.3-3.061.435-.251a5.151,5.151,0,0,0,2.122.4,21.584,21.584,0,0,0,3.767-.6l18.421-4.052.223.129-7.324,10.866a4.489,4.489,0,0,0-.987,2.131q.035.441.705.9l-.435.251-7.711-4.452.435-.251.318.183a4.2,4.2,0,0,0,1.563.6,1.326,1.326,0,0,0,.8-.163,1.5,1.5,0,0,0,.364-.293,7.822,7.822,0,0,0,.529-.712Zm.47-.733,3.115-4.541-7.934,1.758Z" transform="translate(-90.06 -75.737)" fill="#cb6803"/>
            <path id="Trazado_157209" data-name="Trazado 157209" d="M227.053,60.356l4.144-2.408-.331,116.5-4.143,2.408Z" transform="translate(-84.964 -21.716)" fill="#ded2da"/>
            <path id="Trazado_157210" data-name="Trazado 157210" d="M187.618,35.679a7.132,7.132,0,0,1,3.234,5.6l-.33,116.5c0,2.059-1.466,2.891-3.256,1.856l-47.045-27.161a7.13,7.13,0,0,1-3.234-5.6l.33-116.5c.005-2.058,1.465-2.891,3.256-1.855Z" transform="translate(-51.336 -3.025)" fill="#f0eaee"/>
            <path id="Trazado_157211" data-name="Trazado 157211" d="M173.821,31.019l8.654,5c.335.194.609.036.609-.351a1.349,1.349,0,0,0-.609-1.054l-8.654-5c-.335-.193-.608-.036-.608.351a1.351,1.351,0,0,0,.608,1.054" transform="translate(-64.912 -11.067)" fill="#2a1a30"/>
            <path id="Trazado_157212" data-name="Trazado 157212" d="M168.46,27.01a1.961,1.961,0,0,0,.887,1.537c.49.282.888.054.888-.512a1.959,1.959,0,0,0-.888-1.537c-.49-.283-.887-.054-.887.511" transform="translate(-63.13 -9.885)" fill="#2a1a30"/>
            <path id="Trazado_157213" data-name="Trazado 157213" d="M148.394,1.069,195.439,28.23a7.722,7.722,0,0,1,1.2.867,10.789,10.789,0,0,1,2.09,2.516l-4.143,2.407A10.84,10.84,0,0,0,192.5,31.5a7.727,7.727,0,0,0-1.2-.867L144.25,3.477Z" transform="translate(-54.058 -0.401)" fill="#f0f0f2"/>
            <path id="Trazado_157214" data-name="Trazado 157214" d="M219.492,46.918l4.144-2.408a10.693,10.693,0,0,1,4.852,8.4l-4.144,2.407a10.691,10.691,0,0,0-4.851-8.4" transform="translate(-82.255 -16.68)" fill="#f0eaee"/>
            <path id="Trazado_157215" data-name="Trazado 157215" d="M228.6,247.4l-4.143,2.408a3.409,3.409,0,0,0,1.419-3.122l4.144-2.408a3.408,3.408,0,0,1-1.42,3.122" transform="translate(-84.114 -91.544)" fill="#ded2da"/>
            <path id="Trazado_157216" data-name="Trazado 157216" d="M228.6,247.4l-4.143,2.408a3.407,3.407,0,0,0,1.419-3.122l4.144-2.408a3.408,3.408,0,0,1-1.42,3.122" transform="translate(-84.114 -91.543)" fill="#ded2da"/>
          </g>
        </g>
        <g id="Grupo_142169" data-name="Grupo 142169" transform="translate(140.339 152.735)">
          <g id="Grupo_142168" data-name="Grupo 142168" clip-path="url(#clip-path-3)">
            <g id="Grupo_142167" data-name="Grupo 142167" transform="translate(-0.001 0.001)" opacity="0.2" style="mix-blend-mode: multiply;isolation: isolate">
              <g id="Grupo_142166" data-name="Grupo 142166">
                <g id="Grupo_142165" data-name="Grupo 142165" clip-path="url(#clip-path-4)">
                  <path id="Trazado_157217" data-name="Trazado 157217" d="M225.872,246.687l4.144-2.408a3.408,3.408,0,0,1-1.42,3.122l-4.143,2.408a3.407,3.407,0,0,0,1.419-3.122" transform="translate(-224.452 -244.279)" fill="#ded2da"/>
                </g>
              </g>
            </g>
          </g>
        </g>
        <g id="Grupo_142171" data-name="Grupo 142171">
          <g id="Grupo_142170" data-name="Grupo 142170" clip-path="url(#clip-path-2)">
            <path id="Trazado_157219" data-name="Trazado 157219" d="M138.711,2.737,142.855.329a3.435,3.435,0,0,1,3.463.34l-4.143,2.408a3.436,3.436,0,0,0-3.464-.34" transform="translate(-51.982 0)" fill="#f0f0f2"/>
          </g>
        </g>
        <g id="Grupo_142173" data-name="Grupo 142173" transform="translate(86.729 0)">
          <g id="Grupo_142172" data-name="Grupo 142172" clip-path="url(#clip-path-6)">
            <path id="Trazado_157220" data-name="Trazado 157220" d="M138.711,2.737,142.855.329a2.73,2.73,0,0,1,1.938-.261l-4.143,2.407a2.732,2.732,0,0,0-1.938.261" transform="translate(-138.711 0)" fill="#f0f0f2"/>
            <path id="Trazado_157221" data-name="Trazado 157221" d="M141.81,2.516,145.953.109a5.021,5.021,0,0,1,1.526.6l-4.143,2.408a5.052,5.052,0,0,0-1.526-.6" transform="translate(-139.872 -0.041)" fill="#f0f0f2"/>
          </g>
        </g>
        <g id="Grupo_142175" data-name="Grupo 142175">
          <g id="Grupo_142174" data-name="Grupo 142174" clip-path="url(#clip-path-2)">
            <path id="Trazado_157223" data-name="Trazado 157223" d="M135.912,123.8a10.693,10.693,0,0,0,4.851,8.4l47.045,27.161c1.422.822,2.7.86,3.6.255a3.059,3.059,0,0,0,1.209-2.108,5.562,5.562,0,0,0,.076-.93l.33-116.5a8.039,8.039,0,0,0-.284-2.071,10.832,10.832,0,0,0-4.567-6.332L141.125,4.52a5.423,5.423,0,0,0-1.108-.494,2.962,2.962,0,0,0-2.21.077,2.768,2.768,0,0,0-1.4,1.877,5.26,5.26,0,0,0-.161,1.322Zm.672,1.489.33-116.5a3.5,3.5,0,0,1,.107-.882,1.849,1.849,0,0,1,.937-1.252,1.982,1.982,0,0,1,1.474-.051,3.614,3.614,0,0,1,.738.329L187.214,34.1a7.226,7.226,0,0,1,3.046,4.222,5.378,5.378,0,0,1,.189,1.381l-.33,116.5a3.774,3.774,0,0,1-.051.62,2.04,2.04,0,0,1-.807,1.4,2.229,2.229,0,0,1-2.4-.169L139.819,130.9a7.13,7.13,0,0,1-3.234-5.6" transform="translate(-50.933 -1.443)" fill="#f0eaee"/>
          </g>
        </g>
        <g id="Grupo_142177" data-name="Grupo 142177" transform="translate(85.759 9.666)">
          <g id="Grupo_142176" data-name="Grupo 142176" clip-path="url(#clip-path-8)">
            <rect id="Rectángulo_38342" data-name="Rectángulo 38342" width="154.067" height="75.103" transform="translate(-21.588 144.506) rotate(-81.506)" fill="url(#linear-gradient)"/>
          </g>
        </g>
        <g id="Grupo_142179" data-name="Grupo 142179">
          <g id="Grupo_142178" data-name="Grupo 142178" clip-path="url(#clip-path-2)">
            <path id="Trazado_157225" data-name="Trazado 157225" d="M126.911,232.817l-49.755-28.87c1.8,1.049,4.3.9,7.055-.686,5.467-3.157,9.9-10.837,9.884-17.122l49.754,28.87c.018,6.286-4.417,13.966-9.884,17.122-2.752,1.589-5.25,1.734-7.054.686" transform="translate(-28.914 -69.756)" fill="#f0f0f2"/>
          </g>
        </g>
        <g id="Grupo_142181" data-name="Grupo 142181" transform="translate(48.241 116.383)">
          <g id="Grupo_142239" data-name="Grupo 142239">
            <path id="Trazado_157226" data-name="Trazado 157226" d="M126.911,243.491l-49.755-28.87a5.6,5.6,0,0,0,4.045.515l49.755,28.87a5.6,5.6,0,0,1-4.045-.515" transform="translate(-77.155 -196.813)" fill="#ded2da"/>
            <path id="Trazado_157227" data-name="Trazado 157227" d="M133.38,241.072,83.625,212.2a10.334,10.334,0,0,0,3.009-1.2,18.041,18.041,0,0,0,4.808-4.211l21.781,12.639L141.2,235.66a18.048,18.048,0,0,1-4.807,4.211,10.335,10.335,0,0,1-3.009,1.2" transform="translate(-79.58 -193.878)" fill="#e8e8e8"/>
            <path id="Trazado_157228" data-name="Trazado 157228" d="M147.832,249.956a9.031,9.031,0,0,0,.464,2.17c.1.289.121.429.359.567l1.557.9,2.154,1.252c.5.288.99.635,1.511.877a.959.959,0,0,0,.657-.005,9.078,9.078,0,0,0,2.073-.667l-7.672-4.459-1.1-.64" transform="translate(-103.641 -210.054)" fill="#beafbe"/>
            <path id="Trazado_157229" data-name="Trazado 157229" d="M147.731,243.514l4.453,2.588,6.091,3.54c.108.062.383.3.513.3s.375-.269.473-.343c.241-.183.473-.373.7-.568a17.912,17.912,0,0,0,1.431-1.35l-4.633-2.692-7.347-4.269-1.7-.987q0,1.892.011,3.783" transform="translate(-103.599 -206.223)" fill="#beafbe"/>
            <path id="Trazado_157230" data-name="Trazado 157230" d="M145.881,227.921l-49.755-28.87c3.037-3.705,5.09-8.632,5.077-12.911l49.755,28.87c.012,4.28-2.04,9.207-5.077,12.911" transform="translate(-84.264 -186.139)" fill="#fff"/>
            <path id="Trazado_157231" data-name="Trazado 157231" d="M103.774,203.856l2.417,1.4,5.8,3.369,6.965,4.048,6.027,3.5,2.876,1.671.031.018a5.9,5.9,0,0,1,2.255,2.394,7.978,7.978,0,0,1,.417.91c.133.345.188.746.339,1.079.076.165.016.089.128.183a5.422,5.422,0,0,0,.782.455l1.448.841,8.716,5.066,3.591,2.087.988.573c.043.025.155.121.206.121.007,0,.018.015.024.014.1-.016.34-.473.388-.542.129-.188.256-.378.38-.568q.355-.545.68-1.11c.064-.111.545-.8.491-.9-.008-.013-.039-.014-.047-.027-.044-.074-.256-.149-.329-.191l-1.5-.873-5.785-3.362-8.222-4.778-9.251-5.376-8.779-5.1-6.815-3.96-2.24-1.3a11.277,11.277,0,0,0-1.191-.692,1.375,1.375,0,0,1-.152-.089q-.3.578-.632,1.138" transform="translate(-87.13 -192.352)" fill="#beafbe"/>
          </g>
        </g>
        <g id="Grupo_142183" data-name="Grupo 142183">
          <g id="Grupo_142182" data-name="Grupo 142182" clip-path="url(#clip-path-2)">
            <path id="Trazado_157233" data-name="Trazado 157233" d="M124.082,240.988l-49.755-28.87c-1.931-1.122-3.13-3.507-3.14-6.893l49.755,28.87c.009,3.386,1.209,5.77,3.14,6.893" transform="translate(-26.677 -76.908)" fill="#f0f0f2"/>
          </g>
        </g>
        <g id="Grupo_142185" data-name="Grupo 142185" transform="translate(44.51 128.318)">
          <g id="Grupo_142184" data-name="Grupo 142184" clip-path="url(#clip-path-11)">
            <path id="Trazado_157234" data-name="Trazado 157234" d="M124.082,240.988l-49.755-28.87c-1.931-1.122-3.13-3.507-3.14-6.893l49.755,28.87c.009,3.386,1.209,5.77,3.14,6.893" transform="translate(-71.187 -205.226)" fill="#beafbe"/>
          </g>
        </g>
        <g id="Grupo_142187" data-name="Grupo 142187">
          <g id="Grupo_142186" data-name="Grupo 142186" clip-path="url(#clip-path-2)">
            <path id="Trazado_157236" data-name="Trazado 157236" d="M120.932,230.578l-49.755-28.87-.016-5.87,49.755,28.87Z" transform="translate(-26.668 -73.39)" fill="#beafbe"/>
            <path id="Trazado_157237" data-name="Trazado 157237" d="M66.174,184.9l49.755,28.87c1.918,1.114,3.109,3.481,3.118,6.841l-49.755-28.87c-.01-3.36-1.2-5.727-3.118-6.841" transform="translate(-24.799 -69.29)" fill="#f0f0f2"/>
          </g>
        </g>
        <g id="Grupo_142189" data-name="Grupo 142189" transform="translate(41.375 115.606)">
          <g id="Grupo_142188" data-name="Grupo 142188" clip-path="url(#clip-path-13)">
            <path id="Trazado_157238" data-name="Trazado 157238" d="M119.046,220.607l-6.226-3.618L69.291,191.737c-.009-3.36-1.2-5.727-3.118-6.841l49.755,28.87c1.918,1.114,3.109,3.481,3.118,6.841" transform="translate(-66.173 -184.896)" fill="#beafbe"/>
          </g>
        </g>
        <g id="Grupo_142191" data-name="Grupo 142191">
          <g id="Grupo_142190" data-name="Grupo 142190" clip-path="url(#clip-path-2)">
            <path id="Trazado_157240" data-name="Trazado 157240" d="M153.93,189.962l-49.755-28.87-.119-41.789,49.756,28.87Z" transform="translate(-38.995 -44.709)" fill="#fff"/>
            <path id="Trazado_157241" data-name="Trazado 157241" d="M153.812,122.979l-49.755-28.87c-.044-15.428,10.846-34.286,24.27-42.036l49.755,28.87c-13.424,7.75-24.313,26.608-24.27,42.036" transform="translate(-38.995 -19.514)" fill="#f0f0f2"/>
          </g>
        </g>
        <g id="Grupo_142193" data-name="Grupo 142193" transform="translate(65.061 32.559)">
          <g id="Grupo_142192" data-name="Grupo 142192" clip-path="url(#clip-path-15)">
            <path id="Trazado_157242" data-name="Trazado 157242" d="M153.812,129.176l-49.755-28.87c-.03-10.5,5.009-22.6,12.466-31.7l49.755,28.87c-7.457,9.1-12.5,21.191-12.466,31.7" transform="translate(-104.056 -58.271)" fill="#fff"/>
            <path id="Trazado_157243" data-name="Trazado 157243" d="M173.748,91.283l-49.755-28.87a44.31,44.31,0,0,1,11.8-10.341l49.755,28.87a44.3,44.3,0,0,0-11.8,10.341" transform="translate(-111.527 -52.073)" fill="#fff"/>
          </g>
        </g>
        <g id="Grupo_142195" data-name="Grupo 142195">
          <g id="Grupo_142194" data-name="Grupo 142194" clip-path="url(#clip-path-2)">
            <path id="Trazado_157245" data-name="Trazado 157245" d="M49.755,292.883,0,264.013,6.429,260.3l49.754,28.87Z" transform="translate(0 -97.548)" fill="#fff"/>
            <path id="Trazado_157246" data-name="Trazado 157246" d="M49.758,296.071,0,267.2l0-.963,49.755,28.87Z" transform="translate(0 -99.773)" fill="#f0f0f2"/>
            <path id="Trazado_157247" data-name="Trazado 157247" d="M168.907,98.246l0,.96c-12.965,7.485-23.476,25.7-23.434,40.592l.118,41.789c.019,6.816-4.79,15.143-10.719,18.566s-10.77.667-10.789-6.148l-.016-5.87c-.019-6.764-4.825-9.5-10.711-6.1s-10.664,11.67-10.644,18.433c.03,10.622-7.462,23.6-16.707,28.94l-6.428,3.711,0-.963L86,228.441c8.782-5.07,15.9-17.4,15.874-27.494-.021-7.295,5.126-16.21,11.477-19.876s11.528-.713,11.549,6.581l.017,5.87c.018,6.286,4.481,8.829,9.951,5.671s9.9-10.837,9.884-17.122l-.119-41.789c-.043-15.428,10.846-34.286,24.27-42.036" transform="translate(-29.821 -36.818)" fill="#d7cbd4"/>
            <path id="Trazado_157248" data-name="Trazado 157248" d="M45.82,182.8l49.755,28.87c-2.095-1.217-4.993-1.049-8.188.8-6.351,3.666-11.5,12.581-11.476,19.875.028,10.092-7.092,22.425-15.874,27.495l-49.755-28.87c8.782-5.071,15.9-17.4,15.874-27.495-.021-7.294,5.126-16.209,11.476-19.875,3.2-1.844,6.094-2.013,8.188-.8" transform="translate(-3.853 -68.213)" fill="#f0f0f2"/>
          </g>
        </g>
        <g id="Grupo_142197" data-name="Grupo 142197" transform="translate(6.429 113.809)">
          <g id="Grupo_142196" data-name="Grupo 142196" clip-path="url(#clip-path-17)">
            <path id="Trazado_157249" data-name="Trazado 157249" d="M60.036,285.118l-49.755-28.87A28.982,28.982,0,0,0,18,249.484l49.755,28.87a28.992,28.992,0,0,1-7.722,6.764" transform="translate(-10.282 -207.303)" fill="#fff"/>
            <path id="Trazado_157250" data-name="Trazado 157250" d="M72.386,256.947l-49.755-28.87c4.877-5.949,8.171-13.859,8.152-20.73-.014-4.966,2.367-10.684,5.892-14.985l49.755,28.87c-3.525,4.3-5.907,10.018-5.892,14.984.019,6.871-3.275,14.781-8.152,20.73" transform="translate(-14.91 -185.897)" fill="#fff"/>
            <path id="Trazado_157251" data-name="Trazado 157251" d="M94.849,217.465,45.094,188.6a20.953,20.953,0,0,1,5.584-4.892,11.987,11.987,0,0,1,3.493-1.394l49.755,28.87a11.988,11.988,0,0,0-3.493,1.394,20.952,20.952,0,0,0-5.584,4.892" transform="translate(-23.328 -182.13)" fill="#fff"/>
            <path id="Trazado_157252" data-name="Trazado 157252" d="M109.367,211.071,59.612,182.2a6.5,6.5,0,0,1,4.694.6l49.755,28.87a6.506,6.506,0,0,0-4.694-.6" transform="translate(-28.768 -182.022)" fill="#f0f0f2"/>
          </g>
        </g>
        <g id="Grupo_142199" data-name="Grupo 142199">
          <g id="Grupo_142198" data-name="Grupo 142198" clip-path="url(#clip-path-2)">
            <path id="Trazado_157254" data-name="Trazado 157254" d="M151.007,222.165q.286-.772.513-1.563c.08-.281.153-.563.221-.847.033-.14.066-.28.1-.421.02-.094.156-.488.109-.565-.013-.022-.061-.026-.079-.046a2.826,2.826,0,0,0-.623-.362l-2.881-1.674-10.43-6.061-13.1-7.611-11.5-6.681-3.814-2.217-1.191-.692a2.465,2.465,0,0,0-.624-.363.323.323,0,0,1-.078-.046,19.459,19.459,0,0,1-.673,2.631c-.061.184-.328.638-.226.788.086.125.41.238.538.313l2.775,1.613,10.344,6.011,13.215,7.679,11.6,6.741,5.724,3.326.079.046" transform="translate(-39.99 -72.333)" fill="#d7cbd4"/>
            <path id="Trazado_157255" data-name="Trazado 157255" d="M142.34,226.95Z" transform="translate(-53.342 -85.05)" fill="#d7cbd4"/>
            <path id="Trazado_157256" data-name="Trazado 157256" d="M152.727,151.753,108.41,126l.076,26.779L152.8,178.533Zm-32.866-13.6,2.39,1.389,1.09-1.8L138,146.26l1.107,3.081,2.39,1.389.052,18.2-21.636-12.573Z" transform="translate(-40.627 -47.218)" fill="#ffd99d"/>
            <path id="Trazado_157257" data-name="Trazado 157257" d="M152.835,208.4l-44.314-25.588.008,4.072,44.315,25.753Z" transform="translate(-40.668 -68.508)" fill="#d7cbd4"/>
            <path id="Trazado_157258" data-name="Trazado 157258" d="M152.835,197.967l-44.314-25.588.008,4.072L152.844,202.2Z" transform="translate(-40.668 -64.599)" fill="#d7cbd4"/>
            <path id="Trazado_157259" data-name="Trazado 157259" d="M130.717,149.843l-1.651-.959c-.306-.178-.558-.031-.556.327a1.258,1.258,0,0,0,.56.977l1.651.959c.306.178.555.029.554-.328a1.248,1.248,0,0,0-.558-.975" transform="translate(-48.159 -55.766)" fill="#ffd99d"/>
            <path id="Trazado_157260" data-name="Trazado 157260" d="M140.557,159.1c-3.216-1.869-5.812-.341-5.8,3.413A13.048,13.048,0,0,0,140.6,172.7c3.216,1.869,5.815.34,5.8-3.414a13.051,13.051,0,0,0-5.843-10.18" transform="translate(-50.5 -59.324)" fill="#ffd99d"/>
            <path id="Trazado_157261" data-name="Trazado 157261" d="M148.359,157.768l-2.39-1.389-1.107-3.081L130.2,144.78l-1.09,1.8-2.39-1.389.051,18.2,21.636,12.573Zm-18.307-8.132-1.651-.959a1.259,1.259,0,0,1-.56-.976c0-.358.25-.505.556-.327l1.65.959a1.248,1.248,0,0,1,.558.975c0,.358-.248.506-.554.328m7.534,17.991a13.048,13.048,0,0,1-5.84-10.181c-.011-3.754,2.586-5.282,5.8-3.413a13.051,13.051,0,0,1,5.843,10.18c.011,3.754-2.588,5.283-5.8,3.414" transform="translate(-47.49 -54.256)" fill="#f0f0f2"/>
            <path id="Trazado_157262" data-name="Trazado 157262" d="M180.331,88.336a50.8,50.8,0,0,0-9.534,10.59c-.593.865-1.165,1.745-1.731,2.628l8.947,5.2,4.474,2.6.542.315c.138.081.2.166.316.086.091-.062.175-.285.231-.374q.171-.274.345-.545c.381-.6.775-1.184,1.175-1.769.883-1.291,7.433-8.884,9.459-10.465q-7.111-4.133-14.223-8.265" transform="translate(-63.357 -33.104)" fill="#f57c00"/>
            <path id="Trazado_157263" data-name="Trazado 157263" d="M151.148,92.5,123.136,76.221c-.044.063-.09.124-.134.188q-.392.559-.771,1.13c-.068.1-.138.2-.205.3l-.1.158q-.477.731-.935,1.474l-.034.058,28.014,16.28c.632-1.008,1.515-2.326,2.18-3.313" transform="translate(-45.327 -28.564)" fill="#d7cbd4"/>
            <path id="Trazado_157264" data-name="Trazado 157264" d="M155.966,87.393,127.946,71.109c-.139.169-.278.338-.416.509-.083.1-.168.206-.251.311l28.014,16.28c.206-.254.435-.531.673-.815" transform="translate(-47.698 -26.648)" fill="#d7cbd4"/>
            <path id="Trazado_157265" data-name="Trazado 157265" d="M156.366,86.106c.612-.731,1.292-1.519,1.844-2.153L130.2,67.675l-.244.268q-.391.435-.775.88c-.14.164-.281.326-.42.491s-.276.338-.415.507Z" transform="translate(-48.097 -25.361)" fill="#d7cbd4"/>
            <path id="Trazado_157266" data-name="Trazado 157266" d="M165.312,76.62,137.3,60.342c-.106.087-.211.177-.316.266-.3.253-.6.508-.892.77-.158.141-.316.285-.473.429q-.42.385-.833.782l-.275.266,28.011,16.278c.816-.776,1.942-1.77,2.789-2.512" transform="translate(-50.408 -22.613)" fill="#d7cbd4"/>
            <path id="Trazado_157267" data-name="Trazado 157267" d="M160.09,114.84c.049-.106.1-.215.149-.322.026-.055.053-.109.079-.164q.251-.531.515-1.057l.1-.2.126-.246q.33-.649.675-1.291l.039-.07.011-.019c.01-.019.019-.038.03-.057-14.652-8.792-29.543-17.17-44.316-25.754-.011.021-.023.039-.033.059q-.416.768-.808,1.546c-.028.057-.057.113-.085.169-.054.109-.106.219-.16.328-.2.409-.4.82-.593,1.233-.032.069-.063.139-.1.209,14.651,8.79,29.542,17.167,44.313,25.752.018-.039.038-.078.056-.118" transform="translate(-43.366 -32.102)" fill="#d7cbd4"/>
            <path id="Trazado_157268" data-name="Trazado 157268" d="M152.726,144.5c0-.1.008-.206.011-.308,0-.023,0-.044,0-.067,0-.082,0-.163.009-.245,0-.108.009-.216.015-.324s.015-.245.023-.368c.013-.194.025-.389.041-.585,0-.041.005-.081.009-.122.007-.089.017-.179.024-.268s.016-.2.026-.3c-14.241-9.494-29.54-17.167-44.31-25.75-.014.147-.032.3-.045.442-.007.083-.015.166-.021.248h0c-.032.4-.055.8-.073,1.2-.005.113-.01.226-.014.34-.016.434-.026.867-.024,1.3l44.317,25.754c0-.31,0-.622.011-.935" transform="translate(-40.622 -43.531)" fill="#d7cbd4"/>
            <path id="Trazado_157269" data-name="Trazado 157269" d="M153.6,135.225c.052-.3.106-.607.165-.911.021-.111.044-.221.066-.332.028-.135.053-.271.081-.406,0-.016.006-.033.009-.049.048-.224.1-.449.151-.673.02-.088.039-.174.059-.262.057-.244.118-.49.179-.734.012-.051.023-.1.036-.153-15.311-7.655-29.541-17.167-44.311-25.751q-.048.185-.093.37-.137.554-.259,1.109c-.046.208-.091.416-.133.623-.079.385-.151.768-.218,1.152-.024.135-.05.271-.073.406,14.651,8.79,29.542,17.168,44.313,25.752.008-.046.019-.094.027-.14" transform="translate(-40.944 -39.706)" fill="#d7cbd4"/>
            <path id="Trazado_157270" data-name="Trazado 157270" d="M156.125,124.935c.063-.2.126-.4.193-.593.031-.094.065-.189.1-.284.083-.244.167-.49.254-.734.023-.067.049-.133.073-.2l.068-.184c.039-.108.078-.215.118-.323q.21-.566.433-1.13c.007-.018.013-.036.021-.054-15.312-7.656-29.543-17.168-44.315-25.753-.049.123-.094.246-.143.368-.16.41-.316.819-.465,1.23-.074.2-.144.406-.214.608q-.194.554-.375,1.11c-.037.115-.074.23-.11.346,14.651,8.79,29.541,17.167,44.311,25.751.017-.053.037-.106.054-.159" transform="translate(-41.882 -35.856)" fill="#d7cbd4"/>
            <path id="Trazado_157271" data-name="Trazado 157271" d="M102.162,207.018l-.028.037.028-.037" transform="translate(-38.275 -77.58)" fill="#d7cbd4"/>
            <path id="Trazado_157272" data-name="Trazado 157272" d="M102.983,205.787l-.031.048c.011-.016.022-.031.032-.048h0" transform="translate(-38.581 -77.119)" fill="#d7cbd4"/>
            <path id="Trazado_157273" data-name="Trazado 157273" d="M65.161,184.524c-.071,0-.141,0-.213,0-.087,0-.174,0-.262.01h-.028c-.111.007-.223.018-.335.031-.1.01-.191.019-.288.033-.118.017-.238.039-.358.061l-.206.04c-.038.008-.075.013-.113.022l-.024.006c-.062.014-.124.031-.187.046-.133.033-.267.068-.4.107l-.088.027q3.67,2.234,7.37,4.417,8.421,4.989,16.926,9.835c.054-.073.108-.146.162-.22.076-.1.151-.209.226-.316l.026-.038.033-.044.121-.179.136-.2c.028-.042.056-.083.083-.124l.112-.172.03-.048c-7.574-4.43-15.134-8.885-22.722-13.295" transform="translate(-23.481 -69.15)" fill="#d7cbd4"/>
            <path id="Trazado_157274" data-name="Trazado 157274" d="M102.423,206.539c.046-.067.091-.134.136-.2-.045.068-.091.136-.136.2" transform="translate(-38.383 -77.324)" fill="#d7cbd4"/>
            <path id="Trazado_157275" data-name="Trazado 157275" d="M102.21,206.946l-.032.045c.01-.016.021-.03.032-.045" transform="translate(-38.291 -77.553)" fill="#d7cbd4"/>
            <path id="Trazado_157276" data-name="Trazado 157276" d="M102.445,205.788c-.01.016-.021.031-.031.048l-.112.171-.083.124-.136.2c-.041.059-.081.12-.122.179l-.031.045-.027.037c-.075.106-.15.211-.226.316-.054.074-.107.148-.161.221,6.676,3.827,13.363,7.633,20.016,11.5.013,0,.025-.006.038-.01l.044-.012.029-.009.093-.028.08-.02c.1-.027.193-.051.29-.074l.118-.028.061-.014.031-.007.029-.007c.038-.008.073-.011.109-.019l.073-.013c.094-.018.191-.039.284-.053h.011c.038-.006.074-.009.111-.014.066-.009.132-.016.2-.024s.144-.019.214-.026l.052,0h0c.049,0,.1-.005.147-.008s.124-.008.186-.01c.042,0,.084-.006.126-.006h.1l.071,0c-7.232-4.087-14.413-8.259-21.583-12.452" transform="translate(-38.043 -77.119)" fill="#d7cbd4"/>
            <path id="Trazado_157277" data-name="Trazado 157277" d="M142.339,226.949h0" transform="translate(-53.341 -85.049)" fill="#d7cbd4"/>
            <path id="Trazado_157278" data-name="Trazado 157278" d="M77.663,266.292q.536-.983,1.012-2c.169-.359.336-.718.493-1.083.046-.106.091-.222.091-.222l-.268-.158-.677-.395-4.673-2.723q-4.672-2.721-9.347-5.437-9.384-5.453-18.773-10.9L34.95,237.241c-.306.715-.637,1.421-.986,2.116a5.832,5.832,0,0,0-.527,1.016c-.053.215-.144.132.107.286l.655.4q2.323,1.423,4.659,2.824,4.672,2.8,9.387,5.533c6.237,3.622,12.511,7.179,18.775,10.755q5.331,3.042,10.643,6.119" transform="translate(-12.508 -88.906)" fill="#beafbe"/>
            <path id="Trazado_157279" data-name="Trazado 157279" d="M64.743,283a30.711,30.711,0,0,0,2.537-2.413q-9.375-5.47-18.762-10.917t-18.773-10.9l-5.286-3.07-1.287-.748c-.257-.149-.254-.065-.445.133-.173.179-.346.358-.523.533-.571.563-1.159,1.112-1.77,1.631q8.714,4.88,17.328,9.933,8.627,5.033,17.225,10.112,4.873,2.862,9.757,5.706" transform="translate(-7.657 -95.514)" fill="#beafbe"/>
            <path id="Trazado_157280" data-name="Trazado 157280" d="M71.815,275.309q1.139-1.429,2.136-2.966-9.342-5.45-18.7-10.879T36.549,250.605l-5.286-3.07-1.287-.748c-.077-.045-.186-.149-.271-.158-.133-.013-.124.045-.219.189q-.186.283-.377.563-.762,1.115-1.605,2.176,8.631,5.035,17.271,10.052t17.282,10.032q4.88,2.832,9.758,5.667" transform="translate(-10.307 -92.424)" fill="#beafbe"/>
            <path id="Trazado_157281" data-name="Trazado 157281" d="M59.871,287.44c.181-.117.359-.24.537-.362q-9-5.251-18.016-10.484-8.945-5.2-17.891-10.386l-5.083-2.951L16.911,261.8l-.61-.355c-.244-.142-.268-.075-.491.071-.39.256-.783.507-1.187.741l4.488,2.608,10.747,6.246,12.866,7.478,11.064,6.429,3.544,2.06,1.064.618a2.137,2.137,0,0,0,.508.3c.241.045.754-.416.966-.552" transform="translate(-5.48 -97.947)" fill="#beafbe"/>
            <path id="Trazado_157282" data-name="Trazado 157282" d="M55.592,191.449q-2.48-1.476-4.947-2.972a3.66,3.66,0,0,0-.667-.4c-.174-.053-.041-.1-.241-.008a1.561,1.561,0,0,0-.217.149c-.34.238-.672.49-.995.75a21.619,21.619,0,0,0-1.753,1.588,27.128,27.128,0,0,0-5.387,7.914,22.209,22.209,0,0,0-2.076,9.012,25.333,25.333,0,0,1-.466,4.539c-.138.721-.3,1.441-.5,2.148-.052.189-.106.378-.158.568-.063.222-.074.146.073.3a1.433,1.433,0,0,0,.27.158l1.287.748q10.062,5.847,20.129,11.686,10.03,5.823,20.053,11.66l2.437,1.421A27.865,27.865,0,0,0,83.61,233.9c.043-1.074.035-2.136.18-3.2a21.086,21.086,0,0,1,.582-2.817,27.144,27.144,0,0,1,5.161-9.852,21.658,21.658,0,0,1,4.625-4.285c-4.824-2.8-31.963-18.363-38.567-22.295" transform="translate(-14.295 -70.458)" fill="#f57c00"/>
            <path id="Trazado_157283" data-name="Trazado 157283" d="M85.46,217.893a29.545,29.545,0,0,0-3.992,6.574A20.029,20.029,0,0,0,80.3,227.9a31.507,31.507,0,0,0-.608,4.293c-.146,1.66-.248,3.327-.514,4.974l-11.63-6.758-5.814-3.379-2.907-1.689-.743-.432-.271-.157c-.2-.118-.236-.084-.249-.3a11.355,11.355,0,0,1,.18-1.611c.189-2.1.237-4.228.618-6.311a22.357,22.357,0,0,1,1.993-5.806,29.323,29.323,0,0,1,2.954-4.744c.122-.16.332-.57.511-.654.142-.066-.092-.069.154-.011a1.517,1.517,0,0,1,.313.181l1.237.719.54.314c.245.143.323.053.561-.073.343-.181.688-.356,1.039-.524q.644-.308,1.3-.591c.081-.035.245-.145.328-.141.127.006.36.209.473.275l4.053,2.355,7.546,4.385,1.26.732.6.347a2.715,2.715,0,0,1,.663.385c.121.168-.186.792-.266,1.036-.094.291-.181.585-.263.88-.053.189-.106.378-.158.567-.014.053-.1.23-.076.278s.208.121.253.147l2.138,1.242-.054.069" transform="translate(-21.572 -76.897)" fill="#f0f0f2"/>
            <path id="Trazado_157284" data-name="Trazado 157284" d="M67.115,209.113c-.006.019-.012.038-.017.058a.705.705,0,0,0-.026.149v.011a.682.682,0,0,0,.014.158c0,.016.006.032.011.048s.014.039.022.058a.651.651,0,0,0,.109.178.686.686,0,0,0,.055.052c.064.043.249.153.875.516.647.376.835.484.906.519a.626.626,0,0,0,.3.034l.052-.006c.023,0,.045-.011.068-.016a.892.892,0,0,0,.13-.047c.025-.012.049-.026.074-.04a.823.823,0,0,0,.078-.051.836.836,0,0,0,.074-.058c.014-.013.026-.026.039-.039a.963.963,0,0,0,.1-.11.521.521,0,0,0,.029-.043.843.843,0,0,0,.144-.523h0a.48.48,0,0,0-.021-.094.426.426,0,0,0-.015-.045.515.515,0,0,0-.086-.144,6.713,6.713,0,0,0-.961-.605,7.4,7.4,0,0,0-1.006-.54.678.678,0,0,0-.184-.013.69.69,0,0,0-.071.008.8.8,0,0,0-.086.018c-.018.006-.036.013-.054.02a.916.916,0,0,0-.313.2l-.02.018c-.024.025-.047.053-.07.08a.976.976,0,0,0-.064.089l-.019.031a.841.841,0,0,0-.057.131" transform="translate(-25.135 -78.142)" fill="#f57c00"/>
            <path id="Trazado_157285" data-name="Trazado 157285" d="M78.905,229.459c1.243-4.816.4-8-1.31-9.769a7.935,7.935,0,0,0-.982-.8,5.586,5.586,0,0,0-1.6-.678,6.255,6.255,0,0,0-2.954-.06l-.031.007c-.136.032-.273.068-.408.109h0a6.734,6.734,0,0,0-4.314,4.312,7.111,7.111,0,0,0-.185.753,7.837,7.837,0,0,0,.356,3.721,16.015,16.015,0,0,0,2.008,3.741,8.724,8.724,0,0,0,3.908,3.159c.133.036.263.061.392.083a3.715,3.715,0,0,0,1.881-.183,4.987,4.987,0,0,0,2.316-2.133,9.986,9.986,0,0,0,.923-2.258" transform="translate(-25.12 -81.695)" fill="#f57c00"/>
            <path id="Trazado_157286" data-name="Trazado 157286" d="M240.568,204.51l-1.192.692a2.1,2.1,0,0,0,.874-1.923l1.192-.693a2.1,2.1,0,0,1-.874,1.924" transform="translate(-89.706 -75.919)" fill="#ded2da"/>
          </g>
        </g>
        <g id="Grupo_142201" data-name="Grupo 142201" transform="translate(149.67 126.667)">
          <g id="Grupo_142200" data-name="Grupo 142200" clip-path="url(#clip-path-19)">
            <path id="Trazado_157287" data-name="Trazado 157287" d="M240.25,203.278l1.192-.692a2.1,2.1,0,0,1-.874,1.923l-1.192.693a2.1,2.1,0,0,0,.874-1.924" transform="translate(-239.376 -202.586)" fill="#ded2da"/>
          </g>
        </g>
        <g id="Grupo_142203" data-name="Grupo 142203">
          <g id="Grupo_142202" data-name="Grupo 142202" clip-path="url(#clip-path-2)">
            <path id="Trazado_157289" data-name="Trazado 157289" d="M205.335,130.717l1.192-.693a2.116,2.116,0,0,1,2.133.209l-1.192.692a2.115,2.115,0,0,0-2.133-.209" transform="translate(-76.949 -48.651)" fill="#f0f0f2"/>
          </g>
        </g>
        <g id="Grupo_142205" data-name="Grupo 142205" transform="translate(128.386 81.171)">
          <g id="Grupo_142204" data-name="Grupo 142204" clip-path="url(#clip-path-21)">
            <path id="Trazado_157290" data-name="Trazado 157290" d="M205.335,130.717l1.192-.693a2.116,2.116,0,0,1,2.133.209l-1.192.692a2.115,2.115,0,0,0-2.133-.209" transform="translate(-205.335 -129.822)" fill="#f0f0f2"/>
          </g>
        </g>
        <g id="Grupo_142207" data-name="Grupo 142207">
          <g id="Grupo_142206" data-name="Grupo 142206" clip-path="url(#clip-path-2)">
            <path id="Trazado_157292" data-name="Trazado 157292" d="M240.859,155.261l1.192-.693-.085,30.023-1.192.693Z" transform="translate(-90.23 -57.925)" fill="#ded2da"/>
            <path id="Trazado_157293" data-name="Trazado 157293" d="M208.747,131.173l1.192-.692,17.121,9.885-1.192.693Z" transform="translate(-78.228 -48.898)" fill="#f0f0f2"/>
            <path id="Trazado_157294" data-name="Trazado 157294" d="M236.13,146.982l1.192-.692a6.587,6.587,0,0,1,2.989,5.176l-1.192.693a6.589,6.589,0,0,0-2.989-5.176" transform="translate(-88.49 -54.822)" fill="#f0f0f2"/>
          </g>
        </g>
        <g id="Grupo_142209" data-name="Grupo 142209" transform="translate(147.64 91.468)">
          <g id="Grupo_142208" data-name="Grupo 142208" clip-path="url(#clip-path-23)">
            <path id="Trazado_157295" data-name="Trazado 157295" d="M236.13,146.982l1.192-.692a5.43,5.43,0,0,1,1.419,1.23l-1.192.693a5.444,5.444,0,0,0-1.419-1.23" transform="translate(-236.13 -146.29)" fill="#f0f0f2"/>
            <path id="Trazado_157296" data-name="Trazado 157296" d="M238.4,148.95l1.192-.693a6.54,6.54,0,0,1,1.569,3.946l-1.192.693a6.536,6.536,0,0,0-1.569-3.946" transform="translate(-236.981 -147.027)" fill="#f0f0f2"/>
          </g>
        </g>
        <g id="Grupo_142211" data-name="Grupo 142211">
          <g id="Grupo_142210" data-name="Grupo 142210" clip-path="url(#clip-path-2)">
            <path id="Trazado_157298" data-name="Trazado 157298" d="M224.014,141.226A6.589,6.589,0,0,1,227,146.4l-.085,30.023c-.006,1.9-1.351,2.671-3.008,1.714l-17.122-9.885a6.583,6.583,0,0,1-2.988-5.176l.084-30.023c.006-1.9,1.351-2.671,3.009-1.714Z" transform="translate(-76.374 -49.066)" fill="#f0eaee"/>
            <path id="Trazado_157299" data-name="Trazado 157299" d="M206.568,156.449v1.306l19.742,11.4v-1.306Z" transform="translate(-77.411 -58.629)" fill="#d7cbd4"/>
            <path id="Trazado_157300" data-name="Trazado 157300" d="M206.568,135.5v2.631l19.742,11.4V146.9Z" transform="translate(-77.411 -50.78)" fill="#d7cbd4"/>
            <path id="Trazado_157301" data-name="Trazado 157301" d="M206.568,167.434v1.307l19.742,11.4v-1.306Z" transform="translate(-77.411 -62.746)" fill="#d7cbd4"/>
            <path id="Trazado_157302" data-name="Trazado 157302" d="M206.568,163.773v1.306l19.742,11.4V175.17Z" transform="translate(-77.411 -61.374)" fill="#d7cbd4"/>
            <path id="Trazado_157303" data-name="Trazado 157303" d="M206.568,160.111v1.306l19.742,11.4v-1.306Z" transform="translate(-77.411 -60.002)" fill="#d7cbd4"/>
            <path id="Trazado_157304" data-name="Trazado 157304" d="M219.53,149.286v1.306l11.637,6.719V156Z" transform="translate(-82.269 -55.945)" fill="#d7cbd4"/>
            <path id="Trazado_157305" data-name="Trazado 157305" d="M219.53,160.271v1.306l11.637,6.719V166.99Z" transform="translate(-82.269 -60.061)" fill="#d7cbd4"/>
            <path id="Trazado_157306" data-name="Trazado 157306" d="M219.53,156.609v1.306l11.638,6.719v-1.306Z" transform="translate(-82.269 -58.689)" fill="#d7cbd4"/>
            <path id="Trazado_157307" data-name="Trazado 157307" d="M219.53,152.947v1.306l11.638,6.719v-1.307Z" transform="translate(-82.269 -57.317)" fill="#d7cbd4"/>
            <path id="Trazado_157308" data-name="Trazado 157308" d="M213.672,146.428l.074,1.855-.188-.108a3.463,3.463,0,0,0-.148-.77,2.388,2.388,0,0,0-.407-.722,2.472,2.472,0,0,0-.668-.543l-.943-.545v5.9a2.35,2.35,0,0,0,.133.967,1.466,1.466,0,0,0,.578.573l.232.134v.211l-2.839-1.639v-.211l.238.137q.424.246.6.051a1.519,1.519,0,0,0,.109-.77v-5.9l-.8-.465a2.489,2.489,0,0,0-.667-.305.466.466,0,0,0-.44.163,1.178,1.178,0,0,0-.217.707l-.188-.108.079-1.767Z" transform="translate(-77.996 -53.692)" fill="#cb6803"/>
            <path id="Trazado_157309" data-name="Trazado 157309" d="M218.205,178.257v1.307l-11.637-6.719v-1.306Z" transform="translate(-77.411 -64.284)" fill="#d7cbd4"/>
            <path id="Trazado_157310" data-name="Trazado 157310" d="M218.205,189.242v1.306l-11.637-6.718v-1.307Z" transform="translate(-77.411 -68.401)" fill="#d7cbd4"/>
            <path id="Trazado_157311" data-name="Trazado 157311" d="M218.205,185.581v1.306l-11.637-6.718v-1.307Z" transform="translate(-77.411 -67.028)" fill="#d7cbd4"/>
            <path id="Trazado_157312" data-name="Trazado 157312" d="M218.205,181.919v1.307l-11.637-6.719V175.2Z" transform="translate(-77.411 -65.656)" fill="#d7cbd4"/>
            <path id="Trazado_157313" data-name="Trazado 157313" d="M232.707,187.152l.079,1.858-.188-.108a2.794,2.794,0,0,0-.217-.958,2.173,2.173,0,0,0-.44-.67,3.466,3.466,0,0,0-.667-.465l-.8-.465v5.9a2.492,2.492,0,0,0,.109.9,1.394,1.394,0,0,0,.6.644l.237.137v.211L228.58,192.5v-.211l.232.134q.39.225.578.094.133-.1.133-.813v-5.9l-.943-.545a1.356,1.356,0,0,0-.669-.229.489.489,0,0,0-.408.253,1.676,1.676,0,0,0-.148.6l-.188-.108.074-1.77Z" transform="translate(-85.131 -68.953)" fill="#cb6803"/>
            <path id="Trazado_157314" data-name="Trazado 157314" d="M260.691,134.061l-1.362.791a2.4,2.4,0,0,0,1-2.2l1.362-.791a2.4,2.4,0,0,1-1,2.2" transform="translate(-97.184 -49.416)" fill="#d7cbd4"/>
          </g>
        </g>
        <g id="Grupo_142213" data-name="Grupo 142213" transform="translate(162.146 82.448)">
          <g id="Grupo_142212" data-name="Grupo 142212" clip-path="url(#clip-path-25)">
            <path id="Trazado_157315" data-name="Trazado 157315" d="M260.33,132.656l1.362-.792a2.4,2.4,0,0,1-1,2.2l-1.362.791a2.4,2.4,0,0,0,1-2.2" transform="translate(-259.33 -131.864)" fill="#d7cbd4"/>
          </g>
        </g>
        <g id="Grupo_142215" data-name="Grupo 142215">
          <g id="Grupo_142214" data-name="Grupo 142214" clip-path="url(#clip-path-2)">
            <path id="Trazado_157317" data-name="Trazado 157317" d="M231.626,89.491l1.362-.791a2.416,2.416,0,0,1,2.437.239l-1.362.791a2.416,2.416,0,0,0-2.437-.239" transform="translate(-86.802 -33.154)" fill="#f0f0f2"/>
          </g>
        </g>
        <g id="Grupo_142217" data-name="Grupo 142217" transform="translate(144.825 55.315)">
          <g id="Grupo_142216" data-name="Grupo 142216" clip-path="url(#clip-path-27)">
            <path id="Trazado_157318" data-name="Trazado 157318" d="M231.626,89.491l1.362-.791a2.416,2.416,0,0,1,2.437.239l-1.362.791a2.416,2.416,0,0,0-2.437-.239" transform="translate(-231.627 -88.469)" fill="#f0f0f2"/>
          </g>
        </g>
        <g id="Grupo_142219" data-name="Grupo 142219">
          <g id="Grupo_142218" data-name="Grupo 142218" clip-path="url(#clip-path-2)">
            <path id="Trazado_157320" data-name="Trazado 157320" d="M260.976,111.034l1.362-.791-.047,13.519-1.362.792Z" transform="translate(-97.783 -41.313)" fill="#d7cbd4"/>
            <path id="Trazado_157321" data-name="Trazado 157321" d="M235.524,90.012l1.362-.792L249.4,96.45l-1.361.791Z" transform="translate(-88.263 -33.435)" fill="#f0f0f2"/>
            <path id="Trazado_157322" data-name="Trazado 157322" d="M255.543,101.574l1.362-.791a7.525,7.525,0,0,1,3.414,5.914l-1.362.791a7.527,7.527,0,0,0-3.414-5.914" transform="translate(-95.765 -37.768)" fill="#f0f0f2"/>
          </g>
        </g>
        <g id="Grupo_142221" data-name="Grupo 142221" transform="translate(159.778 63.015)">
          <g id="Grupo_142220" data-name="Grupo 142220" clip-path="url(#clip-path-29)">
            <path id="Trazado_157323" data-name="Trazado 157323" d="M255.543,101.574l1.362-.791a6.21,6.21,0,0,1,1.621,1.406l-1.362.791a6.2,6.2,0,0,0-1.621-1.406" transform="translate(-255.543 -100.783)" fill="#f0f0f2"/>
            <path id="Trazado_157324" data-name="Trazado 157324" d="M258.136,103.823l1.362-.791a7.474,7.474,0,0,1,1.793,4.508l-1.362.792a7.468,7.468,0,0,0-1.793-4.509" transform="translate(-256.515 -101.626)" fill="#ded2da"/>
          </g>
        </g>
        <g id="Grupo_142223" data-name="Grupo 142223">
          <g id="Grupo_142222" data-name="Grupo 142222" clip-path="url(#clip-path-2)">
            <path id="Trazado_157326" data-name="Trazado 157326" d="M245.953,97.434a7.528,7.528,0,0,1,3.414,5.914l-.047,13.52c-.006,2.172-1.544,3.051-3.437,1.958l-12.517-7.23a7.526,7.526,0,0,1-3.414-5.914L230,92.163c.006-2.172,1.543-3.051,3.436-1.958Z" transform="translate(-86.174 -33.628)" fill="#f0eaee"/>
            <path id="Trazado_157327" data-name="Trazado 157327" d="M246.114,107.3c-2.775-4.094-7.273-6.691-10.048-5.8-2.348.753-2.709,3.762-1.084,7.15a7.959,7.959,0,0,1-1.352,2.7s2.909,1.275,3.764.884c2.735,3.077,6.353,4.855,8.72,4.1,2.774-.891,2.774-4.932,0-9.026" transform="translate(-87.553 -37.97)" fill="#fdd835"/>
            <path id="Trazado_157328" data-name="Trazado 157328" d="M240.449,111.045c0,.7-.49.982-1.1.633a2.423,2.423,0,0,1-1.1-1.9c0-.7.491-.982,1.1-.633a2.423,2.423,0,0,1,1.1,1.9" transform="translate(-89.287 -40.847)" fill="#f0f0f2"/>
            <path id="Trazado_157329" data-name="Trazado 157329" d="M245.716,114.085c0,.7-.491.982-1.1.633a2.423,2.423,0,0,1-1.1-1.9c0-.7.491-.982,1.1-.633a2.423,2.423,0,0,1,1.1,1.9" transform="translate(-91.261 -41.986)" fill="#f0f0f2"/>
            <path id="Trazado_157330" data-name="Trazado 157330" d="M250.982,117.125c0,.7-.491.983-1.1.633a2.424,2.424,0,0,1-1.1-1.9c0-.7.491-.982,1.1-.633a2.424,2.424,0,0,1,1.1,1.9" transform="translate(-93.234 -43.125)" fill="#f0f0f2"/>
            <path id="Trazado_157331" data-name="Trazado 157331" d="M117.472,5.336l1.167-.678a2.073,2.073,0,0,1,2.091.205l-1.167.678a2.074,2.074,0,0,0-2.091-.205" transform="translate(-44.023 -1.671)" fill="#cb6803"/>
          </g>
        </g>
        <g id="Grupo_142227" data-name="Grupo 142227">
          <g id="Grupo_142226" data-name="Grupo 142226" clip-path="url(#clip-path-2)">
            <path id="Trazado_157334" data-name="Trazado 157334" d="M153.651,51.168l-1.167.678a2.055,2.055,0,0,0,.857-1.884l1.167-.678a2.056,2.056,0,0,1-.857,1.884" transform="translate(-57.143 -18.469)" fill="#cb6803"/>
          </g>
        </g>
        <g id="Grupo_142231" data-name="Grupo 142231">
          <g id="Grupo_142230" data-name="Grupo 142230" clip-path="url(#clip-path-2)">
            <path id="Trazado_157337" data-name="Trazado 157337" d="M153.889,30.311l1.168-.678-.035,12.287-1.168.678Z" transform="translate(-57.657 -11.105)" fill="#db7206"/>
            <path id="Trazado_157338" data-name="Trazado 157338" d="M120.816,5.783l1.167-.678,17.765,10.265-1.167.679Z" transform="translate(-45.276 -1.913)" fill="#cb6803"/>
            <path id="Trazado_157339" data-name="Trazado 157339" d="M149.227,22.2l1.167-.678a6.451,6.451,0,0,1,2.928,5.071l-1.167.678a6.454,6.454,0,0,0-2.928-5.071" transform="translate(-55.923 -8.065)" fill="#5f639b"/>
          </g>
        </g>
        <g id="Grupo_142233" data-name="Grupo 142233" transform="translate(93.304 13.457)">
          <g id="Grupo_142238" data-name="Grupo 142238" transform="translate(0 0)">
            <path id="Trazado_157340" data-name="Trazado 157340" d="M149.227,22.2l1.167-.678a5.3,5.3,0,0,1,1.391,1.205l-1.167.678a5.323,5.323,0,0,0-1.391-1.205" transform="translate(-149.227 -21.522)" fill="#db7206"/>
            <path id="Trazado_157341" data-name="Trazado 157341" d="M151.451,24.128l1.167-.678a6.408,6.408,0,0,1,1.538,3.866l-1.168.678a6.4,6.4,0,0,0-1.537-3.866" transform="translate(-150.06 -22.245)" fill="#db7206"/>
          </g>
        </g>
        <g id="Grupo_142235" data-name="Grupo 142235">
          <g id="Grupo_142234" data-name="Grupo 142234" clip-path="url(#clip-path-2)">
            <path id="Trazado_157343" data-name="Trazado 157343" d="M136.792,16.213a6.454,6.454,0,0,1,2.928,5.071l-.035,12.287c-.005,1.865-1.326,2.615-2.947,1.679L118.974,24.985a6.45,6.45,0,0,1-2.928-5.071l.035-12.286c.005-1.866,1.324-2.617,2.947-1.68Z" transform="translate(-43.488 -2.078)" fill="#f57c00"/>
            <path id="Trazado_157344" data-name="Trazado 157344" d="M122.481,13.052v13.06l15.627,9.023V22.075l-1.726-1-.794-2.213L125,12.753l-.794,1.3Zm3.608,8.793c0-2.694,1.883-3.792,4.206-2.45A9.317,9.317,0,0,1,134.5,26.7c0,2.694-1.883,3.792-4.205,2.451a9.32,9.32,0,0,1-4.206-7.307m-2.8-7c0-.257.181-.363.4-.235l1.192.688a.9.9,0,0,1,.4.7c0,.258-.181.363-.4.235l-1.192-.688a.9.9,0,0,1-.4-.7" transform="translate(-45.9 -4.779)" fill="#f0f0f2"/>
          </g>
        </g>
      </g>
    </g>
  </g>
</svg>
