<svg xmlns="http://www.w3.org/2000/svg" xmlns:xlink="http://www.w3.org/1999/xlink" width="105" height="105" viewBox="0 0 105 105">
  <defs>
    <clipPath id="clip-path">
      <rect id="Rectángulo_38999" data-name="Rectángulo 38999" width="60.757" height="60.605" fill="#f57c00"/>
    </clipPath>
  </defs>
  <g id="Grupo_143430" data-name="Grupo 143430" transform="translate(-1220 -2658)">
    <g id="Grupo_142086" data-name="Grupo 142086" transform="translate(0 1790)">
      <g id="Elipse_4887" data-name="Elipse 4887" transform="translate(1220 868)" fill="#fff" stroke="#f57c00" stroke-width="3">
        <circle cx="52.5" cy="52.5" r="52.5" stroke="none"/>
        <circle cx="52.5" cy="52.5" r="51" fill="none"/>
      </g>
    </g>
    <g id="Grupo_143014" data-name="Grupo 143014" transform="translate(1242 2680)">
      <g id="Grupo_143014-2" data-name="Grupo 143014" clip-path="url(#clip-path)">
        <path id="Trazado_158151" data-name="Trazado 158151" d="M5.909,22.31c-1.134-1.125-2.238-2.226-3.349-3.318-.384-.377-.671-.772-.42-1.337a1.127,1.127,0,0,1,1.2-.617c3.859.007,7.718,0,11.576.005.949,0,1.294.346,1.294,1.3,0,3.86,0,7.719.005,11.579a1.127,1.127,0,0,1-.622,1.2c-.566.249-.96-.042-1.337-.423-.919-.931-1.846-1.852-2.773-2.775-.145-.145-.3-.279-.607-.559-.774,1.593-1.615,3.054-2.218,4.608A23.283,23.283,0,0,0,19.575,60.95c1.095.572,1.214.943.658,2.059-.638,1.282-1.272,2.566-1.918,3.844-.4.8-.879.974-1.642.568C7.611,62.6,2.082,55.154.421,45.017A29.372,29.372,0,0,1,5.689,22.661c.06-.085.11-.176.22-.351M5.472,19.1c.759.735,1.4,1.344,2.023,1.964,1.012,1,1.01,1.19.164,2.338A27.66,27.66,0,0,0,2.216,43.335a27.8,27.8,0,0,0,9.058,17.923,26.89,26.89,0,0,0,5.584,3.973l1.344-2.7c-.224-.135-.4-.245-.58-.35A25.332,25.332,0,0,1,9.474,26.08c1.095-1.607,1.406-1.637,2.774-.268l1.911,1.911V19.1Z" transform="translate(0 -9.966)" fill="#f57c00"/>
        <path id="Trazado_158152" data-name="Trazado 158152" d="M111.545,52.668c1.132,1.131,2.218,2.221,3.311,3.3.376.373.694.758.463,1.331-.241.6-.745.656-1.305.655-3.8-.008-7.591,0-11.386,0-1.081,0-1.4-.314-1.4-1.385q0-5.726,0-11.452c0-.542.079-1.016.641-1.252s.959.069,1.332.448c1.05,1.064,2.108,2.12,3.227,3.245.182-.267.338-.478.475-.7a23.315,23.315,0,0,0-9.1-32.849c-.991-.515-1.125-.919-.629-1.92.654-1.321,1.306-2.643,1.969-3.959.4-.787.878-.959,1.646-.547,9.385,5.027,14.949,12.79,16.37,23.351a29.472,29.472,0,0,1-5.338,21.318c-.082.119-.156.244-.269.419m-12.3-40.216c.24.15.45.286.664.414a25.313,25.313,0,0,1,7.743,36.5c-.709.992-1.24,1.047-2.084.183-.727-.743-1.431-1.507-2.145-2.262l-.125.125v8.479h8.481l.094-.13c-.681-.647-1.369-1.288-2.04-1.945-.863-.846-.869-1.117-.142-2.1a27.463,27.463,0,0,0,5.457-20.533c-1.2-9.238-5.937-16.231-13.891-21.055-.208-.126-.432-.225-.682-.353l-1.328,2.673" transform="translate(-56.673 -4.308)" fill="#f57c00"/>
        <path id="Trazado_158153" data-name="Trazado 158153" d="M43.942,48.886q0-6.42,0-12.84a4.064,4.064,0,0,1,4.382-4.374c4.152,0,8.3.007,12.457-.009a1.739,1.739,0,0,1,1.344.552q2.776,2.813,5.589,5.591a1.679,1.679,0,0,1,.526,1.291Q68.225,50.45,68.232,61.8a4.053,4.053,0,0,1-4.279,4.288q-7.841.007-15.682,0a4.059,4.059,0,0,1-4.327-4.3q-.006-6.451,0-12.9M60.136,33.7h-.7q-5.566,0-11.132,0a2.074,2.074,0,0,0-2.341,2.327q0,12.843,0,25.686a2.084,2.084,0,0,0,2.374,2.358H63.774c1.685,0,2.435-.747,2.435-2.425q0-10.565,0-21.131V39.77c-1.635,0-3.21,0-4.785,0-.942,0-1.285-.351-1.287-1.305,0-1.559,0-3.117,0-4.768m2.051,3.993h2.3l-2.3-2.371Z" transform="translate(-25.703 -18.521)" fill="#f57c00"/>
        <path id="Trazado_158154" data-name="Trazado 158154" d="M58.227,5.711c.092,1.3-.153,1.575-1.1,1.748q-1.89.347-3.766.765c-.836.185-1.253,0-1.5-.794Q51.16,5.141,50.491,2.84a.961.961,0,0,1,.728-1.358Q53.892.887,56.588.4a.969.969,0,0,1,1.153.965c.186,1.567.352,3.136.486,4.351M52.682,3.128l.884,2.925,2.6-.542-.338-3.019-3.146.635" transform="translate(-29.494 -0.22)" fill="#f57c00"/>
        <path id="Trazado_158155" data-name="Trazado 158155" d="M77.809,0c1.786.374,3.576.731,5.355,1.134a.926.926,0,0,1,.754,1.244c-.434,1.645-.9,3.281-1.393,4.91a.982.982,0,0,1-1.261.66c-1.383-.254-2.765-.511-4.148-.764a.991.991,0,0,1-.938-1.13q.186-2.485.434-4.965c.065-.657.5-.99,1.2-1.089m.73,2.211-.264,3.04,2.609.468L81.707,2.8l-3.168-.589" transform="translate(-44.557)" fill="#f57c00"/>
        <path id="Trazado_158156" data-name="Trazado 158156" d="M77.16,129.423c-.09-1.273.168-1.571,1.05-1.735q1.919-.355,3.827-.777c.826-.182,1.241.009,1.49.814q.7,2.259,1.359,4.528c.215.733-.012,1.247-.733,1.41-1.781.4-3.574.755-5.371,1.082-.621.113-1.056-.3-1.137-.983-.186-1.567-.352-3.136-.485-4.34m2.063.2.332,3.027,3.153-.643-.887-2.912-2.6.528" transform="translate(-45.124 -74.199)" fill="#f57c00"/>
        <path id="Trazado_158157" data-name="Trazado 158157" d="M59.225,129.521c-.122,1.357-.251,2.845-.391,4.331-.072.766-.512,1.185-1.261,1.062-1.759-.29-3.512-.623-5.258-.987a.961.961,0,0,1-.79-1.331c.425-1.582.88-3.156,1.347-4.727a1,1,0,0,1,1.31-.763l4.148.764c.738.136.964.515.9,1.651m-2.06.278-2.617-.472-.819,2.926,3.159.58c.1-1.053.184-2.011.277-3.034" transform="translate(-30.105 -74.331)" fill="#f57c00"/>
        <rect id="Rectángulo_38989" data-name="Rectángulo 38989" width="10.064" height="1.94" transform="translate(24.356 23.311)" fill="#f57c00"/>
        <rect id="Rectángulo_38990" data-name="Rectángulo 38990" width="10.041" height="1.949" transform="translate(22.317 31.406)" fill="#f57c00"/>
        <rect id="Rectángulo_38991" data-name="Rectángulo 38991" width="8.017" height="1.952" transform="translate(30.434 27.366)" fill="#f57c00"/>
        <rect id="Rectángulo_38992" data-name="Rectángulo 38992" width="8.017" height="1.95" transform="translate(22.317 35.455)" fill="#f57c00"/>
        <rect id="Rectángulo_38993" data-name="Rectángulo 38993" width="5.993" height="1.947" transform="translate(22.339 27.368)" fill="#f57c00"/>
        <rect id="Rectángulo_38994" data-name="Rectángulo 38994" width="3.969" height="1.948" transform="translate(22.316 17.232)" fill="#f57c00"/>
        <rect id="Rectángulo_38995" data-name="Rectángulo 38995" width="3.98" height="1.947" transform="translate(34.462 31.417)" fill="#f57c00"/>
        <rect id="Rectángulo_38996" data-name="Rectángulo 38996" width="3.861" height="1.965" transform="translate(32.565 35.458)" fill="#f57c00"/>
        <rect id="Rectángulo_38997" data-name="Rectángulo 38997" width="3.857" height="1.962" transform="translate(33.579 39.509)" fill="#f57c00"/>
        <rect id="Rectángulo_38998" data-name="Rectángulo 38998" width="1.968" height="1.924" transform="translate(36.5 23.327)" fill="#f57c00"/>
      </g>
    </g>
  </g>
</svg>
