<svg xmlns="http://www.w3.org/2000/svg" xmlns:xlink="http://www.w3.org/1999/xlink" width="296" height="336.688" viewBox="0 0 296 336.688">
  <defs>
    <clipPath id="clip-path">
      <rect id="Rectángulo_39106" data-name="Rectángulo 39106" width="257.159" height="285.333" fill="none"/>
    </clipPath>
  </defs>
  <g id="Grupo_143591" data-name="Grupo 143591" transform="translate(-599.313 -407)">
    <rect id="Rectángulo_38198" data-name="Rectángulo 38198" width="296" height="336.688" transform="translate(599.313 407)" fill="#fff4c6"/>
    <g id="Grupo_143156" data-name="Grupo 143156" transform="translate(618.312 433)">
      <path id="Trazado_158454" data-name="Trazado 158454" d="M828.773,18.329H721.86v-17H828.773Zm-106.247-.666H828.108V2H722.526Z" transform="translate(-582.822 -1.075)" fill="#f4780e"/>
      <g id="Grupo_143155" data-name="Grupo 143155">
        <g id="Grupo_143154" data-name="Grupo 143154" clip-path="url(#clip-path)">
          <path id="Trazado_158455" data-name="Trazado 158455" d="M768.108,20.843a2.182,2.182,0,1,1-2.182-2.182,2.182,2.182,0,0,1,2.182,2.182" transform="translate(-616.638 -15.067)" fill="#f4780e"/>
          <path id="Trazado_158456" data-name="Trazado 158456" d="M757.019,49.009a5.657,5.657,0,0,0-11.312,0Z" transform="translate(-602.076 -35.093)" fill="#f4780e"/>
          <path id="Trazado_158457" data-name="Trazado 158457" d="M1070,1138.294a27.9,27.9,0,1,1-27.9-27.9,27.9,27.9,0,0,1,27.9,27.9" transform="translate(-818.852 -896.518)" fill="#ef4647"/>
          <path id="Trazado_158458" data-name="Trazado 158458" d="M986.5,1082.9H983v-3.505h3.5Zm-2.839-.666h2.173v-2.173h-2.173Z" transform="translate(-793.664 -871.488)" fill="#f4780e"/>
          <path id="Trazado_158459" data-name="Trazado 158459" d="M1320.43,1082.9h-3.5v-3.505h3.5Zm-2.839-.666h2.173v-2.173h-2.173Z" transform="translate(-1063.271 -871.488)" fill="#f4780e"/>
          <path id="Trazado_158460" data-name="Trazado 158460" d="M1153.467,1082.7h-3.5v-3.5h3.5Zm-2.839-.666h2.173v-2.173h-2.173Z" transform="translate(-928.467 -871.331)" fill="#f4780e"/>
          <path id="Trazado_158461" data-name="Trazado 158461" d="M1153.467,1416.169h-3.5v-3.505h3.5Zm-2.839-.666h2.173v-2.173h-2.173Z" transform="translate(-928.467 -1140.57)" fill="#f4780e"/>
          <path id="Trazado_158462" data-name="Trazado 158462" d="M1320.43,1249.53h-3.5v-3.505h3.5Zm-2.839-.666h2.173v-2.173h-2.173Z" transform="translate(-1063.271 -1006.027)" fill="#f4780e"/>
          <path id="Trazado_158463" data-name="Trazado 158463" d="M1320.43,1416.169h-3.5v-3.505h3.5Zm-2.839-.666h2.173v-2.173h-2.173Z" transform="translate(-1063.271 -1140.57)" fill="#f4780e"/>
          <path id="Trazado_158464" data-name="Trazado 158464" d="M986.5,1416.169H983v-3.505h3.5Zm-2.839-.666h2.173v-2.173h-2.173Z" transform="translate(-793.664 -1140.57)" fill="#f4780e"/>
          <path id="Trazado_158465" data-name="Trazado 158465" d="M986.5,1249.435H983v-3.5h3.5Zm-2.839-.666h2.173V1246.6h-2.173Z" transform="translate(-793.664 -1005.951)" fill="#f4780e"/>
          <rect id="Rectángulo_39068" data-name="Rectángulo 39068" width="29.336" height="0.666" transform="translate(224.669 273.514)" fill="#f4780e"/>
          <rect id="Rectángulo_39069" data-name="Rectángulo 39069" width="0.666" height="29.257" transform="translate(255.073 243.17)" fill="#f4780e"/>
          <rect id="Rectángulo_39070" data-name="Rectángulo 39070" width="0.666" height="29.294" transform="translate(255.073 211.037)" fill="#f4780e"/>
          <rect id="Rectángulo_39071" data-name="Rectángulo 39071" width="29.318" height="0.666" transform="translate(224.67 209.322)" fill="#f4780e"/>
          <rect id="Rectángulo_39072" data-name="Rectángulo 39072" width="29.335" height="0.666" transform="translate(192.495 209.322)" fill="#f4780e"/>
          <rect id="Rectángulo_39073" data-name="Rectángulo 39073" width="0.666" height="29.237" transform="translate(190.756 211.075)" fill="#f4780e"/>
          <rect id="Rectángulo_39074" data-name="Rectángulo 39074" width="0.666" height="29.276" transform="translate(190.756 243.151)" fill="#f4780e"/>
          <rect id="Rectángulo_39075" data-name="Rectángulo 39075" width="29.32" height="0.666" transform="translate(192.507 273.514)" fill="#f4780e"/>
          <path id="Trazado_158466" data-name="Trazado 158466" d="M620.468,943.391a9.441,9.441,0,1,1,9.441-9.441,9.441,9.441,0,0,1-9.441,9.441" transform="translate(-493.337 -746.438)" fill="#f4780e"/>
          <path id="Trazado_158467" data-name="Trazado 158467" d="M620.468,1139.464a9.441,9.441,0,1,1,9.441-9.441,9.441,9.441,0,0,1-9.441,9.441" transform="translate(-493.337 -904.745)" fill="#f4780e"/>
          <path id="Trazado_158468" data-name="Trazado 158468" d="M522.432,1038.635a9.441,9.441,0,1,1,9.441-9.441,9.441,9.441,0,0,1-9.441,9.441" transform="translate(-414.184 -823.337)" fill="#f4780e"/>
          <path id="Trazado_158469" data-name="Trazado 158469" d="M424.4,941.995a9.441,9.441,0,1,1,9.441-9.441,9.441,9.441,0,0,1-9.441,9.441" transform="translate(-335.029 -745.311)" fill="#f4780e"/>
          <path id="Trazado_158470" data-name="Trazado 158470" d="M424.4,1138.067a9.441,9.441,0,1,1,9.441-9.441,9.441,9.441,0,0,1-9.441,9.441" transform="translate(-335.029 -903.617)" fill="#f4780e"/>
          <path id="Trazado_158471" data-name="Trazado 158471" d="M326.359,1037.238a9.441,9.441,0,1,1,9.441-9.441,9.441,9.441,0,0,1-9.441,9.441" transform="translate(-255.876 -822.209)" fill="#f4780e"/>
          <path id="Trazado_158472" data-name="Trazado 158472" d="M228.323,940.6a9.441,9.441,0,1,1,9.441-9.441,9.441,9.441,0,0,1-9.441,9.441" transform="translate(-176.723 -744.184)" fill="#f4780e"/>
          <path id="Trazado_158473" data-name="Trazado 158473" d="M228.323,1136.671a9.441,9.441,0,1,1,9.441-9.441,9.441,9.441,0,0,1-9.441,9.441" transform="translate(-176.723 -902.49)" fill="#f4780e"/>
          <rect id="Rectángulo_39076" data-name="Rectángulo 39076" width="40.363" height="40.363" transform="translate(213.535 111.44)" fill="#f4780e"/>
          <path id="Trazado_158474" data-name="Trazado 158474" d="M477.179,1226.086v11.783a13.968,13.968,0,0,0,13.968,13.968h80.591a13.968,13.968,0,0,0,13.968-13.968v-11.783Z" transform="translate(-385.269 -989.929)" fill="#f4780e"/>
          <path id="Trazado_158475" data-name="Trazado 158475" d="M562.964,370.571H478.6a14.623,14.623,0,0,1-14.623-14.623V159.171A14.623,14.623,0,0,1,478.6,144.548h84.369a14.623,14.623,0,0,1,14.623,14.623V355.948a14.623,14.623,0,0,1-14.623,14.623" transform="translate(-374.607 -116.707)" fill="#ef4647"/>
          <path id="Trazado_158476" data-name="Trazado 158476" d="M561.4,369.383H477.034a15.012,15.012,0,0,1-14.995-14.995V157.611a15.012,15.012,0,0,1,14.995-14.995H561.4a15.012,15.012,0,0,1,15,14.995V354.388a15.012,15.012,0,0,1-15,14.995M477.034,143.36a14.267,14.267,0,0,0-14.251,14.25V354.388a14.267,14.267,0,0,0,14.251,14.25H561.4a14.267,14.267,0,0,0,14.251-14.25V157.611A14.267,14.267,0,0,0,561.4,143.36Z" transform="translate(-373.045 -115.147)" fill="#f4780e"/>
          <path id="Trazado_158477" data-name="Trazado 158477" d="M561.566,369.508H477.2a14.972,14.972,0,0,1-14.956-14.955V157.775A14.973,14.973,0,0,1,477.2,142.82h84.368a14.972,14.972,0,0,1,14.956,14.955V354.553a14.972,14.972,0,0,1-14.956,14.955M477.2,143.486a14.306,14.306,0,0,0-14.29,14.29V354.553a14.306,14.306,0,0,0,14.29,14.289h84.368a14.306,14.306,0,0,0,14.29-14.289V157.775a14.306,14.306,0,0,0-14.29-14.29Z" transform="translate(-373.209 -115.311)" fill="#f4780e"/>
          <rect id="Rectángulo_39077" data-name="Rectángulo 39077" width="107.656" height="220.065" rx="11" transform="translate(92.345 30.82)" fill="#f8f0ea"/>
          <path id="Trazado_158478" data-name="Trazado 158478" d="M574.055,379.017H489.687A11.99,11.99,0,0,1,477.71,367.04V170.263a11.99,11.99,0,0,1,11.977-11.977h84.368a11.99,11.99,0,0,1,11.977,11.977V367.04a11.99,11.99,0,0,1-11.977,11.977M489.687,158.952a11.323,11.323,0,0,0-11.311,11.311V367.04a11.324,11.324,0,0,0,11.311,11.311h84.368a11.324,11.324,0,0,0,11.311-11.311V170.263a11.324,11.324,0,0,0-11.311-11.311Z" transform="translate(-385.698 -127.798)" fill="#f4780e"/>
          <path id="Trazado_158479" data-name="Trazado 158479" d="M1114.421,47.273a12.491,12.491,0,1,0-3.26,4.409l12.029,8.885,3.258-4.411Zm-3.974.475a9.248,9.248,0,1,1-1.946-12.939,9.193,9.193,0,0,1,1.946,12.939" transform="translate(-880.479 -24.038)" fill="#ef4647"/>
          <rect id="Rectángulo_39078" data-name="Rectángulo 39078" width="4.584" height="4.584" transform="translate(215.815 166.026)" fill="#fbb033"/>
          <rect id="Rectángulo_39079" data-name="Rectángulo 39079" width="4.584" height="4.584" transform="translate(147.638 280.749)" fill="#fbb033"/>
          <rect id="Rectángulo_39080" data-name="Rectángulo 39080" width="4.584" height="4.584" transform="translate(252.258 43.173)" fill="#2d6935"/>
          <rect id="Rectángulo_39081" data-name="Rectángulo 39081" width="4.584" height="4.584" transform="translate(9.388 225.424)" fill="#ef4647"/>
          <rect id="Rectángulo_39082" data-name="Rectángulo 39082" width="4.584" height="4.584" transform="translate(4.804 91.84)" fill="#fbb033"/>
          <rect id="Rectángulo_39083" data-name="Rectángulo 39083" width="4.584" height="4.584" transform="translate(13.972 91.84)" fill="#2d6935"/>
          <path id="Trazado_158480" data-name="Trazado 158480" d="M1260.46,1005.235v4.472h-.639v-1.994h-2.569v1.994h-.639v-4.472h.639v1.923h2.569v-1.923Z" transform="translate(-1014.576 -811.616)" fill="#f4780e"/>
          <path id="Trazado_158481" data-name="Trazado 158481" d="M1283.892,1008.936v.556h-3.214v-.434l1.821-1.757a2.168,2.168,0,0,0,.448-.553,1.053,1.053,0,0,0,.115-.47.658.658,0,0,0-.246-.547,1.115,1.115,0,0,0-.706-.195,1.4,1.4,0,0,0-1.144.486l-.434-.377a1.741,1.741,0,0,1,.687-.5,2.422,2.422,0,0,1,.949-.179,1.729,1.729,0,0,1,1.118.335,1.109,1.109,0,0,1,.415.911,1.542,1.542,0,0,1-.153.677,2.7,2.7,0,0,1-.582.729l-1.367,1.316Z" transform="translate(-1033.887 -811.401)" fill="#f4780e"/>
          <path id="Trazado_158482" data-name="Trazado 158482" d="M371.8,0V5.207h-1.2V3.072h-2.366V5.207h-1.2V0h1.2V2.053H370.6V0Z" transform="translate(-296.336 0)" fill="#f4780e"/>
          <path id="Trazado_158483" data-name="Trazado 158483" d="M397.545,0V5.207H396.34V.967H395.3V0Z" transform="translate(-319.16 0)" fill="#f4780e"/>
          <path id="Trazado_158484" data-name="Trazado 158484" d="M619.907,394.092H532.475a.372.372,0,0,1-.372-.372V344.711a.372.372,0,0,1,.372-.372h87.432a.372.372,0,0,1,.372.372V393.72a.372.372,0,0,1-.372.372m-87.059-.744h86.687V345.083H532.847Z" transform="translate(-429.614 -278.016)" fill="#f4780e"/>
          <path id="Trazado_158485" data-name="Trazado 158485" d="M619.905,394.092a.369.369,0,0,1-.182-.048l-87.431-49.009a.372.372,0,0,1,.364-.649L620.088,393.4a.372.372,0,0,1-.183.7" transform="translate(-429.614 -278.016)" fill="#f4780e"/>
          <path id="Trazado_158486" data-name="Trazado 158486" d="M532.476,394.092a.372.372,0,0,1-.183-.7l87.432-49.009a.372.372,0,0,1,.364.649l-87.431,49.009a.369.369,0,0,1-.182.048" transform="translate(-429.614 -278.016)" fill="#f4780e"/>
          <path id="Trazado_158487" data-name="Trazado 158487" d="M541.453,224.378a9.5,9.5,0,1,1,9.5-9.5,9.513,9.513,0,0,1-9.5,9.5m0-18.26a8.758,8.758,0,1,0,8.758,8.758,8.767,8.767,0,0,0-8.758-8.758" transform="translate(-429.492 -165.817)" fill="#f4780e"/>
          <rect id="Rectángulo_39084" data-name="Rectángulo 39084" width="11.124" height="1.628" transform="translate(179.168 45.465)" fill="#f4780e"/>
          <rect id="Rectángulo_39085" data-name="Rectángulo 39085" width="11.124" height="1.628" transform="translate(179.168 48.722)" fill="#f4780e"/>
          <rect id="Rectángulo_39086" data-name="Rectángulo 39086" width="11.124" height="1.628" transform="translate(179.168 51.978)" fill="#f4780e"/>
          <rect id="Rectángulo_39087" data-name="Rectángulo 39087" width="52.779" height="8.304" transform="translate(120.187 122.388)" fill="#dbd1d2"/>
          <rect id="Rectángulo_39088" data-name="Rectángulo 39088" width="87.461" height="3.448" transform="translate(102.832 137.141)" fill="#dbd1d2"/>
          <rect id="Rectángulo_39089" data-name="Rectángulo 39089" width="31.56" height="3.448" transform="translate(107.262 216.768)" fill="#dbd1d2"/>
          <rect id="Rectángulo_39090" data-name="Rectángulo 39090" width="31.56" height="3.448" transform="translate(154.331 216.768)" fill="#dbd1d2"/>
          <rect id="Rectángulo_39091" data-name="Rectángulo 39091" width="40.363" height="1.724" transform="translate(149.93 223.602)" fill="#dbd1d2"/>
          <rect id="Rectángulo_39092" data-name="Rectángulo 39092" width="40.363" height="1.724" transform="translate(149.93 227.716)" fill="#dbd1d2"/>
          <rect id="Rectángulo_39093" data-name="Rectángulo 39093" width="26.959" height="1.724" transform="translate(156.632 231.876)" fill="#dbd1d2"/>
          <rect id="Rectángulo_39094" data-name="Rectángulo 39094" width="40.363" height="1.724" transform="translate(102.861 223.602)" fill="#dbd1d2"/>
          <rect id="Rectángulo_39095" data-name="Rectángulo 39095" width="40.363" height="1.724" transform="translate(102.861 227.716)" fill="#dbd1d2"/>
          <rect id="Rectángulo_39096" data-name="Rectángulo 39096" width="26.959" height="1.724" transform="translate(109.563 231.876)" fill="#dbd1d2"/>
          <rect id="Rectángulo_39097" data-name="Rectángulo 39097" width="87.461" height="3.448" transform="translate(102.832 142.776)" fill="#dbd1d2"/>
          <rect id="Rectángulo_39098" data-name="Rectángulo 39098" width="87.461" height="3.448" transform="translate(102.832 148.411)" fill="#dbd1d2"/>
          <rect id="Rectángulo_39099" data-name="Rectángulo 39099" width="87.461" height="3.448" transform="translate(102.832 154.046)" fill="#dbd1d2"/>
          <path id="Trazado_158488" data-name="Trazado 158488" d="M572.838,913.461H532.475a.372.372,0,0,1-.372-.372V872.726a.372.372,0,0,1,.372-.372h40.363a.372.372,0,0,1,.372.372v40.363a.372.372,0,0,1-.372.372m-39.99-.744h39.618V873.1H532.847Z" transform="translate(-429.614 -704.329)" fill="#f4780e"/>
          <path id="Trazado_158489" data-name="Trazado 158489" d="M817.212,913.461H776.849a.372.372,0,0,1-.372-.372V872.726a.372.372,0,0,1,.372-.372h40.362a.372.372,0,0,1,.372.372v40.363a.372.372,0,0,1-.372.372m-39.99-.744h39.618V873.1H777.221Z" transform="translate(-626.919 -704.329)" fill="#f4780e"/>
          <path id="Trazado_158490" data-name="Trazado 158490" d="M572.837,913.461a.37.37,0,0,1-.263-.109l-40.363-40.362a.372.372,0,0,1,.526-.526L573.1,912.825a.372.372,0,0,1-.263.635" transform="translate(-429.614 -704.329)" fill="#f4780e"/>
          <path id="Trazado_158491" data-name="Trazado 158491" d="M532.475,913.461a.372.372,0,0,1-.263-.635l40.362-40.362a.372.372,0,1,1,.526.526l-40.363,40.362a.37.37,0,0,1-.263.109" transform="translate(-429.614 -704.329)" fill="#f4780e"/>
          <path id="Trazado_158492" data-name="Trazado 158492" d="M817.211,913.461a.37.37,0,0,1-.263-.109l-40.363-40.362a.372.372,0,0,1,.526-.526l40.362,40.362a.372.372,0,0,1-.263.635" transform="translate(-626.919 -704.329)" fill="#f4780e"/>
          <path id="Trazado_158493" data-name="Trazado 158493" d="M776.849,913.461a.372.372,0,0,1-.263-.635l40.362-40.362a.372.372,0,1,1,.526.526l-40.362,40.362a.371.371,0,0,1-.263.109" transform="translate(-626.919 -704.329)" fill="#f4780e"/>
          <rect id="Rectángulo_39100" data-name="Rectángulo 39100" width="76.568" height="44.451" transform="translate(2.024 125.51)" fill="#f4780e"/>
          <rect id="Rectángulo_39101" data-name="Rectángulo 39101" width="76.568" height="44.915" transform="translate(3.553 123.402)" fill="#fbb033"/>
          <path id="Trazado_158513" data-name="Trazado 158513" d="M0,0H40.363V40.363H0Z" transform="translate(215.815 108.835)" fill="#b1f7fd"/>
          <rect id="Rectángulo_39103" data-name="Rectángulo 39103" width="40.363" height="40.363" transform="translate(214.187 61.064)" fill="#f4780e"/>
          <rect id="Rectángulo_39104" data-name="Rectángulo 39104" width="40.363" height="40.363" transform="translate(216.466 58.459)" fill="#fbb033"/>
          <path id="Trazado_158494" data-name="Trazado 158494" d="M1223.569,865.53a.5.5,0,0,1-.5-.5v-1.191a.5.5,0,1,1,.993,0v1.191a.5.5,0,0,1-.5.5" transform="translate(-987.496 -697.056)" fill="#f4780e"/>
          <path id="Trazado_158495" data-name="Trazado 158495" d="M1223.569,899.162a.5.5,0,0,1-.5-.5v-2.389a.5.5,0,0,1,.993,0v2.389a.5.5,0,0,1-.5.5m0-5.375a.5.5,0,0,1-.5-.5V890.9a.5.5,0,0,1,.993,0v2.389a.5.5,0,0,1-.5.5m0-5.375a.5.5,0,0,1-.5-.5v-2.389a.5.5,0,0,1,.993,0v2.389a.5.5,0,0,1-.5.5" transform="translate(-987.496 -714.565)" fill="#f4780e"/>
          <path id="Trazado_158496" data-name="Trazado 158496" d="M1218.577,970.931h-1.191a.5.5,0,1,1,0-.992h.695v-.695a.5.5,0,1,1,.993,0v1.191a.5.5,0,0,1-.5.5" transform="translate(-982.503 -782.156)" fill="#f4780e"/>
          <path id="Trazado_158497" data-name="Trazado 158497" d="M1126.749,975.924h-2.326a.5.5,0,1,1,0-.992h2.326a.5.5,0,1,1,0,.992m-5.232,0h-2.325a.5.5,0,1,1,0-.992h2.325a.5.5,0,1,1,0,.992m-5.232,0h-2.326a.5.5,0,1,1,0-.992h2.326a.5.5,0,1,1,0,.992m-5.232,0h-2.326a.5.5,0,1,1,0-.992h2.326a.5.5,0,1,1,0,.992" transform="translate(-894.774 -787.15)" fill="#f4780e"/>
          <path id="Trazado_158498" data-name="Trazado 158498" d="M1088.646,975.924h-1.191a.5.5,0,1,1,0-.992h1.191a.5.5,0,1,1,0,.992" transform="translate(-877.598 -787.15)" fill="#f4780e"/>
          <path id="Trazado_158499" data-name="Trazado 158499" d="M221.835,499.772a.5.5,0,0,1-.5-.5v-2.383a.5.5,0,1,1,.993,0v2.383a.5.5,0,0,1-.5.5m0-5.361a.5.5,0,0,1-.5-.5v-2.382a.5.5,0,1,1,.993,0v2.382a.5.5,0,0,1-.5.5m0-5.36a.5.5,0,0,1-.5-.5v-2.383a.5.5,0,1,1,.993,0v2.383a.5.5,0,0,1-.5.5m0-5.361a.5.5,0,0,1-.5-.5v-2.383a.5.5,0,0,1,.993,0v2.383a.5.5,0,0,1-.5.5m0-5.361a.5.5,0,0,1-.5-.5v-2.383a.5.5,0,1,1,.993,0v2.383a.5.5,0,0,1-.5.5m0-5.36a.5.5,0,0,1-.5-.5v-1.059a.5.5,0,0,1,.5-.5h1.324a.5.5,0,0,1,0,.993h-.828v.563a.5.5,0,0,1-.5.5m38.317-1.059H258.3a.5.5,0,1,1,0-.993h1.852a.5.5,0,0,1,0,.993m-4.83,0h-2.383a.5.5,0,1,1,0-.993h2.383a.5.5,0,1,1,0,.993m-5.361,0h-2.383a.5.5,0,0,1,0-.993h2.383a.5.5,0,1,1,0,.993m-5.361,0h-2.383a.5.5,0,1,1,0-.993H244.6a.5.5,0,0,1,0,.993m-5.36,0h-2.383a.5.5,0,0,1,0-.993h2.383a.5.5,0,1,1,0,.993m-5.361,0H231.5a.5.5,0,0,1,0-.993h2.383a.5.5,0,0,1,0,.993m-5.361,0h-2.383a.5.5,0,0,1,0-.993h2.383a.5.5,0,1,1,0,.993" transform="translate(-178.707 -380.214)" fill="#f4780e"/>
          <path id="Trazado_158500" data-name="Trazado 158500" d="M144.3,158.471a22.958,22.958,0,1,1-22.958-22.958A22.958,22.958,0,0,1,144.3,158.471" transform="translate(-79.436 -109.412)" fill="#f8f0ea"/>
          <path id="Trazado_158501" data-name="Trazado 158501" d="M173.4,194.966a2.152,2.152,0,0,0-1.93-2.285c-.021,0-.04.008-.061.01a5.725,5.725,0,0,0,.328-3.945,6.519,6.519,0,0,0-5.506-5.32c-4.822-.916-6.856,1.162-6.856,1.162-.132-.2-3.177-2.885-6.349-1.3a6.561,6.561,0,0,0-3.171,7.721c.868,2.192,3.144,3.712,4.139,3.133a11.425,11.425,0,0,0,2.477,7.311,4.547,4.547,0,0,0,3.228,1.7c.082,1.963-.469,3.693-1.868,4.561a.565.565,0,0,0-.222.734c.369.861,2.91,2.053,6.446,2.053a16.675,16.675,0,0,0,4.179-.542c2.589-.671,3.234-1.8,3.26-1.845a.347.347,0,0,0-.089-.438,10.574,10.574,0,0,1-3.1-4.3c.85-.088,2.757-.342,3.435-4.995.053-.365.088-.67.114-1a2.215,2.215,0,0,0,1.544-2.406m-6.272-2.125a2.022,2.022,0,0,0-1.713,1.953l-1.552-.141c.4-2.156,1.3-3.977,3.243-4.5a3.274,3.274,0,0,1,3.671,2.182c.007.025.015.051.021.076s.011.02.015.031.016.044.023.067a.731.731,0,0,0,.144.289,2.254,2.254,0,0,0-1.225,1.967l-.734.042a2.064,2.064,0,0,0-1.892-1.968m1.293,2.312c.039.935-.474,1.748-1.122,1.775s-1.228-.74-1.267-1.675.475-1.748,1.122-1.775,1.227.74,1.266,1.675m-.217,7.527a.721.721,0,0,0-.585.239.452.452,0,0,0-.053.385,10.691,10.691,0,0,0,3.141,4.679,5.682,5.682,0,0,1-2.648,1.3c-5.487,1.422-9.323-.4-9.778-1.043,1.556-1.022,2.172-2.969,2.083-5.142.271-.391.468-2.873.8-3.976.187-.626-1.482.111-1.159-2.645.3-2.555,2.758-1.794,2.813-.467.03.721.831.227.875-.189q.027-.254.061-.5l1.667.173a2.093,2.093,0,0,0,1.9,2.076,2.064,2.064,0,0,0,1.721-2.119l.728-.037v.029a2.263,2.263,0,0,0,1.39,1.889c-.025.309-.058.6-.108.944-.608,4.179-2.182,4.341-2.854,4.41m3.437-5.913c-.647.027-1.227-.74-1.266-1.675s.475-1.748,1.122-1.775,1.227.74,1.266,1.675-.474,1.748-1.122,1.775" transform="translate(-120.734 -147.581)" fill="#f4780e"/>
          <path id="Trazado_158502" data-name="Trazado 158502" d="M374.85,259.825h-2.383a.5.5,0,1,1,0-.992h2.383a.5.5,0,1,1,0,.992m-5.361,0h-2.382a.5.5,0,1,1,0-.992h2.382a.5.5,0,1,1,0,.992m-5.36,0h-2.383a.5.5,0,1,1,0-.992h2.383a.5.5,0,1,1,0,.992" transform="translate(-291.669 -208.979)" fill="#f4780e"/>
          <path id="Trazado_158503" data-name="Trazado 158503" d="M31.294,669.514h-.039a5.257,5.257,0,0,1-4.417-2.216c-1.45-2.255-.439-5.25.991-7.3a20.7,20.7,0,0,1,8.947-6.951,9.676,9.676,0,0,0-1.491-.55,18.012,18.012,0,0,0-8.037.021A45.475,45.475,0,0,0,.916,668l-.509-.428a46.139,46.139,0,0,1,26.72-15.707,18.635,18.635,0,0,1,8.338-.008,10.249,10.249,0,0,1,2.114.85,43.264,43.264,0,0,1,7.075-2.15c1.865-.411,3.78-.754,5.633-1.085,4.451-.8,9.054-1.621,13.234-3.447,4.008-1.751,8.307-4.322,12.906-14.619l.608.271c-4.7,10.514-9.12,13.155-13.247,14.958-4.252,1.858-8.894,2.688-13.383,3.492-1.846.331-3.755.672-5.607,1.08a43.515,43.515,0,0,0-6.5,1.928,7.893,7.893,0,0,1,3.307,4.21c1.288,4.244-1.854,8.62-5.623,10.747a9.549,9.549,0,0,1-4.688,1.423m6.242-16.07a20.372,20.372,0,0,0-9.161,6.935c-1.306,1.874-2.249,4.581-.977,6.559a4.587,4.587,0,0,0,3.86,1.91,9.1,9.1,0,0,0,4.4-1.337c3.539-2,6.5-6.066,5.314-9.974a7.357,7.357,0,0,0-3.432-4.094" transform="translate(-0.329 -509.789)" fill="#f4780e"/>
          <path id="Trazado_158504" data-name="Trazado 158504" d="M265.923,822.813a.333.333,0,0,1-.3-.485C270.79,812.249,284.643,807,295.726,807h.157a.333.333,0,0,1,0,.666.828.828,0,0,0-.156,0c-10.88,0-24.464,5.122-29.505,14.963a.332.332,0,0,1-.3.181" transform="translate(-214.435 -651.566)" fill="#f4780e"/>
          <path id="Trazado_158505" data-name="Trazado 158505" d="M12.913,775.926l-.588-.313a17.823,17.823,0,0,1,4.807-5.912c3.89-3.042,10.454-3.788,15.96-1.817,1.03.369,2.035.832,3.006,1.281a19.993,19.993,0,0,0,5.3,1.871c4.08.629,8.64-1.285,12.2-5.117a47.49,47.49,0,0,0,4.267-5.617,54.28,54.28,0,0,1,3.763-5.066c3.608-4.145,8.139-6.362,12.432-6.059a22.088,22.088,0,0,1,4.664,1c.83.243,1.687.494,2.54.681a19.439,19.439,0,0,0,10.031-.514l.205.633a20.087,20.087,0,0,1-10.38.532c-.874-.192-1.743-.447-2.583-.693a21.627,21.627,0,0,0-4.522-.979c-5.79-.387-10.242,3.946-11.884,5.832a53.813,53.813,0,0,0-3.716,5.005,48.034,48.034,0,0,1-4.328,5.694c-3.711,3.995-8.494,5.982-12.79,5.322a20.774,20.774,0,0,1-5.476-1.925c-.958-.442-1.949-.9-2.952-1.258-5.3-1.9-11.605-1.194-15.326,1.714a16.914,16.914,0,0,0-4.63,5.7" transform="translate(-9.951 -604.855)" fill="#f4780e"/>
          <path id="Trazado_158506" data-name="Trazado 158506" d="M.333,653.962a.333.333,0,0,1-.2-.6,56.03,56.03,0,0,1,22.934-10.151c2.44-.461,4.947-.723,7.372-.976a79.134,79.134,0,0,0,8.276-1.161c8.755-1.869,15.433-5.428,19.847-10.576a.333.333,0,1,1,.506.433c-4.512,5.262-11.313,8.894-20.214,10.794a79.528,79.528,0,0,1-8.346,1.172c-2.411.252-4.9.512-7.317.968A55.357,55.357,0,0,0,.532,653.9a.332.332,0,0,1-.2.066" transform="translate(0 -508.963)" fill="#f4780e"/>
          <path id="Trazado_158507" data-name="Trazado 158507" d="M.333,642.276a.333.333,0,0,1-.186-.609,34.788,34.788,0,0,1,9.816-4.426,48.54,48.54,0,0,1,6.887-1.133c1.871-.222,3.639-.433,5.073-.737a20.186,20.186,0,0,0,9.923-5.254.333.333,0,0,1,.461.481,20.841,20.841,0,0,1-10.246,5.425c-1.464.31-3.246.522-5.133.746a48.185,48.185,0,0,0-6.784,1.112,34.122,34.122,0,0,0-9.626,4.338.334.334,0,0,1-.186.057" transform="translate(0 -508.676)" fill="#f4780e"/>
          <rect id="Rectángulo_39105" data-name="Rectángulo 39105" width="50.34" height="9.004" transform="translate(70.752 8.74)" fill="#b1f7fd"/>
          <path id="Trazado_158508" data-name="Trazado 158508" d="M89.5,1247.656H14.636a2.365,2.365,0,0,0-2.365,2.365v18.24a2.365,2.365,0,0,0,2.365,2.365H26.213v7.768l7.768-7.768H89.5a2.365,2.365,0,0,0,2.365-2.365v-18.24a2.365,2.365,0,0,0-2.365-2.365" transform="translate(-9.907 -1007.344)" fill="#b1f7fd"/>
          <path id="Trazado_158509" data-name="Trazado 158509" d="M31.157,1038.833a.372.372,0,0,1-.263-.635l11.57-11.57a.372.372,0,0,1,.526.526l-11.57,11.57a.371.371,0,0,1-.263.109" transform="translate(-24.855 -828.801)" fill="#f4780e"/>
          <path id="Trazado_158510" data-name="Trazado 158510" d="M42.728,1038.833a.371.371,0,0,1-.263-.109l-11.57-11.57a.372.372,0,1,1,.526-.526l11.57,11.57a.372.372,0,0,1-.263.635" transform="translate(-24.856 -828.801)" fill="#f4780e"/>
          <path id="Trazado_158511" data-name="Trazado 158511" d="M33.952,1030.059H16.884a.372.372,0,0,1-.372-.372v-17.068a.372.372,0,0,1,.372-.372H33.952a.372.372,0,0,1,.372.372v17.068a.372.372,0,0,1-.372.372m-16.7-.744H33.58v-16.323H17.256Z" transform="translate(-13.332 -817.277)" fill="#f4780e"/>
          <path id="Trazado_158512" data-name="Trazado 158512" d="M358.171,1420.179h-2.383a.5.5,0,1,1,0-.993h2.383a.5.5,0,0,1,0,.993m-5.361,0h-2.383a.5.5,0,0,1,0-.993h2.383a.5.5,0,1,1,0,.993m-5.36,0h-2.383a.5.5,0,1,1,0-.993h2.383a.5.5,0,0,1,0,.993m-5.361,0h-2.383a.5.5,0,0,1,0-.993h2.383a.5.5,0,1,1,0,.993m-5.36,0h-2.383a.5.5,0,1,1,0-.993h2.383a.5.5,0,0,1,0,.993m-5.361,0h-2.383a.5.5,0,1,1,0-.993h2.383a.5.5,0,1,1,0,.993m-5.361,0h-2.382a.5.5,0,1,1,0-.993h2.382a.5.5,0,1,1,0,.993m-5.36,0h-2.383a.5.5,0,1,1,0-.993h2.383a.5.5,0,1,1,0,.993m-5.361,0H312.9a.5.5,0,1,1,0-.993h2.383a.5.5,0,1,1,0,.993m-5.361,0h-2.383a.5.5,0,1,1,0-.993h2.383a.5.5,0,0,1,0,.993m-5.36,0h-2.383a.5.5,0,1,1,0-.993h2.383a.5.5,0,1,1,0,.993m-5.361,0h-2.383a.5.5,0,0,1,0-.993h2.383a.5.5,0,0,1,0,.993m-5.361,0h-2.383a.5.5,0,1,1,0-.993h2.383a.5.5,0,0,1,0,.993m-5.36,0H286.1a.5.5,0,0,1,0-.993h2.383a.5.5,0,0,1,0,.993m-5.361,0h-2.383a.5.5,0,1,1,0-.993h2.383a.5.5,0,0,1,0,.993m-5.361,0H275.38a.5.5,0,0,1,0-.993h2.383a.5.5,0,1,1,0,.993m-5.36,0H270.02a.5.5,0,1,1,0-.993H272.4a.5.5,0,0,1,0,.993m-5.361,0h-2.383a.5.5,0,1,1,0-.993h2.383a.5.5,0,1,1,0,.993" transform="translate(-213.282 -1145.836)" fill="#f4780e"/>
        </g>
      </g>
    </g>
  </g>
</svg>
