<svg xmlns="http://www.w3.org/2000/svg" xmlns:xlink="http://www.w3.org/1999/xlink" width="105" height="105" viewBox="0 0 105 105">
  <defs>
    <clipPath id="clip-path">
      <rect id="Rectángulo_38988" data-name="Rectángulo 38988" width="65.639" height="65.635" fill="#f57c00"/>
    </clipPath>
  </defs>
  <g id="Grupo_142085" data-name="Grupo 142085" transform="translate(-905 -868)">
    <g id="Elipse_4886" data-name="Elipse 4886" transform="translate(905 868)" fill="#fff" stroke="#f57c00" stroke-width="3">
      <circle cx="52.5" cy="52.5" r="52.5" stroke="none"/>
      <circle cx="52.5" cy="52.5" r="51" fill="none"/>
    </g>
    <g id="Grupo_143013" data-name="Grupo 143013" transform="translate(925 888)">
      <g id="Grupo_143012" data-name="Grupo 143012" clip-path="url(#clip-path)">
        <path id="Trazado_158137" data-name="Trazado 158137" d="M1.309,33.344c.616-.242.622-.785.618-1.34-.012-1.666,0-3.332-.008-5a1.693,1.693,0,0,1,.712-1.49,2.354,2.354,0,0,1,1.48-.283q22.366,0,44.733,0a3.915,3.915,0,0,0,.765-.041.873.873,0,0,0,.757-.96.864.864,0,0,0-.774-.881,5.243,5.243,0,0,0-.83-.038q-22.3,0-44.6,0c-.3,0-.6,0-.9.026A3.434,3.434,0,0,0,.341,25.329c-.123.24-.125.534-.341.728V32.85c.355.381.744.717,1.309.494" transform="translate(0 -13.494)" fill="#f57c00"/>
        <path id="Trazado_158138" data-name="Trazado 158138" d="M137.243,12.254a4.2,4.2,0,0,1-.768-2.833c.053-1.022.012-2.049.011-3.075,0-2.892-1.387-4.524-4.233-4.988-.191-.031-.405-.013-.381-.3.041-.482-.293-.756-.583-1.055h-.769c-.24.279-.6.494-.559.931.029.355-.17.4-.463.438a4.473,4.473,0,0,0-4.159,4.722c-.011,1.174-.03,2.35.007,3.523a3.729,3.729,0,0,1-.679,2.473,2.627,2.627,0,0,0-.224.387,1.361,1.361,0,0,0,1.1,2.071c.379.045.768.016,1.152.026a2.863,2.863,0,0,1,1.126.082c.177.088.137.579.228.88a3,3,0,0,0,3.052,2.151,2.941,2.941,0,0,0,2.775-2.479c.087-.555.291-.687.8-.646a9.344,9.344,0,0,0,1.6-.016,1.358,1.358,0,0,0,1.291-1.275,1.5,1.5,0,0,0-.324-1.015m-5.472,3.107a1.066,1.066,0,0,1-1.435.223.829.829,0,0,1-.462-.845c.089-.379.469-.117.711-.177a1.627,1.627,0,0,1,.382-.005,4.059,4.059,0,0,1,.447,0c.2.022.488-.115.582.106.1.24-.062.493-.226.695m2.986-2.725q-1.952,0-3.9,0c-1.237,0-2.474-.01-3.711.006-.383.005-.58-.022-.327-.464a4.254,4.254,0,0,0,.444-2.166c0-1.322-.01-2.644,0-3.967A2.6,2.6,0,0,1,130,3.251c.639-.019,1.281-.025,1.919.005a2.584,2.584,0,0,1,2.636,2.7c.027,1.3.012,2.6,0,3.9a4.673,4.673,0,0,0,.481,2.414c.224.395-.032.363-.286.362" transform="translate(-71.933)" fill="#f57c00"/>
        <path id="Trazado_158139" data-name="Trazado 158139" d="M22.719,67.223a.9.9,0,0,0,.915-.886.935.935,0,0,0-.848-1.018,4.758,4.758,0,0,0-.64-.013H3.831c-1.31,0-1.905-.6-1.907-1.916,0-3.18-.006-6.36,0-9.541,0-.555-.088-1.046-.682-1.227A1.01,1.01,0,0,0,0,53.251V64.4c.709,2.125,2.208,2.88,4.4,2.851,5.912-.077,11.825-.027,17.738-.027.192,0,.385.01.576-.005" transform="translate(0 -30.434)" fill="#f57c00"/>
        <path id="Trazado_158140" data-name="Trazado 158140" d="M69.237,85.637c-.289.072-.373.035-.5-.242A3.009,3.009,0,0,0,65.072,83.6c-.371.094-.441.01-.572-.308a3.009,3.009,0,0,0-3.532-1.854c-.518.122-.507-.059-.506-.437.007-1.687.033-3.375-.017-5.06a3.018,3.018,0,0,0-3.017-2.883,3.137,3.137,0,0,0-3.13,3.271c-.011,4.57,0,9.14,0,13.71V96.51l-.135.071c-.124-.141-.24-.291-.374-.421a3.244,3.244,0,1,0-4.571,4.594c2,2.012,4.02,4.014,6.022,6.029a3.706,3.706,0,0,0,2.75,1.148c4.271-.007,8.543,0,12.814,0a2.261,2.261,0,0,0,2.438-2.435q.008-8.361,0-16.721a3.1,3.1,0,0,0-4-3.135m1.275,20.384c-4.1-.03-8.2-.025-12.307-.006a2.3,2.3,0,0,1-1.761-.731c-1.92-1.948-3.861-3.874-5.8-5.8a1.473,1.473,0,0,1-.561-1.295,1.281,1.281,0,0,1,.891-1.076,1.246,1.246,0,0,1,1.353.323c.644.624,1.273,1.265,1.908,1.9.379.38.738.806,1.374.552s.612-.792.611-1.339q-.008-5.48,0-10.96,0-5.448,0-10.9a4.862,4.862,0,0,1,.011-.576,1.2,1.2,0,0,1,1.18-1.125A1.138,1.138,0,0,1,58.538,76.2c.017,1.41.007,2.82.007,4.23q0,5.961,0,11.921a3.037,3.037,0,0,0,.054.7.941.941,0,0,0,1.854-.142c.016-.191.012-.384.012-.576,0-2.478,0-4.956,0-7.435a2.811,2.811,0,0,1,.086-.822,1.051,1.051,0,0,1,1.174-.78,1.031,1.031,0,0,1,1.023.889,5.168,5.168,0,0,1,.052.957q.006,3.557,0,7.114c0,.192-.008.386.01.576a.952.952,0,1,0,1.9-.022c.017-.191.009-.384.009-.576,0-1.859-.011-3.718.008-5.576A1.175,1.175,0,0,1,65.9,85.395a1.22,1.22,0,0,1,1.167,1.276c.008.149,0,.3,0,.448V92.31c0,.149,0,.3,0,.448a.959.959,0,1,0,1.912.005c.024-1.218.008-2.436.009-3.653,0-.213-.007-.428.013-.64a1.072,1.072,0,0,1,.963-1.035,1.093,1.093,0,0,1,1.232.706,1.993,1.993,0,0,1,.118.88c0,5.384-.01,10.768.011,16.152,0,.627-.147.853-.817.848" transform="translate(-27.87 -42.297)" fill="#f57c00"/>
        <path id="Trazado_158141" data-name="Trazado 158141" d="M107.521,47.983a.917.917,0,0,0-.939.869,4.1,4.1,0,0,0-.009.576q0,5.606,0,11.212c0,1.447-.562,2.009-2.007,2.009q-9.675,0-19.35,0a2.824,2.824,0,0,0-.7.037.952.952,0,0,0,.108,1.874,3.7,3.7,0,0,0,.512.009H95q4.87,0,9.739,0A3.522,3.522,0,0,0,108.5,60.8q.005-5.126,0-10.251c0-.555.019-1.112-.01-1.665a.914.914,0,0,0-.964-.9" transform="translate(-48.497 -27.777)" fill="#f57c00"/>
        <path id="Trazado_158142" data-name="Trazado 158142" d="M44.46,46.428a11.477,11.477,0,0,0-1.66-.053c-.962,0-1.273.311-1.278,1.267-.008,1.409,0,2.818,0,4.227,0,2.032.019,2.051,2.023,2.039.277,0,.555,0,.833,0A2.358,2.358,0,0,0,46.6,52.556a2.31,2.31,0,0,0-.19-2.536.831.831,0,0,1-.121-.811,2.192,2.192,0,0,0-1.828-2.781m-.555,1.854c.263.006.559.019.525.387s-.345.305-.736.342c-.157.024-.279-.1-.274-.408.006-.376.256-.326.485-.321m.1,3.7c-.387.074-.6-.026-.59-.552.008-.486.193-.573.6-.539s.892-.062.907.533-.455.567-.921.559" transform="translate(-24.035 -26.844)" fill="#f57c00"/>
        <path id="Trazado_158143" data-name="Trazado 158143" d="M112.85,49.225a2.2,2.2,0,0,0-1.759-2.815,9.749,9.749,0,0,0-1.851-.049c-.781.009-1.127.368-1.137,1.144-.01.874,0,1.748,0,2.622s-.007,1.748,0,2.623c.008.792.344,1.135,1.121,1.147.618.009,1.237.008,1.855-.011a2.338,2.338,0,0,0,2.1-1.334A2.292,2.292,0,0,0,113,50.018a.8.8,0,0,1-.151-.793m-2.41-.962c.258.017.57,0,.582.343s-.3.352-.556.367-.459.027-.46-.342c0-.343.163-.386.435-.368m.137,3.714c-.436.038-.562-.093-.574-.546-.014-.525.2-.619.59-.546.459-.013.936-.021.931.54-.006.612-.526.515-.947.552" transform="translate(-62.58 -26.828)" fill="#f57c00"/>
        <path id="Trazado_158144" data-name="Trazado 158144" d="M91.483,48.22a2.453,2.453,0,0,0-2.215-1.826,13.152,13.152,0,0,0-1.47-.025c-.872.012-1.2.331-1.206,1.206-.011,1.279,0,2.559,0,3.838,0,.49-.017.982.007,1.471a.934.934,0,0,0,.982,1.019c.555-.013.891-.37.931-1,.014-.224,0-.45,0-.835.511.572.906,1.035,1.323,1.475a.957.957,0,1,0,1.434-1.262c-.351-.428-.725-.837-1.111-1.28.118-.082.188-.13.257-.179a2.387,2.387,0,0,0,1.068-2.6M88.869,49.3c-.407.082-.358-.231-.356-.514,0-.257-.051-.541.365-.5.354.033.736.069.733.526,0,.413-.347.483-.742.49" transform="translate(-50.125 -26.839)" fill="#f57c00"/>
        <path id="Trazado_158145" data-name="Trazado 158145" d="M27.185,47.447a.963.963,0,1,0-1.916.006c-.013.64,0,1.281,0,1.921,0,.555,0,1.11,0,1.665a2.912,2.912,0,0,0,5.823.05c.023-1.173.013-2.348,0-3.521-.006-.744-.383-1.182-.971-1.172s-.94.446-.946,1.2c-.009,1.131,0,2.262-.005,3.393A.919.919,0,0,1,28.133,52c-.616-.013-.94-.36-.942-1.029,0-1.174.008-2.348-.005-3.521" transform="translate(-14.625 -26.856)" fill="#f57c00"/>
        <path id="Trazado_158146" data-name="Trazado 158146" d="M12.782,51.983a1.793,1.793,0,0,1-1.519-.5A.948.948,0,0,0,9.89,51.5a.977.977,0,0,0,.076,1.378,3.468,3.468,0,0,0,2.524,1.057,2.607,2.607,0,0,0,2.673-1.942,2.353,2.353,0,0,0-1.669-2.62c-.43-.183-.87-.344-1.3-.529-.121-.053-.339-.053-.3-.261.033-.165.209-.195.358-.223a1.749,1.749,0,0,1,1.253.361.927.927,0,0,0,1.343-.259.948.948,0,0,0-.3-1.343,3.4,3.4,0,0,0-2.844-.622A2.259,2.259,0,0,0,9.95,48.458a2.047,2.047,0,0,0,1.41,2.121c.51.214,1.026.413,1.533.632.171.074.39.167.353.395a.5.5,0,0,1-.464.378" transform="translate(-5.581 -26.864)" fill="#f57c00"/>
        <path id="Trazado_158147" data-name="Trazado 158147" d="M58.149,51.995a1.814,1.814,0,0,1-1.4-.492.946.946,0,0,0-1.414.015.961.961,0,0,0,.148,1.415,3.483,3.483,0,0,0,2.42,1,2.606,2.606,0,0,0,2.7-1.894,2.357,2.357,0,0,0-1.724-2.706q-.649-.267-1.3-.522c-.1-.04-.223-.074-.22-.2,0-.145.123-.2.254-.236a1.712,1.712,0,0,1,1.374.353.953.953,0,1,0,1.057-1.587,3.354,3.354,0,0,0-2.956-.629A2.228,2.228,0,0,0,55.4,48.534a2.054,2.054,0,0,0,1.429,2.047c.489.206.985.4,1.473.608.189.082.444.16.382.432a.533.533,0,0,1-.538.374" transform="translate(-31.891 -26.861)" fill="#f57c00"/>
        <path id="Trazado_158148" data-name="Trazado 158148" d="M73.843,48.565c.707.349,1.2.261,1.491-.265.3-.544.079-1.068-.617-1.446a3.766,3.766,0,1,0-1.759,7.077,3.082,3.082,0,0,0,2.342-.984.957.957,0,0,0,.093-1.419.936.936,0,0,0-1.413.037,1.454,1.454,0,0,1-.894.438,1.841,1.841,0,0,1-1.82-1.046,1.816,1.816,0,0,1,.388-2.113,1.858,1.858,0,0,1,2.188-.278" transform="translate(-40.039 -26.863)" fill="#f57c00"/>
        <path id="Trazado_158149" data-name="Trazado 158149" d="M122.719,52.924A.96.96,0,0,0,123.782,54q1.089.022,2.178,0a.916.916,0,0,0,1.015-.914.956.956,0,0,0-1.011-1,7.092,7.092,0,0,0-.96,0c-.341.027-.378-.146-.372-.422.006-.261.009-.462.362-.437a5.13,5.13,0,0,0,.9-.011.948.948,0,0,0-.008-1.9,4.725,4.725,0,0,0-.768-.007c-.338.026-.483-.059-.491-.448-.011-.431.2-.431.508-.417a7.841,7.841,0,0,0,.832,0,.963.963,0,0,0,1.013-1,.92.92,0,0,0-1.014-.915c-.7-.015-1.409-.011-2.114,0-.784.009-1.121.347-1.131,1.139-.01.854,0,1.708,0,2.562,0,.9-.011,1.794,0,2.69" transform="translate(-71.04 -26.934)" fill="#f57c00"/>
        <path id="Trazado_158150" data-name="Trazado 158150" d="M100.995,52.8c.008.728.338,1.114.932,1.123s.978-.384.984-1.088q.022-2.683,0-5.366a.984.984,0,0,0-.947-1.073c-.574-.012-.958.41-.967,1.1-.011.894,0,1.789,0,2.683,0,.873-.007,1.746,0,2.619" transform="translate(-58.464 -26.86)" fill="#f57c00"/>
      </g>
    </g>
  </g>
</svg>
