<svg xmlns="http://www.w3.org/2000/svg" xmlns:xlink="http://www.w3.org/1999/xlink" width="145" height="145" viewBox="0 0 145 145">
  <defs>
    <clipPath id="clip-path">
      <rect id="Rectángulo_39143" data-name="Rectángulo 39143" width="73.688" height="73.699" fill="#f57c00"/>
    </clipPath>
  </defs>
  <g id="Grupo_142147" data-name="Grupo 142147" transform="translate(-694 -9303)">
    <circle id="Elipse_4897" data-name="Elipse 4897" cx="72.5" cy="72.5" r="72.5" transform="translate(694 9303)" fill="#fff"/>
    <g id="Grupo_143193" data-name="Grupo 143193" transform="translate(729.656 9338.65)">
      <g id="Grupo_143193-2" data-name="Grupo 143193" clip-path="url(#clip-path)">
        <path id="Trazado_159492" data-name="Trazado 159492" d="M73.663,68.537V5.028A4.718,4.718,0,0,0,70.5.232c-.232-.08-.531.05-.708-.232H23.6a2.47,2.47,0,0,0-.763.674,1.443,1.443,0,0,0-.14.254c-.014.03-.025.06-.037.092a1.359,1.359,0,0,0-.041.138,1.579,1.579,0,0,0-.042.278,1.688,1.688,0,0,0,.707,1.224l0,0A1.684,1.684,0,0,1,22.58,1.44h0a1.6,1.6,0,0,1,.044-.279,1.586,1.586,0,0,0-.042.278,1.687,1.687,0,0,0,.705,1.222,1.394,1.394,0,0,0,.267.111,2.209,2.209,0,0,0,.333.069,4.683,4.683,0,0,0,.629.036H68.395c1.831,0,2.38.555,2.38,2.412,0,3.006-.023,6,.018,8.991.01.688-.154.867-.856.867q-25-.034-50-.018c-5.395,0-10.786-.018-16.185.021-.758,0-.884-.22-.884-.916.037-3.07.014-6.138.018-9.208,0-1.507.64-2.146,2.136-2.148h5.834a1.485,1.485,0,0,0,1.69-1.247,1.441,1.441,0,0,0,.016-.2c0-.026-.01-.05-.012-.076a1.6,1.6,0,0,0-.049-.29,1.6,1.6,0,0,1,.049.29,1.634,1.634,0,0,0-.047-.294A1.466,1.466,0,0,0,12.092.4a2.6,2.6,0,0,0-.58-.4H3.6c-.071.233-.306.2-.465.257a4.622,4.622,0,0,0-2.9,3.006c-.055.161,0,.4-.232.479V69.933c.231.088.178.326.235.488A4.6,4.6,0,0,0,4.74,73.675q9.781.012,19.563,0H68.536a4.681,4.681,0,0,0,5.127-5.138M22.619,1.161a1.311,1.311,0,0,1,.041-.138,1.311,1.311,0,0,0-.041.138m.076-.23a1.468,1.468,0,0,1,.139-.255,1.468,1.468,0,0,0-.139.255M12.5,1.064A1.465,1.465,0,0,0,12.09.4a1.465,1.465,0,0,1,.413.66M70.775,68.459a3.1,3.1,0,0,1-.3,1.551c-.327.567-.946.791-2,.791H5.166c-1.678,0-2.269-.6-2.274-2.3Q2.9,43.643,2.878,18.788c0-.543.087-.745.552-.787h.043c.055,0,.111-.007.176-.007h0q16.581.037,33.164.017t33.164-.015c.671,0,.809.187.809.827q-.028,24.821-.016,49.639" fill="#f57c00"/>
        <path id="Trazado_159493" data-name="Trazado 159493" d="M26.884,2.615a1.22,1.22,0,0,0,.212.131,1.254,1.254,0,0,0,.237.085,1.549,1.549,0,0,0,.4.041q1.144-.026,1.414-1.439A1.7,1.7,0,0,0,28.108,0h-.863a2.516,2.516,0,0,0-.688.6,1.682,1.682,0,0,0-.127.2,1.613,1.613,0,0,1,.128-.2,1.613,1.613,0,0,0-.128.2c-.006.012-.015.022-.021.034a1.624,1.624,0,0,0-.1.253,1.624,1.624,0,0,1,.1-.253,1.689,1.689,0,0,0-.105.253,1.662,1.662,0,0,0-.077.354,2.417,2.417,0,0,0,.47,1,1.342,1.342,0,0,0,.187.177" transform="translate(-10.119)" fill="#f57c00"/>
        <path id="Trazado_159494" data-name="Trazado 159494" d="M36.764,2.17a1.515,1.515,0,0,1,.042-.278,1.531,1.531,0,0,0-.044.279h0" transform="translate(-14.184 -0.73)" fill="#f57c00"/>
        <path id="Trazado_159495" data-name="Trazado 159495" d="M5.834,29.3h0c-.065,0-.122,0-.176.007C5.71,29.3,5.767,29.3,5.834,29.3Z" transform="translate(-2.182 -11.304)" fill="#f57c00"/>
        <path id="Trazado_159496" data-name="Trazado 159496" d="M37.915,4.335l0,0,0,0" transform="translate(-14.629 -1.672)" fill="#f57c00"/>
        <path id="Trazado_159497" data-name="Trazado 159497" d="M36.765,2.345h0a1.683,1.683,0,0,0,.705,1.221,1.685,1.685,0,0,1-.705-1.221" transform="translate(-14.186 -0.905)" fill="#f57c00"/>
        <path id="Trazado_159498" data-name="Trazado 159498" d="M36.765,2.343h0" transform="translate(-14.186 -0.904)" fill="#f57c00"/>
        <path id="Trazado_159499" data-name="Trazado 159499" d="M12.18,61.5c-.006,1.291.5,1.788,1.779,1.788h31.5c.817,0,1.319-.2,1.581-.671a2.429,2.429,0,0,0,.226-1.163V37.941c0-1.376-.485-1.858-1.86-1.858H14.049l0,0c-1.209,0-1.729.357-1.847,1.351a4.255,4.255,0,0,0-.025.479Zm19.854-1.064,0-.009c-5.128-.016-10.255-.009-15.382-.011-.09,0-.177-.021-.4-.047l8.175-12.877,3.006,4.744q2.425,3.818,4.852,7.633c.236.356.356.569-.252.567m4.364,0-.006,0a.6.6,0,0,1-.572-.332c-.75-1.2-1.51-2.385-2.265-3.577-.1-.161-.21-.314-.077-.53,1.14-1.79,2.275-3.581,3.469-5.46l6.273,9.885c-2.379.014-4.6.01-6.821.019M15.711,38.949l-.006-.007q13.994.029,27.985,0a.782.782,0,0,1,.564.139.735.735,0,0,1,.154.567c-.025,5.492-.016,10.984-.016,16.475v.585a.733.733,0,0,1-.193-.131,1.83,1.83,0,0,1-.306-.452q-2.762-4.331-5.509-8.664A3.521,3.521,0,0,0,38.047,47c-.822-.918-1.768-.773-2.539.439l-3.7,5.819c-.039.06-.081.119-.155.226l-.009-.014v0c-.166-.255-.324-.486-.472-.722L25.9,44.446a3.835,3.835,0,0,0-.353-.477c-.05-.056-.1-.093-.15-.141a2.466,2.466,0,0,0-.205-.193c-.739-.55-1.525-.287-2.209.79L15.511,56.186l-.449.708v-.028l-.01.017v-.87q0-8.2-.014-16.4c.009-.532.133-.663.674-.661" transform="translate(-4.7 -13.922)" fill="#f57c00"/>
        <path id="Trazado_159500" data-name="Trazado 159500" d="M14.067,36.078l0,0H45.424c1.376,0,1.86.483,1.86,1.858V61.453a2.423,2.423,0,0,1-.226,1.163,2.413,2.413,0,0,0,.23-1.171V37.93c0-1.376-.485-1.858-1.86-1.858H14.069c-1.216,0-1.736.357-1.849,1.357.119-.994.638-1.351,1.847-1.351" transform="translate(-4.715 -13.918)" fill="#f57c00"/>
        <path id="Trazado_159501" data-name="Trazado 159501" d="M68.893,89.678h-.014c-.2,0-.388.012-.579.03a5.994,5.994,0,0,0,.577,11.959c.193,0,.384-.009.574-.026.014,0,.028,0,.042,0,.149-.015.294-.041.44-.066.054-.009.109-.014.163-.025.105-.021.206-.052.31-.078s.182-.043.271-.071c.063-.02.122-.045.184-.067.125-.044.251-.085.373-.137.021-.009.042-.021.063-.03a5.993,5.993,0,0,0,3.592-5.5h.006c0-.049-.006-.1-.007-.144a6.031,6.031,0,0,0-5.992-5.839m.01,9.083a3.1,3.1,0,0,1-3.1-3.1v-.009a3.055,3.055,0,0,1,3.026-3.084h.09l0,0A3.09,3.09,0,0,1,72,95.624,3.14,3.14,0,0,1,68.9,98.761" transform="translate(-24.271 -34.602)" fill="#f57c00"/>
        <path id="Trazado_159502" data-name="Trazado 159502" d="M76.231,108.43c-.122.052-.248.094-.373.138.126-.044.252-.086.373-.138" transform="translate(-29.269 -41.837)" fill="#f57c00"/>
        <path id="Trazado_159503" data-name="Trazado 159503" d="M72.284,89.677a6.032,6.032,0,0,1,5.992,5.839,5.992,5.992,0,0,0-5.967-5.841h-.019c-.2,0-.4.012-.6.033.191-.019.383-.03.579-.031Z" transform="translate(-27.662 -34.601)" fill="#f57c00"/>
        <path id="Trazado_159504" data-name="Trazado 159504" d="M76.568,104.923a5.994,5.994,0,0,0,3.6-5.472c0-.01,0-.021,0-.031H80.16a5.993,5.993,0,0,1-3.592,5.5" transform="translate(-29.543 -38.361)" fill="#f57c00"/>
        <path id="Trazado_159505" data-name="Trazado 159505" d="M73.605,109.152l-.042,0,.042,0" transform="translate(-28.384 -42.116)" fill="#f57c00"/>
        <path id="Trazado_159506" data-name="Trazado 159506" d="M74.511,109c-.053.011-.109.016-.163.025.054-.009.109-.014.163-.025" transform="translate(-28.687 -42.059)" fill="#f57c00"/>
        <path id="Trazado_159507" data-name="Trazado 159507" d="M75.388,108.762c-.088.028-.181.047-.271.071.091-.024.182-.043.271-.071" transform="translate(-28.984 -41.965)" fill="#f57c00"/>
        <path id="Trazado_159508" data-name="Trazado 159508" d="M24.149,95.637A5.986,5.986,0,0,0,20.6,90.2c-.043-.02-.084-.042-.127-.061-.088-.037-.181-.066-.272-.1s-.187-.072-.283-.1c-.046-.014-.094-.023-.141-.036-.144-.041-.289-.081-.438-.111h-.009a5.99,5.99,0,0,0-6.676,8.226c.007.018.017.034.025.051.071.16.146.318.229.47.02.036.044.069.064.105.075.131.151.26.236.384.039.056.083.109.123.165.072.1.143.2.222.294.058.069.122.133.182.2s.133.152.2.222.17.155.256.232c.057.05.11.1.168.152.107.088.22.168.333.248.043.031.083.064.127.094.136.091.277.174.42.254.025.014.047.029.072.043q.253.137.52.249h0a5.972,5.972,0,0,0,2.331.467c.141,0,.279-.012.418-.021.069-.006.141,0,.209-.013.025,0,.05-.009.076-.012a6.011,6.011,0,0,0,5.246-5.35c.019-.2.029-.4.029-.6Zm-5.981,3.124h-.036A3.13,3.13,0,0,1,15.07,95.67a3.094,3.094,0,1,1,3.1,3.091" transform="translate(-4.699 -34.601)" fill="#f57c00"/>
        <path id="Trazado_159509" data-name="Trazado 159509" d="M18.134,89.674a6.016,6.016,0,0,1,1.2.115,5.988,5.988,0,0,0-6.676,8.226,5.991,5.991,0,0,1,5.478-8.341" transform="translate(-4.697 -34.6)" fill="#f57c00"/>
        <path id="Trazado_159510" data-name="Trazado 159510" d="M23.08,105.733a5.986,5.986,0,0,0,5.246-5.35,6.012,6.012,0,0,1-5.246,5.35" transform="translate(-8.905 -38.732)" fill="#f57c00"/>
        <path id="Trazado_159511" data-name="Trazado 159511" d="M22.825,109.113c-.069.007-.14.007-.209.012.069,0,.141,0,.209-.012" transform="translate(-8.726 -42.101)" fill="#f57c00"/>
        <path id="Trazado_159512" data-name="Trazado 159512" d="M14.924,106.194c-.071-.071-.136-.148-.2-.222.068.074.133.152.2.222" transform="translate(-5.68 -40.889)" fill="#f57c00"/>
        <path id="Trazado_159513" data-name="Trazado 159513" d="M13.714,104.659c-.085-.124-.161-.254-.236-.384.075.13.151.26.236.384" transform="translate(-5.2 -40.234)" fill="#f57c00"/>
        <path id="Trazado_159514" data-name="Trazado 159514" d="M14.284,105.463c-.078-.094-.149-.195-.222-.294.072.1.143.2.222.294" transform="translate(-5.426 -40.579)" fill="#f57c00"/>
        <path id="Trazado_159515" data-name="Trazado 159515" d="M18.141,108.407h0" transform="translate(-6.999 -41.828)" fill="#f57c00"/>
        <path id="Trazado_159516" data-name="Trazado 159516" d="M15.637,106.864c-.058-.048-.112-.1-.169-.152.057.05.111.1.169.152" transform="translate(-5.968 -41.174)" fill="#f57c00"/>
        <path id="Trazado_159517" data-name="Trazado 159517" d="M25.69,90.43c.043.018.084.041.127.06-.042-.019-.084-.042-.127-.06" transform="translate(-9.912 -34.892)" fill="#f57c00"/>
        <path id="Trazado_159518" data-name="Trazado 159518" d="M24.788,90.1c.1.029.188.068.282.1-.094-.034-.186-.072-.282-.1" transform="translate(-9.564 -34.765)" fill="#f57c00"/>
        <path id="Trazado_159519" data-name="Trazado 159519" d="M13.229,103.809c-.084-.152-.158-.31-.229-.469.071.16.146.317.229.469" transform="translate(-5.016 -39.873)" fill="#f57c00"/>
        <path id="Trazado_159520" data-name="Trazado 159520" d="M23.846,89.864c.148.029.293.07.438.111-.145-.041-.29-.08-.438-.111" transform="translate(-9.201 -34.674)" fill="#f57c00"/>
        <path id="Trazado_159521" data-name="Trazado 159521" d="M17.247,107.973c-.025-.014-.048-.029-.072-.044.025.014.048.03.072.044" transform="translate(-6.627 -41.644)" fill="#f57c00"/>
        <path id="Trazado_159522" data-name="Trazado 159522" d="M16.413,107.457c-.044-.029-.084-.063-.127-.094.043.031.083.064.127.094" transform="translate(-6.284 -41.426)" fill="#f57c00"/>
        <path id="Trazado_159523" data-name="Trazado 159523" d="M49.523,95.653v-.009a6.011,6.011,0,0,0-5.984-5.967h-.018a5.985,5.985,0,0,0-.058,11.969c.026,0,.052,0,.077,0h.037a5.986,5.986,0,0,0,5.944-6m-2.9.085a3.1,3.1,0,0,1-3.116,3.017l0,.007a3.139,3.139,0,0,1-3.076-3.152,3.089,3.089,0,0,1,3.138-3.038h.03a3.055,3.055,0,0,1,3.023,3.087c0,.026,0,.053,0,.08" transform="translate(-14.488 -34.601)" fill="#f57c00"/>
        <path id="Trazado_159524" data-name="Trazado 159524" d="M47.179,109.167c.028,0,.055,0,.083,0l.032,0h-.037c-.026,0-.051,0-.077,0" transform="translate(-18.204 -42.122)" fill="#f57c00"/>
        <path id="Trazado_159525" data-name="Trazado 159525" d="M47.277,89.678h0" transform="translate(-18.24 -34.602)" fill="#f57c00"/>
        <path id="Trazado_159526" data-name="Trazado 159526" d="M100.242,95.637a5.98,5.98,0,1,0-5.959,6.011,5.986,5.986,0,0,0,5.959-6.011m-5.985,3.124h0a3.09,3.09,0,0,1-3.084-3.1v-.031a3.055,3.055,0,0,1,3.041-3.067H94.3a3.088,3.088,0,0,1,3.062,3.073,3.13,3.13,0,0,1-3.1,3.12" transform="translate(-34.063 -34.601)" fill="#f57c00"/>
        <path id="Trazado_159527" data-name="Trazado 159527" d="M98.045,89.675h-.056a5.987,5.987,0,0,1,.04,11.973h.01a5.987,5.987,0,0,0,.006-11.974" transform="translate(-37.809 -34.601)" fill="#f57c00"/>
        <path id="Trazado_159528" data-name="Trazado 159528" d="M94.376,49.046c-.214-.02-.43,0-.645,0H78.855q-.287-.009-.575.01a1.462,1.462,0,0,0-1.4,1.45,1.4,1.4,0,0,0,.611,1.158l.01.007a1.35,1.35,0,0,0,.161.087c.037.018.074.038.112.052.023.009.048.015.071.022a1.4,1.4,0,0,0,.5.063c2.657.01,5.324,0,7.976,0h3.736c1.414,0,2.829.023,4.243,0h.006a1.414,1.414,0,0,0,1.467-1.36v-.01a1.435,1.435,0,0,0-1.39-1.479h-.009" transform="translate(-29.663 -18.921)" fill="#f57c00"/>
        <path id="Trazado_159529" data-name="Trazado 159529" d="M78.264,53.52c-.039-.015-.076-.034-.113-.052.037.018.074.037.113.052" transform="translate(-30.154 -20.63)" fill="#f57c00"/>
        <path id="Trazado_159530" data-name="Trazado 159530" d="M77.884,53.32l-.01-.007.01.007" transform="translate(-30.047 -20.571)" fill="#f57c00"/>
        <path id="Trazado_159531" data-name="Trazado 159531" d="M96.382,50.7v.01a1.414,1.414,0,0,1-1.467,1.36h-.006c-1.414.023-2.829,0-4.243,0H86.93c-2.652,0-5.319.01-7.976,0a1.4,1.4,0,0,1-.5-.063,1.4,1.4,0,0,0,.435.076l.083,0c2.652.016,5.318,0,7.976,0h3.735c1.414,0,2.829.014,4.243,0A1.416,1.416,0,0,0,96.4,50.725V50.72a1.452,1.452,0,0,0-.614-1.234,1.452,1.452,0,0,1,.6,1.213" transform="translate(-30.27 -19.094)" fill="#f57c00"/>
        <path id="Trazado_159532" data-name="Trazado 159532" d="M76.994,64.031a1.564,1.564,0,0,0,1.591.884h15.45c1.085,0,1.763-.6,1.748-1.473a1.35,1.35,0,0,0-.271-.822,1.772,1.772,0,0,0-1.451-.566H78.539a1.545,1.545,0,0,0-1.344.529,1.466,1.466,0,0,0-.08.123,1.375,1.375,0,0,0-.127.2,1.343,1.343,0,0,0,.006,1.127" transform="translate(-29.659 -23.939)" fill="#f57c00"/>
        <path id="Trazado_159533" data-name="Trazado 159533" d="M95.508,62.982a1.343,1.343,0,0,1,.271.822c.015.87-.663,1.472-1.749,1.473H78.581a1.566,1.566,0,0,1-1.591-.884,1.346,1.346,0,0,1-.006-1.127,1.342,1.342,0,0,0,.01,1.161,1.565,1.565,0,0,0,1.592.863H94.036c1.085,0,1.768-.583,1.748-1.473a1.366,1.366,0,0,0-.276-.834" transform="translate(-29.655 -24.301)" fill="#f57c00"/>
        <path id="Trazado_159534" data-name="Trazado 159534" d="M77.349,62.923a1.432,1.432,0,0,0-.079.122,1.466,1.466,0,0,1,.08-.123h0" transform="translate(-29.814 -24.278)" fill="#f57c00"/>
        <path id="Trazado_159535" data-name="Trazado 159535" d="M78.588,38.954H94.037a1.972,1.972,0,0,0,1.287-.4,1.313,1.313,0,0,0,.456-1.06c-.015-.868-.677-1.414-1.724-1.414H78.616c-.962,0-1.589.424-1.728,1.134a1.572,1.572,0,0,0-.022.313c.015.87.677,1.425,1.721,1.425" transform="translate(-29.658 -13.922)" fill="#f57c00"/>
        <path id="Trazado_159536" data-name="Trazado 159536" d="M78.63,36.076H94.07c1.047,0,1.708.547,1.724,1.414a1.315,1.315,0,0,1-.456,1.06,1.3,1.3,0,0,0,.459-1.067c-.015-.861-.677-1.414-1.724-1.414H78.623c-.965,0-1.6.43-1.72,1.141.138-.709.765-1.133,1.727-1.134" transform="translate(-29.673 -13.917)" fill="#f57c00"/>
        <path id="Trazado_159537" data-name="Trazado 159537" d="M76.922,76.764a1.158,1.158,0,0,0,.037.13,1.4,1.4,0,0,0,.06.15c.015.031.03.063.047.093a1.642,1.642,0,0,0,.108.164c.014.017.026.034.041.051a1.473,1.473,0,0,0,.165.169l.019.017a1.528,1.528,0,0,0,.219.151h0a1.454,1.454,0,0,0,.485.162,1.437,1.437,0,0,0,.178.012,1.288,1.288,0,0,0,.162,0c2.635.009,5.271,0,7.906,0,2.656,0,5.323.018,7.975,0h.08a1.414,1.414,0,0,0,1.379-1.449,1.429,1.429,0,0,0-1.426-1.405c-.43-.023-.86,0-1.293,0H78.623c-.951,0-1.524.376-1.709,1.1a.59.59,0,0,0-.008.065,1.459,1.459,0,0,0-.021.31c0,.045.006.091.01.136s.015.092.026.136" transform="translate(-29.665 -28.939)" fill="#f57c00"/>
        <path id="Trazado_159538" data-name="Trazado 159538" d="M78.467,79.533c.033.007.068,0,.1.007a1.432,1.432,0,0,1-.485-.162,1.409,1.409,0,0,0,.384.155" transform="translate(-30.128 -30.628)" fill="#f57c00"/>
        <path id="Trazado_159539" data-name="Trazado 159539" d="M76.885,77.234a1.42,1.42,0,0,1,.021-.31,1.432,1.432,0,0,0-.021.31" transform="translate(-29.665 -29.681)" fill="#f57c00"/>
        <path id="Trazado_159540" data-name="Trazado 159540" d="M77.942,79.281a1.488,1.488,0,0,1-.219-.151,1.426,1.426,0,0,0,.219.151" transform="translate(-29.989 -30.532)" fill="#f57c00"/>
        <path id="Trazado_159541" data-name="Trazado 159541" d="M77.066,78.232A1.333,1.333,0,0,1,77,78.083a1.52,1.52,0,0,0,.061.149" transform="translate(-29.712 -30.128)" fill="#f57c00"/>
        <path id="Trazado_159542" data-name="Trazado 159542" d="M95.285,78.261c-.027,0-.054,0-.08,0-2.653.018-5.319,0-7.976,0-2.635,0-5.271.009-7.9,0a1.423,1.423,0,0,1-.162,0,1.48,1.48,0,0,0,.165.011c2.637.012,5.271,0,7.905,0,2.652,0,5.318.01,7.978,0A1.415,1.415,0,0,0,96.671,76.9q0-.041,0-.081a1.435,1.435,0,0,0-.258-.8,1.436,1.436,0,0,1,.252.787,1.414,1.414,0,0,1-1.379,1.448" transform="translate(-30.544 -29.334)" fill="#f57c00"/>
        <path id="Trazado_159543" data-name="Trazado 159543" d="M76.929,77.786c-.011-.044-.02-.09-.026-.136.007.046.015.091.026.136" transform="translate(-29.673 -29.961)" fill="#f57c00"/>
        <path id="Trazado_159544" data-name="Trazado 159544" d="M77.29,78.642a1.349,1.349,0,0,1-.108-.164,1.453,1.453,0,0,0,.108.164" transform="translate(-29.78 -30.28)" fill="#f57c00"/>
        <path id="Trazado_159545" data-name="Trazado 159545" d="M77.588,79a1.473,1.473,0,0,1-.165-.168,1.473,1.473,0,0,0,.165.168" transform="translate(-29.873 -30.416)" fill="#f57c00"/>
        <path id="Trazado_159546" data-name="Trazado 159546" d="M16.346,12.334a7.178,7.178,0,0,0-.934.037,1.415,1.415,0,0,0-.131,2.776,3.9,3.9,0,0,0,.854.071H36.695a3.868,3.868,0,0,0,.854-.072,1.415,1.415,0,0,0-.145-2.776,7.414,7.414,0,0,0-.934-.035H16.346Z" transform="translate(-5.478 -4.758)" fill="#f57c00"/>
        <path id="Trazado_159547" data-name="Trazado 159547" d="M89.935,15.223a1.475,1.475,0,0,0,1.43-1.429,1.427,1.427,0,0,0-1.427-1.427h-.058a1.387,1.387,0,0,0-1.374,1.4c0,.015,0,.03,0,.045a1.429,1.429,0,0,0,1.428,1.408" transform="translate(-34.15 -4.772)" fill="#f57c00"/>
        <path id="Trazado_159548" data-name="Trazado 159548" d="M78.737,13.76a1.431,1.431,0,0,0-1.449-1.392,1.39,1.39,0,0,0-1.414,1.365v.049a1.438,1.438,0,0,0,1.395,1.441,1.48,1.48,0,0,0,1.469-1.464" transform="translate(-29.275 -4.772)" fill="#f57c00"/>
        <path id="Trazado_159549" data-name="Trazado 159549" d="M102.575,15.223a1.461,1.461,0,0,0,1.414-1.436,1.415,1.415,0,0,0-1.414-1.414,1.392,1.392,0,0,0-1.44,1.341c0,.014,0,.026,0,.04a1.431,1.431,0,0,0,1.394,1.468h.047" transform="translate(-39.022 -4.774)" fill="#f57c00"/>
        <path id="Trazado_159550" data-name="Trazado 159550" d="M33.695,48.694c.05.048.1.085.15.141-.049-.057-.1-.093-.15-.141" transform="translate(-13.001 -18.788)" fill="#f57c00"/>
        <path id="Trazado_159551" data-name="Trazado 159551" d="M64.5,58v.585a.746.746,0,0,1-.182-.12.747.747,0,0,0,.193.131v-.585c0-5.492-.009-10.983.016-16.475a.735.735,0,0,0-.154-.567.754.754,0,0,1,.143.556C64.489,47.013,64.5,52.5,64.5,58" transform="translate(-24.816 -15.806)" fill="#f57c00"/>
        <path id="Trazado_159552" data-name="Trazado 159552" d="M24.78,48.979,17.309,60.74l-.436.691v.027l.449-.707L24.79,48.99c.684-1.078,1.47-1.34,2.209-.79-.743-.561-1.532-.3-2.22.779" transform="translate(-6.51 -18.487)" fill="#f57c00"/>
        <path id="Trazado_159553" data-name="Trazado 159553" d="M47.725,53.915q-1.851,2.908-3.7,5.819c-.039.059-.08.117-.152.224l.009.013c.074-.107.117-.166.155-.226l3.7-5.819c.772-1.211,1.717-1.356,2.539-.439-.82-.929-1.776-.787-2.551.428" transform="translate(-16.929 -20.405)" fill="#f57c00"/>
      </g>
    </g>
  </g>
</svg>
